<?xml version='1.0' encoding='UTF-8'?>
<svg xmlns="http://www.w3.org/2000/svg" viewBox="0 0 7675.84 7675.80" width="7675.84" height="7675.80">
  <g transform="translate(0, 7675.80) scale(1, -1) translate(-1275.22, -1213.60) scale(1.00000)">
    <path d="m 8602.16,5051.5 c -3035.63,-250.4 -3238.62,-453.4 -3489.02,-3489 -250.39,3035.6 -453.37,3238.6 -3489.02,3489 3035.65,250.4 3238.63,453.4 3489.02,3489 250.4,-3035.6 453.39,-3238.6 3489.02,-3489" fill="#ffb600"/>
  </g>
  <g transform="translate(0, 7675.80) scale(1, -1) translate(-1275.22, -1213.60) scale(1.00000)">
    <path d="m 8201.57,7061.2 c -757.83,-62.5 -808.52,-113.2 -871.02,-871 -62.51,757.8 -113.18,808.5 -871.02,871 757.84,62.5 808.51,113.2 871.02,871.1 62.5,-757.9 113.19,-808.6 871.02,-871.1" fill="#ffb600"/>
  </g>
</svg>
