<?xml version='1.0' encoding='UTF-8'?>
<svg xmlns="http://www.w3.org/2000/svg" viewBox="0 0 7675.85 7675.89" width="7675.85" height="7675.89">
  <g transform="translate(0, 7675.89) scale(1, -1) translate(-1275.22, -11321.19) scale(1.14406)">
    <path d="M 7518.98,13250.3 C 4865.6,13031.4 4688.17,12854 4469.3,10200.6 c -218.86,2653.4 -396.28,2830.8 -3049.69,3049.7 2653.41,218.9 2830.83,396.3 3049.69,3049.7 218.87,-2653.4 396.3,-2830.8 3049.68,-3049.7" fill="#ffb600"/>
  </g>
  <g transform="translate(0, 7675.89) scale(1, -1) translate(-1275.22, -11321.19) scale(1.11383)">
    <path d="m 3796.43,15518 c -680.38,-56.1 -725.89,-101.6 -782.01,-782 -56.12,680.4 -101.61,725.9 -782.01,782 680.4,56.1 725.89,101.6 782.01,782 56.12,-680.4 101.63,-725.9 782.01,-782" fill="#ffb600"/>
  </g>
</svg>
