<?xml version="1.0" encoding="UTF-8" standalone="no"?>
<svg
   xmlns:dc="http://purl.org/dc/elements/1.1/"
   xmlns:cc="http://creativecommons.org/ns#"
   xmlns:rdf="http://www.w3.org/1999/02/22-rdf-syntax-ns#"
   xmlns:svg="http://www.w3.org/2000/svg"
   xmlns="http://www.w3.org/2000/svg"
   viewBox="0 0 6359.7466 6359.7466"
   height="6359.7466"
   width="6359.7466"
   xml:space="preserve"
   id="svg2"
   version="1.1"><metadata
     id="metadata8"><rdf:RDF><cc:Work
         rdf:about=""><dc:format>image/svg+xml</dc:format><dc:type
           rdf:resource="http://purl.org/dc/dcmitype/StillImage" /></cc:Work></rdf:RDF></metadata><defs
     id="defs6" /><g
     transform="matrix(1.3333333,0,0,-1.3333333,0,6359.7467)"
     id="g10"><g
       transform="scale(0.1)"
       id="g12"><g
         transform="scale(2.92626)"
         id="g14"></g><g
         transform="scale(2.21653)"
         id="g18"><path
           id="path20"
           style="fill:#ffffff;fill-opacity:1;fill-rule:evenodd;stroke:none"
           d="m 6979.88,8331.28 377.71,-224.05 c 0,0 1190.42,-455.85 2643.91,-440.19 1453.5,15.61 2438.1,83.37 3266.5,520.95 0,0 98.9,-750.18 224,-1172.15 125,-422.01 578.3,-1109.66 927.3,-1417.04 349,-307.37 971.6,-289.14 1289.4,-203.2 317.8,85.99 591.3,484.54 575.6,1130.51 -15.6,646.01 -78.1,927.35 -260.4,1156.54 -182.4,229.23 -145.9,406.35 -422,729.38 -276.1,322.99 -666.9,948.15 -901.3,1661.87 -234.4,713.7 -270.9,1167 -739.8,1641 -468.8,474.1 -830.9,620 -1474.3,679.9 l -510.6,211 c 0,0 -151,372.5 -419.3,393.3 -268.3,20.9 -596.5,-36.4 -596.5,-36.4 l -78.2,96.3 c 0,0 -570.5,93.8 -830.9,7.8 -260.5,-85.9 -507.96,-239.6 -507.96,-239.6 l -59.92,88.6 c 0,0 -398.55,-57.4 -778.83,-211 -380.32,-153.7 -442.85,-273.5 -442.85,-273.5 0,0 -130.25,234.4 -601.71,242.2 -471.46,7.8 -976.8,-560 -1268.56,-877.8 -291.72,-317.8 -515.76,-797.1 -515.76,-797.1 0,0 -322.99,-786.6 -786.64,-1312.82 -463.65,-526.18 -979.43,-1448.3 -1073.2,-1859.84 -93.77,-411.55 -218.81,-1552.48 640.77,-1833.82 859.63,-281.29 1578.55,93.8 1875.5,838.79 296.95,745 406.35,1041.95 448.04,1500.37 v 0" /></g><g
         transform="scale(1.44106)"
         id="g22"><path
           id="path24"
           style="fill:#6b543d;fill-opacity:1;fill-rule:nonzero;stroke:none"
           d="m 14648.4,14499.6 c -27.7,59 -2.2,129.3 56.9,157 59,27.6 129.3,2.2 156.9,-56.9 0.3,-0.6 101.4,-219.6 244,-211.7 151.4,8.4 259.2,252.2 259.6,252.9 26.5,59.5 96.3,86.2 155.8,59.7 34.6,-15.5 58,-45.4 66.5,-79.6 10,-33.6 87.1,-271.4 255,-215 212.7,71.4 202.1,199.3 202.1,199.7 -4.1,65.1 45.3,121.1 110.4,125.2 65.1,4.1 121.2,-45.3 125.2,-110.4 0.1,-0.8 19.2,-246.7 -252.3,-391.7 11.1,-81.7 3.8,-169.3 -18.4,-254.7 -29.4,-113.4 -85.8,-225.1 -160.6,-315.1 -78.9,-95 -179.1,-167.6 -292.1,-196.8 -70.1,-18.2 -144.5,-19.7 -220.9,0.1 -356.1,92.4 -400.9,576.9 -406.1,731 -183.4,91.7 -281.7,305.5 -282,306.3 v 0" /></g><g
         transform="scale(1.7395)"
         id="g26"><path
           id="path28"
           style="fill:#f6bbcf;fill-opacity:1;fill-rule:evenodd;stroke:none"
           d="m 15681.1,12237.6 c 321.3,22.6 592.5,-112 605.7,-300.5 13.2,-188.5 -236.6,-359.6 -557.8,-382.1 -321.3,-22.5 -592.5,112.1 -605.7,300.6 -13.2,188.4 236.5,359.5 557.8,382" /></g><g
         transform="scale(1.28691)"
         id="g30"><path
           id="path32"
           style="fill:#f6bbcf;fill-opacity:1;fill-rule:evenodd;stroke:none"
           d="m 13609.1,16267.9 c 458.6,32.1 845.6,-159.9 864.4,-428.9 18.9,-269.1 -337.5,-513.3 -796.1,-545.4 -458.7,-32.1 -845.7,159.9 -864.6,428.9 -18.8,269 337.6,513.2 796.3,545.4" /></g><g
         transform="scale(1.39672)"
         id="g34"><path
           id="path36"
           style="fill:#f6bbcf;fill-opacity:1;fill-rule:nonzero;stroke:none"
           d="m 16299.1,14607.4 c -166.7,-7.9 -279.1,94.1 -350.1,199.1 -71.6,-86.7 -172.5,-174 -299.7,-198.3 8.3,-143.9 48.4,-434.7 234.7,-483.1 36.4,-9.4 72.1,-8.6 106.1,0.2 64.8,16.7 125.3,62.1 175.6,122.6 54.4,65.5 95.5,147.1 117.1,230.3 11.4,44.1 17.2,88 16.3,129.2 v 0" /></g><g
         transform="scale(1.36498)"
         id="g38"><path
           id="path40"
           style="fill:#77b8e7;fill-opacity:1;fill-rule:evenodd;stroke:none"
           d="m 13451.6,16291.7 c 226.1,-8.3 398.5,-310.5 385.2,-675.1 -13.3,-364.6 -207.4,-653.5 -433.4,-645.2 -226.1,8.3 -398.5,310.6 -385.2,675.1 13.3,364.6 207.4,653.5 433.4,645.2" /></g><g
         transform="scale(1.64819)"
         id="g42"><path
           id="path44"
           style="fill:#77b8e7;fill-opacity:1;fill-rule:evenodd;stroke:none"
           d="m 15970,13717.5 c 187.2,-6.9 330,-257.2 319,-559.1 -11.1,-302 -171.7,-541.2 -359,-534.4 -187.2,6.9 -330,257.2 -319,559.1 11,302 171.8,541.2 359,534.4" /></g><g
         transform="scale(1.72169)"
         id="g46"><path
           id="path48"
           style="fill:#ffffff;fill-opacity:1;fill-rule:evenodd;stroke:none"
           d="m 11135.5,10008.1 -231.3,-620.37 c 0,0 -348.8,214.62 -704.2,214.62 -355.5,0 -804.89,-345.42 -804.89,-345.42 0,0 -482.9,-177.73 -623.74,-399.08 -140.85,-221.29 -124.07,-700.88 -124.07,-700.88 0,0 -187.84,-140.85 -191.15,-529.83 -3.37,-388.98 476.16,-1193.82 476.16,-1193.82 0,0 429.29,-442.7 1066.45,-456.12 637.14,-13.42 1012.74,231.4 1012.74,231.4 0,0 77.1,-580.13 352.1,-834.99 275,-254.87 469.5,-258.24 721,-164.32 251.5,93.86 328.6,375.56 328.6,375.56 l -36.8,83.87 831.6,110.65 187.8,40.25 737.8,3.37 476.2,251.5 439.3,194.46 c 0,0 244.9,-452.7 506.4,-499.63 261.6,-46.93 385.7,56.98 442.6,144.22 57.1,87.18 197.9,600.28 197.9,600.28 l -144.2,593.54 c 0,0 207.9,345.42 228,734.4 20.2,389.03 -332,1197.19 -332,1197.19 l -165.1,700.88 -458.6,-3.31 -214.6,228.03 c 0,0 -3987.3,43.55 -3974,43.55 v 0" /></g><g
         transform="scale(2.22597)"
         id="g50"><path
           id="path52"
           style="fill:#6b543d;fill-opacity:1;fill-rule:nonzero;stroke:none"
           d="m 13260.8,8112.78 c 4.5,-81.72 57.8,-926.74 398.4,-1549.48 179.1,-327.54 402.5,-659.76 683.5,-893.99 276.5,-230.65 610.4,-366.5 1014.9,-307.83 762.7,110.65 804.7,877.96 828.7,1318.49 1.3,24.12 2.6,47.3 3.5,62.53 11.6,197.4 -56.9,446.01 -173.8,709.44 -135.7,305.81 -336.2,630.2 -553.1,918.44 -207.2,275.43 -427.2,647.45 -607.6,1010.97 -180.1,363.13 -321.2,719.25 -371.3,964.25 -59.9,293.5 -258.3,961.6 -755,1432.4 -289.8,274.7 -682.1,482.2 -1209.3,507.8 75.4,-81.1 144,-182.5 195.3,-309.1 10.1,-25.1 -2,-53.6 -27,-63.7 -25.1,-10.2 -53.6,1.9 -63.8,27 -197.7,488.4 -678.3,561.7 -711.1,566.2 -21.4,1.9 -39.7,17.8 -43.8,39.9 -0.1,0.8 -50.8,296.2 -481.2,344.1 -442.4,49.1 -573.4,-96 -573.8,-96.4 -18.5,-19.7 -49.4,-20.7 -69.1,-2.2 -19.7,18.5 -20.6,49.5 -2.1,69.2 0.5,0.5 164.3,181.2 655.7,126.6 409.9,-45.5 527.8,-297.2 557.6,-389.6 76.8,-15.1 275.8,-66.5 462.1,-217.6 7,3.7 15,5.7 23.4,5.6 596,-8 1034.4,-233.6 1354.5,-537 515.9,-489 721.4,-1180.2 783.4,-1483.7 48.3,-236.4 186.4,-584.01 363.2,-940.49 178.1,-358.85 394.7,-725.34 598,-995.65 220.8,-293.36 425.3,-624.45 564.2,-937.57 122.9,-276.96 194.8,-540.93 182.3,-754.64 -1.5,-24.48 -2.5,-42.86 -3.5,-61.77 -25.7,-469.86 -70.4,-1288.2 -912.6,-1410.35 -435.8,-63.21 -794.6,82.34 -1091.1,329.61 -292.4,243.71 -522.9,585.86 -706.9,922.34 -316.3,578.49 -392,1339.32 -407.1,1544.94 -318.6,-162.53 -760.9,-292.1 -1322.6,-373.23 -696.8,-100.63 -1579.5,-127.4 -2640.29,-50.76 -1122.53,81.09 -1810.27,288.05 -2216.16,580.46 -4.67,3.33 -9.21,6.7 -13.79,10.07 -13.8,-178.8 -65.64,-608.68 -258.09,-1073.83 l -5.71,-13.79 C 6455.3,6525.61 6122.28,5720.52 4994.63,5842.85 c -571.84,62.04 -859.99,328.57 -995.38,667.39 -133.02,332.94 -114.83,732.22 -75.23,1072.75 32.59,280.37 142.08,578.22 279.19,855.67 196.17,396.95 449.5,753.11 613.39,954.15 136.84,167.79 294.16,374.08 463.39,631.49 169.32,257.5 351.09,567 537.07,941.5 171.03,344.4 377.81,651.5 583.3,902.7 249.33,304.9 498.39,529.4 680.29,640 178.62,108.6 388.95,167.6 603.73,155.6 190.21,-10.5 383.61,-76.5 561.15,-212.5 276.65,204.5 716.59,454.4 1201.32,440 26.96,-0.7 48.21,-23.1 47.49,-50.1 -0.32,-11.9 -4.9,-22.8 -12.27,-31.1 239.49,149.5 765.43,404.1 1364.73,229.8 25.9,-7.5 40.8,-34.6 33.3,-60.5 -7.5,-25.9 -34.6,-40.8 -60.5,-33.3 -768.9,223.6 -1411.43,-306 -1413.32,-307.5 -20.93,-17 -51.7,-13.8 -68.73,7.1 -17.03,20.9 -13.84,51.7 7.1,68.7 0.49,0.4 41.33,34 114.56,81.2 -4.77,-1.3 -9.8,-2.1 -15.05,-1.9 -769.38,22.7 -1427.2,-665.4 -1429.09,-667.4 -18.82,-19.4 -49.78,-19.8 -69.14,-1 -19.32,18.9 -19.76,49.8 -0.94,69.1 0.67,0.8 81.4,85.2 219.77,195 -155.04,112.7 -321.88,167.7 -485.72,176.8 -194.61,10.8 -385.54,-42.8 -547.85,-141.5 -172.96,-105.2 -412.36,-321.8 -655,-618.5 -201.57,-246.5 -404.27,-547.3 -571.44,-884 -187.51,-377.6 -371.48,-690.6 -543.22,-951.88 -171.88,-261.37 -330.96,-470.08 -469.1,-639.49 -160.69,-197.04 -409.07,-546.28 -601.53,-935.73 -132.65,-268.42 -238.46,-555.49 -269.62,-823.51 -38.22,-328.66 -56.32,-712.67 68.72,-1025.62 122.68,-307.01 387.02,-548.88 914.96,-606.16 1055.05,-114.42 1372.17,652.12 1614.31,1237.44 l 5.71,13.83 c 221.52,535.28 251.49,1020.1 255.26,1111.12 -329.16,285.36 -429.52,638.64 -419.73,1029.44 21.07,843.36 570.94,1738.86 572.52,1741.36 14.06,23.1 44.16,30.4 67.2,16.3 23.05,-14 30.33,-44.1 16.27,-67.2 -1.53,-2.5 -537.93,-876.1 -558.37,-1692.76 -9.97,-399.64 103.33,-756.61 486.17,-1032.4 391.65,-282.12 1063.09,-482.4 2166.02,-562.09 1053.58,-76.1 1929.38,-49.64 2619.58,50.04 757.1,109.35 1288.3,305.94 1584,551 275.2,228.12 412,590.03 412.9,986 1,402.88 -138.4,840.11 -415.6,1208.81 -16.1,21.5 -11.8,52.1 9.8,68.3 21.6,16.2 52.2,11.8 68.4,-9.8 290.1,-385.9 436.1,-844.4 435.1,-1267.31 -1,-424.4 -149.5,-813.85 -448.2,-1061.43 -62.1,-51.53 -134,-100.94 -215.5,-147.98 v 0" /></g><g
         transform="scale(1.3395)"
         id="g54"><path
           id="path56"
           style="fill:#ffffff;fill-opacity:1;fill-rule:evenodd;stroke:none"
           d="m 14804.3,12605.1 379.3,558.2 267.3,75.4 487,379.3 362.1,-245.7 -40.9,-258.6 15.1,-433.2 -273.7,-801.7 c 0,0 -1202.6,732.8 -1196.2,726.3 v 0" /></g><g
         transform="scale(1.34879)"
         id="g58"><path
           id="path60"
           style="fill:#6b543d;fill-opacity:1;fill-rule:nonzero;stroke:none"
           d="m 14772.1,12465 c -22.3,-38.6 -71.7,-51.7 -110.3,-29.4 -38.6,22.3 -51.7,71.7 -29.4,110.3 1,1.6 325,559.5 431.5,621.9 55.9,32.8 118.1,40.8 176.6,48.5 41.4,5.4 80,10.4 88.6,19.3 2.4,2.5 7.9,8.4 14.4,15.4 80.2,85.6 316.1,337.3 540.6,330.3 87.8,-2.8 171.6,-42.7 240,-98.6 50.8,-41.5 93.9,-92.6 124.1,-143.9 33.1,-56.1 51.8,-115 50.2,-166.3 -1.2,-37.7 -12.4,-71.7 -35.3,-99.7 -30.6,-37.3 -50.6,-79.5 -57.9,-123.1 -6.9,-40.8 -2.8,-83.4 14.2,-124.4 32.6,-78.5 61,-273.8 -3.5,-517.8 -41.1,-156.1 -119.9,-334.6 -259.1,-518.6 -26.9,-35.6 -77.5,-42.6 -113.1,-15.8 -35.6,26.9 -42.7,77.6 -15.8,113.2 125.2,165.4 195.6,324.3 232,462.2 53.8,204.1 34.7,356.5 10.4,414.9 -29.1,70.2 -36.2,142.9 -24.4,212.9 12.1,71.8 44,140.1 92,198.9 0.6,0.7 -0.7,0.2 -0.6,2.3 0.6,20 -9.8,48.3 -28.1,79.1 -20.9,35.7 -51.3,71.5 -87.4,100.9 -43.6,35.8 -94.1,61 -142.7,62.6 -151.5,4.8 -350.4,-207.5 -418,-279.7 -5.6,-5.9 -10.2,-10.9 -15.8,-16.7 -47.6,-49.5 -113.4,-58.1 -184,-67.3 -42.9,-5.6 -88.4,-11.5 -115.9,-27.6 -68.9,-40.4 -372.4,-562.3 -373.3,-563.8 v 0" /></g><g
         transform="scale(1.65421)"
         id="g62"><path
           id="path64"
           style="fill:#f6f79e;fill-opacity:1;fill-rule:evenodd;stroke:none"
           d="m 15867.2,10440.8 c 0,0 -87.2,-596.85 -397.9,-823.73 -280.4,-204.75 -504,5.68 -478,212.91 30.6,245.42 327.7,517.62 216.3,834.22 -87.3,247.8 -397.9,244.3 -596.9,7 -198.9,-237.4 -401.4,-984.31 -314.1,-1322.84 87.3,-338.59 520,-715.56 1141.3,-551.5 621.3,164.07 813.3,1057.55 862.1,1431.04 l -432.8,212.9 v 0" /></g><g
         transform="scale(1.66121)"
         id="g66"><path
           id="path68"
           style="fill:#6b543d;fill-opacity:1;fill-rule:nonzero;stroke:none"
           d="m 15365.7,9629.44 c 286.8,209.48 369.6,775.26 369.8,776.86 h 0.1 c 1,6.7 2.9,13.2 6.1,19.5 16,32.5 55.2,45.8 87.7,29.8 l 431,-212 v 0 c 24.4,-12.1 39.6,-38.7 35.9,-67.2 -30.2,-231.11 -114.4,-657.91 -318.5,-996.7 -136.3,-226.22 -325.8,-413.97 -588.2,-483.26 v 0.12 l -0.3,-0.12 -7.3,-1.92 -0.1,0.11 -0.2,-0.11 c -325.3,-83.86 -602.4,-26.73 -810.3,96.01 -209.8,123.94 -349.3,315.79 -397.5,498.55 h 0.1 l -0.1,0.24 -0.8,3.25 v 0 0.24 c -44.7,172.89 -19.6,439.74 41.4,696.6 65.9,277.59 175,548.39 284.4,678.89 72.4,86.4 158.8,145.3 246,176 63.5,22.4 127.9,29.8 188.4,22.2 62.7,-8 120.7,-32 168.8,-72.4 44.7,-37.4 80.5,-88.4 103.3,-153 79.2,-225.1 -19,-419.1 -110,-599.1 -47.2,-93.22 -92.2,-182.13 -102,-261.35 -6.6,-52.31 7.7,-104.74 37.5,-145.55 14.4,-19.69 32.7,-36.79 54,-49.85 20.9,-12.7 44.9,-21.37 71.6,-24.74 58.8,-7.34 130.2,11.26 209.2,68.93 z m 483.2,670.56 c -38.3,-179.8 -150.7,-589.66 -406.2,-776.27 -109.2,-79.7 -213.1,-104.68 -302.1,-93.54 -45.6,5.71 -87.3,20.94 -123.9,43.21 -36,21.92 -66.9,50.99 -91.5,84.76 -49.2,67.3 -72.9,153.14 -62.2,238.38 12.7,101.44 62.8,200.58 115.4,304.46 78.9,156 164,324.2 103.3,496.5 -14.6,41.4 -36.7,73.3 -63.7,96 -28.6,24.1 -63.3,38.3 -101.1,43.1 -40,5.1 -83.9,-0.3 -128.4,-16 -66.1,-23.2 -132.4,-68.9 -189,-136.4 -96.6,-115.3 -195.5,-365 -257.3,-625.06 -56.8,-239.17 -81.3,-483.02 -42.5,-633.76 h 0.1 l 0.8,-2.95 v 0 c 40.2,-152.18 158.5,-313.27 337.5,-418.97 181,-106.91 423.8,-156.21 711,-82.23 v 0.06 l 7.2,1.87 -0.1,0.05 c 224,59.12 388.8,224.3 509.2,424.22 179.6,298.09 261.1,671.86 294.6,899.57 l -311.1,153 v 0" /></g><g
         transform="scale(1.85363)"
         id="g70"><path
           id="path72"
           style="fill:#f6f79e;fill-opacity:1;fill-rule:evenodd;stroke:none"
           d="m 14368.9,9843.97 1641.5,5631.53 289.6,-96.6 -1597.9,-5684.47 -333.2,149.54" /></g><g
         transform="scale(1.86101)"
         id="g74"><path
           id="path76"
           style="fill:#6b543d;fill-opacity:1;fill-rule:nonzero;stroke:none"
           d="m 15986,15339.6 -1603.8,-5502.16 223.6,-100.32 1558.2,5543.08 z m -1729.7,-5516.72 1634.5,5607.52 c 8.9,31 41.3,48.8 72.3,39.8 1.5,-0.4 3,-0.9 4.4,-1.4 l 286.2,-95.4 c 29.8,-9.9 46.3,-41.4 37.9,-71.2 h 0.1 L 14700.2,9640.24 c -8.8,-31.11 -41.1,-49.28 -72.2,-40.57 -3.9,1.07 -7.5,2.52 -11,4.3 l -328.9,147.61 c -27.6,12.25 -40.9,43.25 -31.8,71.3 v 0" /></g><g
         transform="scale(1.74082)"
         id="g78"><path
           id="path80"
           style="fill:#ffffff;fill-opacity:1;fill-rule:evenodd;stroke:none"
           d="m 15109.4,10462 -33.3,-414.5 -86.2,-155.93 c 0,0 29.9,-189.05 155.9,-272 126.1,-82.89 310.1,-119.37 310.1,-119.37 l 145.2,83.41 138.4,-657.16 c 0,0 182.4,182.38 371.5,487.53 189,305.14 82.9,805.92 82.9,805.92 0,0 -374.8,859 -1084.5,242.1 v 0" /></g><g
         transform="scale(1.74253)"
         id="g82"><path
           id="path84"
           style="fill:#6b543d;fill-opacity:1;fill-rule:nonzero;stroke:none"
           d="m 15532.8,9702.25 c 5.2,34.15 37.1,57.68 71.3,52.57 34.1,-5.11 57.6,-37.02 52.5,-71.16 -0.1,-0.8 -39.5,-284.07 -375.7,-196.9 -8,2.01 -12.9,3.33 -15.6,4.08 -142.1,39.99 -239.2,111.1 -297.5,187.37 -63.2,82.69 -81.7,173.77 -63.7,243.15 l 0.1,0.46 -0.1,0.06 0.7,2.58 c 0.3,1.37 0.7,2.69 1.2,4.01 20.6,69.67 62,103.33 101.6,119.23 -39.6,126.6 -73,379.9 196.9,568 71.8,50 152.8,82.4 237.4,98.1 126.8,23.4 261.4,8.8 384.3,-40.8 123.1,-49.6 234.8,-134.1 315.9,-250.3 55.7,-80.1 96.9,-175.2 117.1,-284.5 40.8,-220.69 2.3,-438.76 -75.9,-636.69 -94,-237.93 -245.9,-447.45 -385.2,-596.54 81.2,-121.09 296.3,-484.19 345.9,-1001.99 35.5,-372.16 -102.1,-684.81 -227.1,-884.98 l 0.9,-1.95 c 0.3,-0.8 109.7,-270.81 130.3,-539.04 8.9,-114.95 -21.4,-252.4 -65,-378.48 -62.7,-181.23 -157.2,-344.72 -202.2,-382.94 -9.3,-7.87 -12.2,-10.45 -15.4,-13.26 -69.3,-60.6 -127.7,-111.73 -340.2,-87.34 -120.5,13.83 -281.7,108.17 -404.6,230.41 -84,83.44 -151.9,181.4 -180.1,278.27 -198.1,-163.67 -353.5,-182.9 -421.8,-181.57 -49.8,-49.87 -180.5,-159.94 -428,-241.55 -290.3,-95.72 -725.1,-18.31 -821.7,0.86 -347.4,-148.86 -687.9,-144.62 -856.4,-129.58 10.8,-19.57 17.3,-35.92 17.8,-47.75 2.5,-54.34 -18.2,-180.25 -132.5,-296.46 -68.4,-69.38 -170.6,-136.53 -322.4,-183.41 -188.2,-58.19 -369.6,-15.84 -526.2,84.93 -175.7,113.05 -319.8,300.88 -404.5,500.31 -68.1,160.45 -89.5,298.18 -96.8,415.31 -117.6,-67.26 -396.2,-189.26 -896.67,-211.3 -705.64,-31.16 -1194.18,522.8 -1195.62,524.41 -22.95,25.65 -20.77,65.08 4.88,88.03 25.65,23.01 65.08,20.78 88.09,-4.88 1.26,-1.43 451.01,-511.32 1097.25,-482.86 654.97,28.93 890.37,227.37 891.07,227.95 2.2,1.78 4.5,3.38 6.8,4.82 -0.9,74.32 -2.2,135.78 -19,179.39 -16.2,41.95 -48,82.07 -81,123.67 -59.9,75.7 -123.2,155.52 -137.6,274.83 -75.9,-35.81 -205.7,-94.17 -396.7,-49.24 -174.4,41.04 -265.69,154.95 -349.02,258.88 -33.97,42.41 -66.45,82.98 -101.06,111.96 -74.08,62.04 -129,171.08 -153.68,301.35 -22.32,117.98 -20.6,255.26 13.83,391.26 48.21,190.25 108.06,252.74 174.92,322.58 28.58,29.84 58.65,61.29 88.55,107.14 112.99,173.26 374.16,238.51 374.96,238.68 33.5,8.55 67.5,-11.71 76,-45.22 8.5,-33.52 -11.7,-67.55 -45.2,-76.1 -0.7,-0.11 -215.3,-53.83 -301.09,-185.36 -36.55,-56.13 -70.76,-91.82 -103.18,-125.68 -54.63,-57.1 -103.53,-108.18 -143.58,-266.34 -29.96,-118.16 -31.63,-236.66 -12.4,-338.01 19.34,-102.15 59.05,-184.85 111.1,-228.46 43.73,-36.61 80.11,-82.01 118.22,-129.52 70.43,-87.87 147.63,-184.22 280.03,-215.38 153.3,-36.04 259.5,14.23 320.2,42.98 19.1,9.07 34.9,16.53 49.9,21.01 5.8,151.33 -38.9,341.23 -89.5,555.86 -23,97.5 -47.1,199.93 -68,304.38 -59.8,299.22 -8.8,568.48 38.7,819.04 12.5,66.17 24.8,131.07 34,190.12 32.5,209.47 107.5,342.84 172.4,457.67 -71.2,58.82 -279.3,203.5 -604.8,206.02 -408.91,3.1 -764.59,-333.65 -765.63,-334.63 -6.48,-6.08 -13.94,-10.44 -21.86,-13.2 -25.71,-9.75 -410.9,-158.22 -541.06,-365.27 -57.15,-90.96 -97.32,-241.49 -121.6,-390.58 -32.25,-198.33 -38.28,-385.13 -18.65,-421.34 16.3,-30.36 4.94,-68.29 -25.48,-84.59 -30.36,-16.36 -68.29,-4.99 -84.59,25.42 -7.63,14.06 -13.37,39.2 -17.1,72.48 -52.8,-169.46 -107.66,-451.18 -20.37,-740.7 137.73,-457.04 423.63,-590.75 424.44,-591.15 31.1,-14.98 44.13,-52.34 29.15,-83.44 -15.04,-31.05 -52.34,-44.08 -83.44,-29.1 -0.98,0.46 -336.18,157.47 -490.04,667.94 -152.82,507.25 89.41,991.72 90.1,993.15 10.16,20.54 30.07,33.05 51.36,34.66 4.54,56.76 11.6,116.79 21.35,176.76 26.57,163.04 72.14,330.32 139.23,437 142.32,226.51 521.76,383.87 592.52,411.76 61,54.63 423.18,362.75 842.27,359.53 335.7,-2.52 564.3,-142.95 663.6,-218.93 6.1,13.08 11.6,26.11 16.6,39.14 19,50.96 33.4,117.7 47.8,185.02 29.7,138.36 59.8,278.9 144.9,348.63 26.8,21.86 66.2,17.9 88.1,-8.84 21.9,-26.74 17.9,-66.17 -8.8,-88.03 -51.3,-42.01 -76.8,-160.8 -101.9,-277.7 -15.2,-71.11 -30.4,-141.69 -53.2,-202.58 -21.4,-57.1 -51.2,-109.9 -83.6,-167.23 -59.8,-105.99 -129.2,-228.86 -158.4,-416.98 -10.4,-66.57 -22.4,-129.64 -34.5,-194.03 -45.3,-238.79 -93.9,-495.42 -38.7,-771.58 21.2,-105.93 44.7,-205.61 67,-300.48 57.1,-242.23 107,-454.33 89.5,-632.35 -12.7,-128.67 51.6,-209.87 111.8,-285.91 39.1,-49.29 76.8,-96.81 99.6,-155.98 25.4,-65.71 26.3,-140.19 27.4,-230.29 v -0.23 c 1.5,-131.36 3.5,-299.97 91.2,-506.45 75.6,-178.07 202.8,-344.84 357,-444.01 127.3,-81.89 273,-116.78 422,-70.76 129.2,39.94 214.5,95.15 270,151.62 83.1,84.42 98.4,168.2 96.8,203.5 -2.1,48.32 -368.5,414.63 -369.5,415.66 -24.4,24.45 -24.4,64.1 0,88.55 24.4,24.45 64.1,24.45 88.5,0 0.8,-0.75 168.4,-168.44 288,-313.17 4.6,0.17 9.2,-0.17 13.9,-1.03 1.3,-0.23 451.9,-89.12 910.9,114.89 12.5,5.51 25.9,6.6 38.4,3.9 v 0.23 c 1.4,-0.29 480.5,-105.65 775.7,-8.32 293.5,96.76 392.3,225.19 392.6,225.59 15.1,19.51 39.5,27.66 62.2,22.96 v 0 c 0.7,-0.18 266.3,-62.33 636.7,469.94 19.7,28.35 58.6,35.35 87.1,15.61 28.3,-19.68 35.3,-58.7 15.6,-87.05 -67.2,-96.59 -132.5,-175.55 -194.9,-240.06 0.5,-2.98 0.7,-6.08 0.7,-9.18 0,-89.12 67.2,-193.91 157.1,-283.26 104.7,-104.16 236.7,-183.93 330.8,-194.72 158,-18.13 197.2,16.3 243.8,56.99 7.3,6.42 15.1,13.25 16.9,14.74 33.2,28.24 109.2,166.83 165,328.21 38.7,111.73 65.6,231.73 58.2,328.54 -12.7,164.42 -61.7,330.32 -93.4,424.04 -54.6,-71.91 -94.3,-111.57 -94.6,-111.97 -24.3,-24.62 -63.8,-24.9 -88.4,-0.74 -24.5,24.16 -24.9,63.7 -0.7,88.26 1.3,1.26 430.2,430.24 373.4,1023.91 -56.6,591.38 -338.1,963.71 -351.3,980.93 -19.3,24.33 -17.9,59.86 4.4,82.64 138.9,140.71 298.7,351.21 394.1,592.7 70.5,178.53 105.5,373.53 69.5,568.22 -16.7,90.4 -50.9,169.2 -97.1,235.5 -66.6,95.6 -158.5,165.1 -259.6,205.9 -101.3,40.9 -211.7,53 -315.3,33.9 -67,-12.4 -131.3,-38.1 -188.5,-78 -267,-186.1 -142.2,-454.2 -127.6,-483.5 7,-11.9 10.2,-26.2 8,-41 -5.1,-34.2 -37,-57.73 -71.2,-52.62 -0.1,0 -44.3,7.46 -59.3,-43.04 l -0.2,-0.69 -0.7,-2.58 -0.1,0.05 c -8.8,-35.06 3.9,-85.28 42.3,-135.6 43.6,-57.05 118.9,-111.05 231.9,-142.84 6.9,-1.9 11.5,-3.16 13.2,-3.62 200.6,-51.99 220.6,94.23 220.6,94.69 v 0" /></g><g
         transform="scale(2.39309)"
         id="g86"><path
           id="path88"
           style="fill:#f9c9d3;fill-opacity:1;fill-rule:evenodd;stroke:none"
           d="m 13414.2,15943.6 c -1427.3,259.5 -3352.3,-135.1 -4110.84,-1484.9 -779.32,-1386.7 -323.3,-1655.1 19.31,-1708.1 342.61,-53.1 627.26,115.8 627.26,115.8 0,0 77.27,-530.8 472.87,-612.8 395.7,-82.1 752.8,62.7 752.8,62.7 0,0 43.4,-492.2 525.9,-617.6 482.6,-125.5 670.7,4.8 670.7,4.8 0,0 236.5,-386 694.9,-443.9 458.4,-57.9 709.3,120.6 709.3,120.6 0,0 168.9,-386 612.8,-492.2 444,-106.1 583.9,106.2 583.9,106.2 0,0 164,-386 675.5,-453.6 511.5,-67.6 564.6,332.9 608,791.4 43.4,458.4 -120.7,1732.2 -738.3,2851.7 -318.6,577.5 -1417.3,1635 -2104,1759.9 h -0.1" /></g><g
         transform="scale(2.22997)"
         id="g90"><path
           id="path92"
           style="fill:#ffffff;fill-opacity:1;fill-rule:evenodd;stroke:none"
           d="m 15018.5,15510.5 1281.5,-2188 c -8.3,291.1 -44.8,617.6 -108.8,961.4 -3.1,16.7 -6.3,33.5 -9.5,50.3 -67.4,122.3 -375.3,682.8 -618.3,1145.9 -163.9,312.4 -431.2,563.7 -620,715.5 27,-176.3 53.4,-415.6 75.1,-685.1 z m 46.8,-1541.6 1088.2,-2113.3 c 28,140 79.8,422.9 114.3,751.7 l -1200.3,1924.4 c 3.6,-193.4 3.3,-384 -2.2,-562.8 z m -153.7,-1242.2 617.7,-1060 c 135,-22.5 239.8,-15.6 319.4,3.6 l -849.2,1550.2 c -26.2,-179.1 -57.4,-347.3 -87.9,-493.8" /></g><g
         transform="scale(2.33766)"
         id="g94"><path
           id="path96"
           style="fill:#ffffff;fill-opacity:1;fill-rule:evenodd;stroke:none"
           d="m 12673.1,11969.6 c 43.8,-65.1 282,-389.8 703.8,-443 469.3,-59.3 726.2,123.4 726.2,123.4 0,0 0.7,-1.7 2.3,-5 32.4,115.1 216.4,793 256.9,1477.1 44.5,750.8 -29.6,1827.7 -108.7,2336.5 -38.9,250.3 -168.7,552 -290.4,794 l -114.4,47.4 c -234.4,-1028.4 -493.4,-2100.5 -773,-3095 -121.7,-432.9 -327.1,-822.9 -402.7,-1235.4 v 0" /></g><g
         transform="scale(2.33854)"
         id="g98"><path
           id="path100"
           style="fill:#ffffff;fill-opacity:1;fill-rule:evenodd;stroke:none"
           d="m 11429.8,12601.1 c 4.2,1.6 6.5,2.5 6.5,2.5 0,0 44.4,-503.7 538.2,-632 493.8,-128.4 686.3,4.9 686.3,4.9 0,0 2.6,-4.1 7.5,-11.4 l 4.8,26.2 c 0,0 313.5,841.9 654.3,2106 284,1053.8 492.5,1918.8 554,2177.4 -28.6,9.6 -56.8,18.1 -84.4,25.3 v 0 c 17.4,-4.5 35,-9.6 52.8,-15.1 -343.8,-302.3 -1017.7,-860.7 -1552,-1780.3 -602.4,-1036.9 -864.1,-1896.1 -864.1,-1896.1 l -3.9,-7.4 z m -18.6,-6.7 c 2.9,1 5.5,1.9 7.9,2.8 l -7.9,-2.8" /></g><g
         transform="scale(2.28307)"
         id="g102"><path
           id="path104"
           style="fill:#cbdaf2;fill-opacity:1;fill-rule:evenodd;stroke:none"
           d="m 13907,15413 c 54.2,211.4 102.9,404.8 145.3,575 l -291.3,312 c -87.2,-82 -179.4,-172.2 -274.7,-271.4 L 13907,15413 Z m -949,-7.6 658.6,-1092.5 c 11.5,41.8 23,84.1 34.6,126.9 37.8,140.4 74.3,277.5 109.4,410.4 l -499.4,932.2 c -100.7,-115.8 -202.5,-241.3 -303.2,-377 z m -440.9,-687.6 782.6,-1485.3 c 43.9,140.2 90.9,293.9 139.9,459.4 l -734.4,1344.5 c -36.7,-58.3 -73,-118 -108.6,-179.4 -27.2,-46.7 -53.6,-93.2 -79.5,-139.2 z m -423.2,-834.2 803.6,-1647 c 48.7,15.5 70.9,30.9 70.9,30.9 0,0 2.6,-4.3 7.7,-11.7 l 4.9,26.9 c 0,0 47.1,126.4 124.8,355 l -810.4,1664.6 c -74.7,-147.4 -141.8,-287.8 -201.5,-418.7 z m -386.4,-976.3 c 4.3,1.6 6.6,2.5 6.6,2.5 0,0 45.5,-515.9 551.3,-647.4 65.5,-17 125.8,-29.5 181.2,-38.4 l -565.9,1159.3 c -115.2,-291.3 -169.2,-468.5 -169.2,-468.5 l -4,-7.5 v 0" /></g><g
         transform="scale(2.33824)"
         id="g106"><path
           id="path108"
           style="fill:#ffffff;fill-opacity:1;fill-rule:evenodd;stroke:none"
           d="m 13380.4,16235.8 c -3.9,-3.4 -494.2,-130.1 -926.5,-362 -1041.5,-558.6 -1793.8,-1612.1 -2255.6,-2701.4 l -0.3,-0.7 -0.3,-0.7 -0.3,-0.7 -0.3,-0.8 -0.3,-0.6 -0.3,-0.7 -0.3,-0.7 -0.3,-0.6 -0.7,-1.9 -0.3,-0.6 -0.2,-0.6 -0.3,-0.6 -0.2,-0.6 -0.3,-0.5 -0.2,-0.6 -0.2,-0.5 -0.2,-0.6 -0.3,-0.5 v 0 l -0.2,-0.5 -0.2,-0.5 -0.2,-0.5 -0.2,-0.4 -0.2,-0.5 -0.2,-0.4 -0.2,-0.5 -0.1,-0.4 -0.2,-0.5 -0.2,-0.3 -0.2,-0.4 v -0.1 l -0.1,-0.3 -0.2,-0.4 -0.1,-0.4 -0.2,-0.3 -0.1,-0.4 -0.2,-0.3 -0.1,-0.3 -0.1,-0.3 -0.1,-0.3 -0.1,-0.3 -0.2,-0.3 v 0 -0.2 l -0.2,-0.2 -0.1,-0.3 v -0.2 l -0.1,-0.2 -0.1,-0.2 -0.1,-0.2 v -0.2 l -0.1,-0.2 -0.1,-0.1 -0.1,-0.1 v 0 -0.2 -0.1 l -0.1,-0.1 v -0.1 l -0.1,-0.1 v 0 -0.1 0 0 -0.1 l -1.1,-1.8 c 19.7,-101.7 123.5,-531.7 480.1,-605.6 373.5,-77.4 713.4,42.6 764,61.7 l 3.9,7.4 c 0,0 261.7,859.3 864.2,1896.4 534.3,919.7 1208.4,1478.2 1552.2,1780.5 -42.1,13 -431.6,-58.4 -471.2,-51.2 v 0" /></g><g
         transform="scale(2.35162)"
         id="g110"><path
           id="path112"
           style="fill:#ffffff;fill-opacity:1;fill-rule:evenodd;stroke:none"
           d="m 9361.63,14517.9 c -52.56,-101.5 -97.89,-196.3 -136.67,-284.9 l 536.05,-1258.5 c 214.24,29.7 364.39,118.8 364.39,118.8 0,0 1.2,-7.8 3.8,-21.5 l 1.1,1.8 c 0,0 3.4,8.4 10,23.9 z m 525.55,747 c -118.93,-119 -226.65,-249.3 -321.14,-390.9 l 813.46,-1273.1 c 56.7,109.3 122.2,230 195.9,356.4 l -688.22,1307.6 z m 613.02,468.6 c -98.4,-57.6 -193.4,-119.8 -284.3,-186.6 l 642.7,-1142.8 c 78.6,113.8 162.6,227 251.4,335.9 l -609.8,993.5 z m 609.5,284.1 c -111.1,-40.5 -220,-85.6 -325.9,-135.3 l 537.1,-903.8 c 83,86.1 170.5,168.3 262.1,246.8 l -473.3,792.3 z m 764.2,203.9 c -105,-18.7 -209.4,-40.9 -312.8,-66.5 l 303.5,-709.3 c 96,68.7 195.4,133.8 298.1,195.3 z m 805.8,78.5 c -93.4,-1.8 -187.2,-6.1 -281.3,-12.9 l 140.3,-443.3 c 55.8,27 112.2,53.1 169.4,78.2 l -28.4,378 v 0" /></g><g
         transform="scale(2.34426)"
         id="g114"><path
           id="path116"
           style="fill:#6b543d;fill-opacity:1;fill-rule:evenodd;stroke:none"
           d="m 13693.7,16275.7 c -48.8,8.9 -98.1,16.9 -148,24.3 -431.6,-115.8 -840.6,-276.2 -1212.8,-480.5 -446.4,-245 -840.2,-553.2 -1156.9,-923.5 -624,-729.6 -1028.4,-1694.9 -1055.3,-1760.1 l -17,-28.8 c 34.4,16 53.5,27.3 53.5,27.3 0,0 5,-34.4 19,-87.3 l 25.9,44 c 1.6,2.7 3,5.6 4,8.5 22.1,53.7 422,1012.9 1040.5,1736 309.1,361.5 694.1,662.7 1131,902.4 421.8,231.5 891.7,405.7 1388.5,521.5 -24.6,6.4 -48.7,11.9 -72.4,16.2 v 0" /></g><g
         transform="scale(2.33856)"
         id="g118"><path
           id="path120"
           style="fill:#6b543d;fill-opacity:1;fill-rule:nonzero;stroke:none"
           d="m 11365.7,12579.5 24.8,47 c 20.6,66.1 285.7,900.8 867,1901.4 504.4,868.3 1131.6,1416.2 1493,1731.9 15.9,13.9 31.2,27.3 46,40.2 34,-8.8 68.8,-19.5 104.3,-32.1 -27.4,-24.2 -57.2,-50.2 -89,-78.1 -357.2,-311.9 -976.9,-853.3 -1473.8,-1708.6 -585.3,-1007.4 -846.3,-1842.5 -859.3,-1884.6 -0.9,-3.4 -2.2,-6.7 -3.8,-9.9 l -27.1,-50.9 c -9.3,41.7 -11.6,67.7 -11.6,67.7 0,0 -25.5,-10.4 -70.5,-24" /></g><g
         transform="scale(2.33694)"
         id="g122"><path
           id="path124"
           style="fill:#6b543d;fill-opacity:1;fill-rule:nonzero;stroke:none"
           d="m 12628,11964.4 8,43.5 c 0.5,2.6 1.2,5.2 2.1,7.6 l -0.1,0.1 c 0.9,2.4 313.1,840.6 653.4,2103.4 285.8,1060.1 494.6,1927 555,2181 29,-8.6 58.7,-18.6 88.7,-29.9 -63,-264.9 -270.7,-1125.6 -553.6,-2175.2 -329.9,-1224.1 -633.7,-2051.4 -654.8,-2108.3 l -11.8,-64.8 c -30.2,38.1 -45.4,62.9 -45.4,62.9 0,0 -13.2,-9.1 -41.5,-20.3 v 0" /></g><g
         transform="scale(2.3971)"
         id="g126"><path
           id="path128"
           style="fill:#6b543d;fill-opacity:1;fill-rule:nonzero;stroke:none"
           d="m 10895.8,15761 c 805.1,290.8 1727.6,341.7 2504,200.5 320.9,-58.3 725.9,-312.2 1101.7,-626.5 446.7,-373.7 855,-834.9 1030.7,-1153.2 261.9,-474.7 442.7,-977 560.9,-1433.8 162.5,-627.4 206.9,-1170.7 181.5,-1439.3 -22.2,-233.8 -47,-453.1 -133.8,-609.7 -91.6,-165.2 -246.2,-257.7 -524.2,-221 -412,54.4 -609.7,307.3 -679.6,422.3 -76.8,-62.8 -252.9,-153.4 -582.3,-74.6 -370.6,88.6 -558.3,363.3 -619.6,472 -93.5,-49.5 -332.9,-147.8 -695.6,-102 -394.6,49.9 -631.4,331.4 -703.2,430 -81.2,-33.7 -289.9,-88.2 -665.7,9.5 -410,106.6 -521.5,461.1 -549.9,599.7 -116.1,-37.2 -408.1,-111.9 -724.4,-46.3 -340.3,70.6 -460.81,441.1 -495.73,588.7 -102.37,-47.5 -334.61,-134 -600.43,-92.9 -185.35,28.7 -401.61,116.5 -466.82,387.7 -61.69,256.5 19.32,680.9 414.84,1384.6 354.3,630.5 958.24,1055.3 1647.64,1304.3 z m 2488,111.3 c -762.1,138.6 -1667.6,88.6 -2457.4,-196.7 -670.1,-242 -1256.32,-653.6 -1598.94,-1263.3 -382.5,-680.6 -462.89,-1082.4 -405.95,-1319.2 53.4,-222.1 235.83,-294.8 392.48,-319.1 325.93,-50.5 595.59,109.5 596.39,110 21.56,12.6 49.39,5.4 62.03,-16.2 3,-5.2 4.92,-10.7 5.76,-16.2 h 0.12 c 0.21,-1.4 72.61,-498.7 436.11,-574.1 381.7,-79.1 724.6,59.9 725.6,60.3 23.3,9.3 49.7,-2 59,-25.2 1.8,-4.6 2.9,-9.3 3.2,-14.1 3,-29.1 55,-462.1 491.1,-575.5 461.8,-120.1 632.7,-1.6 633.2,-1.2 20.9,13.8 49.1,8.1 62.9,-12.8 l 0.7,-1.1 v 0 c 0.7,-1.1 224.9,-367.1 660.8,-422.2 440,-55.6 675.8,112.3 676.5,112.8 20.6,14.3 48.9,9.2 63.3,-11.4 2.2,-3.2 4,-6.6 5.3,-10.1 15.3,-33.1 178.9,-367.3 579.6,-463.1 412.5,-98.6 534.5,87 534.9,87.5 14.1,20.7 42.4,26 63.1,11.9 7.3,-5 12.7,-11.7 16,-19.2 v 0 c 0.5,-1 153.8,-362.1 638.7,-426.2 232.6,-30.7 359.8,42.9 433.2,175.2 78.1,140.8 101.5,350.3 122.7,574.1 24.7,260.8 -19.3,791.4 -178.9,1408 -116.5,450.1 -294.7,945 -552.8,1412.9 -170.7,309.4 -570.5,760.2 -1009.4,1127.2 -365.2,305.6 -755.6,551.8 -1059.3,607 v 0" /></g><g
         transform="scale(2.38984)"
         id="g130"><path
           id="path132"
           style="fill:#f9c9d3;fill-opacity:1;fill-rule:evenodd;stroke:none"
           d="m 13662.1,16300 c 113.4,0 205.4,-97.4 205.4,-217.4 0,-120.1 -92,-217.5 -205.4,-217.5 -113.4,0 -205.3,97.4 -205.3,217.5 0,120 91.9,217.4 205.3,217.4" /></g><g
         transform="scale(2.38984)"
         id="g134"><path
           id="path136"
           style="fill:none;stroke:#6b543d;stroke-width:23.72249985;stroke-linecap:round;stroke-linejoin:round;stroke-miterlimit:10;stroke-dasharray:none;stroke-opacity:1"
           d="m 13662.1,16300 c 113.4,0 205.4,-97.4 205.4,-217.4 0,-120.1 -92,-217.5 -205.4,-217.5 -113.4,0 -205.3,97.4 -205.3,217.5 0,120 91.9,217.4 205.3,217.4 z" /></g><g
         transform="scale(2.38371)"
         id="g138"><path
           id="path140"
           style="fill:#ffffff;fill-opacity:1;fill-rule:nonzero;stroke:none"
           d="m 15095.8,11014.3 c 27.5,-46.7 81.8,-124.3 172,-198.6 100.6,-83 245.8,-161.6 448.3,-188.4 233.9,-30.9 361.9,43.2 435.6,176.1 78.6,141.7 102.1,352.3 123.5,577.4 24.8,262.2 -19.5,795.8 -180,1415.9 -117.1,452.6 -296.3,950.3 -555.9,1420.8 -143.1,259.4 -446.8,618 -799.8,944.3 -217.7,201 -453.5,389.3 -681.6,533.9 93.4,-96.7 192.5,-206.8 288.9,-327 189.9,-236.8 369.3,-513 473.7,-803.8 145.3,-404.9 254.4,-815.5 326.4,-1202.3 75.5,-405.4 110.1,-785.2 102.6,-1105.3 -13.6,-577.4 -135.1,-1157 -153.7,-1243" /></g><g
         transform="scale(2.33431)"
         id="g142"><path
           id="path144"
           style="fill:#6b543d;fill-opacity:1;fill-rule:nonzero;stroke:none"
           d="m 14069.1,11635.7 7.1,22.7 c 0.1,0.6 0.4,1.2 0.6,1.8 14.1,48.9 216.8,761.6 259.5,1483.4 20.3,341.8 15.8,751.4 -2.4,1143.9 -21.8,467.8 -63.1,910.8 -105.9,1186.1 -40.6,261.4 -182.6,580.8 -309.1,826.4 42.4,-14.7 85.8,-32.2 130,-51.9 116.2,-236.7 234,-520.7 271.2,-760.2 43.3,-278.7 85,-725.6 106.9,-1196.4 18.4,-395.7 22.9,-808.6 2.4,-1153.4 -43.3,-731.4 -248.9,-1454.2 -263.2,-1503.8 -0.2,-1.2 -0.6,-2.5 -1,-3.7 l -8.2,-26.6 c -23,38.4 -33.7,62.7 -33.7,62.7 0,0 -18.4,-13 -54.2,-31 v 0" /></g><g
         transform="scale(2.33315)"
         id="g146"><path
           id="path148"
           style="fill:#6b543d;fill-opacity:1;fill-rule:nonzero;stroke:none"
           d="m 15325.7,11242.1 3.4,18.2 c 0.2,1.1 0.5,2.2 0.8,3.3 8,36.4 142.5,650.4 156.8,1261.1 7.5,320.9 -27.3,702.4 -103.3,1110.6 -72.7,390.7 -182.8,805.2 -329.5,1213.8 -232.5,647.9 -847.3,1227.9 -1105.5,1450.9 89.9,-32.9 184.1,-77.1 280.7,-130.6 302.7,-292.6 725.7,-768.3 912.5,-1288.9 148.5,-413.7 260,-833.2 333.6,-1228.3 77,-414.2 112.4,-802.2 104.7,-1129.3 -14.6,-620.7 -151.2,-1243.9 -159.1,-1279.4 v 0 l -10.6,-57.1 c -36.7,53.2 -52.5,90.2 -52.5,90.2 0,0 -9.7,-14.7 -32,-34.5 v 0" /></g></g></g></svg>