<?xml version="1.0" encoding="UTF-8" standalone="no"?>
<svg
   xmlns:dc="http://purl.org/dc/elements/1.1/"
   xmlns:cc="http://creativecommons.org/ns#"
   xmlns:rdf="http://www.w3.org/1999/02/22-rdf-syntax-ns#"
   xmlns:svg="http://www.w3.org/2000/svg"
   xmlns="http://www.w3.org/2000/svg"
   viewBox="0 0 5000 3158.6667"
   height="3158.6667"
   width="5000"
   xml:space="preserve"
   id="svg2"
   version="1.1"><metadata
     id="metadata8"><rdf:RDF><cc:Work
         rdf:about=""><dc:format>image/svg+xml</dc:format><dc:type
           rdf:resource="http://purl.org/dc/dcmitype/StillImage" /></cc:Work></rdf:RDF></metadata><defs
     id="defs6" /><g
     transform="matrix(1.3333333,0,0,-1.3333333,0,3158.6667)"
     id="g10"><g
       transform="scale(0.1)"
       id="g12"><g
         transform="scale(2.29989)"
         id="g14"><path
           id="path16"
           style="fill:#5599ff;fill-opacity:1;fill-rule:nonzero;stroke:none"
           d="M 5.09534,10295.4 H 16300 V 6.91268 H 5.09534" /></g><g
         transform="scale(2.29989)"
         id="g18"><path
           id="path20"
           style="fill:none;stroke:#000000;stroke-width:10.17790031;stroke-linecap:square;stroke-linejoin:miter;stroke-miterlimit:4;stroke-dasharray:none;stroke-opacity:1"
           d="M 5.09534,10295.4 H 16300 V 6.91268 H 5.09534 Z" /></g><g
         transform="scale(2.09749)"
         id="g22"><path
           id="path24"
           style="fill:#ffffff;fill-opacity:1;fill-rule:nonzero;stroke:none"
           d="m 14553.6,3665.48 c -334.9,-0.15 -642.1,-150.2 -797.6,-389.62 -84.8,32.05 -177.3,48.68 -270.9,48.76 -169.9,0 -332.7,-54.46 -452.8,-151.41 -120.1,-96.96 -187.6,-228.44 -187.5,-365.54 0,-137.09 67.4,-268.55 187.5,-365.51 120.1,-96.93 282.9,-151.39 452.8,-151.39 39.8,0.04 79.6,3.1 118.8,9.11 17.4,-61.03 46.8,-116.15 86.8,-162.82 186,-216.58 554.3,-205.38 822.5,25.01 9.7,8.36 19.2,16.97 28.5,25.79 21.2,-16.74 43.2,-32.44 66.1,-46.97 281.5,-177.96 626.1,-152.02 792.6,59.71 81.6,-29.27 170,-44.45 259.3,-44.51 353.6,0 640.3,231.38 640.3,516.82 0,137.09 -67.5,268.57 -187.5,365.5 -120.1,96.94 -283,151.39 -452.8,151.39 -83.9,-0.09 -166.9,-13.52 -244.4,-39.46 -115.7,305.98 -465.4,515.05 -861.7,515.14 z" /></g><g
         transform="scale(2.11228)"
         id="g26"><path
           id="path28"
           style="fill:#ffffff;fill-opacity:1;fill-rule:nonzero;stroke:none"
           d="m 14468.2,6660.65 c -13,-0.04 -26,-0.45 -39.1,-1.2 -271.4,-15.48 -493.4,-177.67 -521.6,-381.13 -47.7,9.29 -96.7,12.61 -145.6,9.91 -256,-14.7 -465.4,-190.1 -495.7,-415.27 -97.2,61.17 -215.6,90.84 -335.6,84.05 -290.1,-16.54 -513.5,-237.55 -498.9,-493.62 6.9,-122.98 69,-237.78 172.5,-319.13 103.5,-81.35 239.9,-122.59 379.3,-114.64 75.8,4.32 149.9,23.09 217.2,55.03 80.3,-98.71 227.7,-154.67 383.9,-145.78 136.6,7.79 262.1,64.23 337.4,151.72 84.6,-80.59 217.5,-123.87 356.3,-115.97 87.8,5.01 172.4,30.28 242,72.33 109.4,-90.95 269.4,-138.4 435.3,-129.07 169.4,9.68 325.8,77.53 423.8,183.77 105.9,-100.94 257.9,-154.23 414.6,-145.34 139.4,7.96 270.2,64.42 363.8,156.99 93.6,92.58 142.2,213.69 135.2,336.67 -14.6,256.07 -261.6,450.24 -551.8,433.73 -43.4,-2.57 -86.3,-9.87 -127.8,-21.75 7.5,34.68 10.4,70.11 8.5,105.43 -6.2,108.8 -57.3,210.54 -142.1,282.89 -84.8,72.35 -196.2,109.35 -309.9,102.88 -60.3,-3.53 -119.1,-19.16 -172.7,-45.89 -29.5,203.41 -255.3,354.26 -529,353.37 z" /></g><g
         transform="scale(1.69029)"
         id="g30"><path
           id="path32"
           style="fill:#ffffff;fill-opacity:1;fill-rule:nonzero;stroke:none"
           d="m 13455.2,11498.2 c -484.7,-0.3 -894,-313.2 -956.8,-731.5 -60.1,5.5 -121.4,4.9 -182.3,-1.9 -376.3,-42.4 -655.7,-305.3 -624,-587.2 31.8,-281.97 362.6,-476.22 739,-433.85 24.2,2.75 48.3,6.44 72.2,11.09 40.2,-275.94 367.2,-462.96 737,-421.48 129.6,14.6 253.4,56.62 356.9,121.07 142,-97.31 337.1,-140.46 534.8,-118.23 107.3,12.09 211,43.01 302.5,90.2 140.8,-90.17 329,-129.32 519.2,-107.92 247.5,27.91 464.2,154.16 566.1,329.8 10.2,-1.55 20.5,-2.89 30.8,-4.07 376.7,-39.24 705.9,157.73 735.3,439.89 14.1,135.5 -44.2,273 -162.2,382.2 -117.9,109.1 -285.8,181 -466.7,199.9 -189.3,19.6 -376.2,-20.7 -515.9,-111.1 -52.2,144.4 -227.2,244.6 -426.9,244.6 -109.3,0 -214.7,-30.4 -295.8,-85.2 -34.1,441.1 -455.2,783.7 -963.2,783.7 z" /></g><g
         transform="scale(1.48889)"
         id="g34"><path
           id="path36"
           style="fill:#ffffff;fill-opacity:1;fill-rule:nonzero;stroke:none"
           d="m 14057,5335.52 c -277,-0.21 -519,-179.19 -588.9,-435.65 -142.5,191.4 -412.1,310.06 -704.6,310.14 -445.7,0 -807,-270.68 -807,-604.56 0.2,-22.38 2,-44.76 5.5,-66.97 -21.2,0.94 -42.4,1.46 -63.6,1.51 -295.4,0 -578.7,-87.91 -787.6,-244.39 -208.8,-156.46 -326.2,-368.69 -326.2,-589.99 0,-221.28 117.4,-433.5 326.2,-589.97 208.9,-156.47 492.2,-244.39 787.6,-244.39 229.1,0.18 452.7,53.31 640,152.14 139.8,-174.75 367,-278.78 609.4,-278.91 280.8,0.16 537.7,139.31 665,360.14 141.3,-160.56 358.7,-254.51 589.1,-254.62 271.2,0.15 520.9,130.02 652.5,339.31 136.9,-108.85 314.7,-169.12 499,-169.25 198,0 387.9,69.42 527.9,193 140,123.56 218.7,291.16 218.7,465.92 0,325.25 -268.9,601.8 -633.2,651.23 41.7,141.31 29.5,279.12 -34.5,391.68 -76.4,134.38 -221,222.74 -401.8,245.62 -180.9,22.88 -383.3,-21.59 -562.7,-123.6 -2.8,-1.7 -5.6,-3.38 -8.3,-5.09 -44.6,285.48 -300.8,496.76 -602.5,496.76 z" /></g><g
         transform="scale(1.31574)"
         id="g38"><path
           id="path40"
           style="fill:#ffffff;fill-opacity:1;fill-rule:nonzero;stroke:none"
           d="m 14412.7,10780.2 c -561.1,-0.3 -1053.8,-372.6 -1207.4,-912.2 -116.6,79.68 -254.6,122.32 -395.8,122.35 -186.1,-0.03 -364.5,-73.92 -496.1,-205.5 -131.6,-131.58 -205.5,-310.04 -205.5,-496.1 0.1,-50.79 5.7,-101.45 16.7,-151.03 -346,-48.92 -603.3,-345 -603.4,-694.44 0.1,-387.44 314.1,-701.54 701.6,-701.54 224,0.21 434.4,107.32 566.3,288.34 132.8,-170.68 337,-270.53 553.3,-270.62 246.2,0.15 474.3,129.36 601,340.41 133.1,-153.01 325.9,-240.98 528.7,-241.16 200.2,0.15 390.7,85.74 523.7,235.25 126.5,-212.48 355.4,-342.72 602.7,-342.81 387.4,0 701.5,314.11 701.5,701.54 -0.2,381.65 -305.4,693.14 -687,701.06 37,119.98 55.8,244.81 55.8,370.34 0,693.71 -562.4,1256.11 -1256.1,1256.11 z" /></g><path
         id="path42"
         style="fill:#ffffff;fill-opacity:1;fill-rule:nonzero;stroke:none"
         d="m 9954.18,8280.31 c -711.37,-0.51 -1333.05,-459.72 -1513.63,-1118.16 -179.3,79.96 -384.07,122.19 -592.74,122.19 -468.55,-0.24 -890.78,-211.88 -1069.76,-536.25 -104.85,78.43 -227.46,139.68 -358.52,179.06 -476.48,142.65 -949.37,-31.06 -1056.25,-388.01 -19.65,-66.17 -25.62,-136.02 -17.73,-207.03 -105.28,28.4 -214.73,42.85 -324.81,42.89 -613.86,0 -1111.56,-439.22 -1111.56,-980.98 -0.04,-260.19 117.07,-509.72 325.55,-693.71 208.47,-183.98 491.21,-287.34 786.01,-287.34 302.89,0.15 592.58,109.41 802.07,302.46 213.56,-246.6 579.26,-395.51 971.64,-395.55 355.67,0.2 691.49,122.74 910.9,332.42 194.57,-315.15 568.63,-511.4 975.31,-511.64 331.72,0.16 646.02,131.1 857.04,357 206.83,-127.07 466,-196.57 733.5,-196.72 413.1,0.19 794.9,165.15 1001.9,433.01 165.1,-92.35 355.2,-141.33 549.1,-141.53 580.1,0 1050.4,427.31 1050.4,954.46 0,527.1 -470.3,954.41 -1050.4,954.45 -116.1,-0.24 -231.4,-17.93 -341.1,-52.42 26,109.18 39.1,220.82 39.2,332.81 0,397.46 -165,778.63 -458.7,1059.65 -293.7,281.05 -692,438.94 -1107.38,438.94 z" /><g
         transform="scale(1.19521)"
         id="g44"><path
           id="path46"
           style="fill:#ffffff;fill-opacity:1;fill-rule:nonzero;stroke:none"
           d="m 10017.8,16300 c -584.71,-0.2 -1072.34,-447 -1123.48,-1029.5 -93.19,33.4 -191.39,50.4 -290.36,50.4 -476.38,0 -862.59,-386.2 -862.59,-862.5 0,-476.4 386.21,-862.6 862.59,-862.6 223.58,0.1 438.37,87.1 599.07,242.6 144.1,-141 337.62,-220 539.2,-220.2 199.59,0.2 391.37,77.6 535.17,216 142.6,-131.5 329.4,-204.5 523.3,-204.5 219.6,0.2 428.7,93.8 575.1,257.4 146.6,-177.2 364.5,-279.8 594.4,-280 204.9,0.1 401.3,81.5 546.1,226.3 144.9,144.8 226.2,341.3 226.2,546.1 -0.3,412.5 -324.6,752 -736.7,771 0.1,2.9 0.2,5.8 0.3,8.7 0,177.8 -70.7,348.4 -196.4,474.1 -125.8,125.8 -296.3,196.5 -474.2,196.5 -119.9,-0.1 -237.7,-32.4 -341,-93.5 -201.6,348.8 -573.9,563.7 -976.8,563.7 z" /></g><path
         id="path48"
         style="fill:#ffffff;fill-opacity:1;fill-rule:nonzero;stroke:none"
         d="m 8029.92,14067.2 c -304.76,10.5 -609.37,-139.3 -847.54,-416.7 -179.88,118.5 -399.29,195.7 -629.88,221.7 -305.51,34.4 -608.75,-23.5 -842.97,-161.1 -234.26,-137.5 -380.35,-343.3 -406.09,-572.2 -5.35,-50.7 -4.77,-102 1.83,-153.3 -579.1,7.8 -1048.32,-309.8 -1097.22,-742.5 -25.78,-228.9 70.86,-462 268.67,-648.2 197.77,-186.2 480.55,-310.1 786.05,-344.5 77.62,-8.7 155.75,-11.5 233.09,-8.4 187.19,-553.1 835.78,-939.2 1578.24,-939.5 624.45,0.3 1193.95,274.9 1466.8,707.3 128.59,-71.2 284.3,-109.6 444.22,-109.6 228.43,0.1 444.22,78.4 585.9,212.7 234.64,-145.3 543.18,-208.9 855.28,-176.4 305.7,31.8 589.5,153.4 788.9,337.9 199.3,184.5 297.9,416.8 274,645.9 -39.7,379.4 -405.3,679.8 -901.1,740.5 -105.4,381.1 -525.4,681.1 -1033.61,738.5 -210.54,23.5 -421.87,3.3 -611.01,-58.3 -167.07,406.8 -474.42,672.8 -831.18,719.4 -27.22,3.5 -54.64,5.8 -82.14,6.8 z" /><path
         id="path50"
         style="fill:#e8e8e8;fill-opacity:1;fill-rule:nonzero;stroke:none"
         d="m 12751.3,5987.34 c -51.6,-16.95 -102.6,-33.36 -154.4,-50.82 -50,-16.87 -99.9,-33.79 -149,-50.82 -49.1,-17.03 -97.5,-34.22 -144.6,-51.13 -47.1,-16.95 -92.8,-33.67 -136.8,-50.19 -44,-16.57 -86.3,-32.74 -126.1,-48.64 -39.9,-15.9 -77.4,-31.48 -112,-46.44 -34.6,-14.96 -66.5,-29.22 -94.8,-42.97 -14.2,-6.88 -28.5,-13.6 -43.3,-19.77 -14.7,-6.21 -29.8,-12.07 -45.1,-17.58 -15.4,-5.5 -30.9,-10.54 -46.8,-15.39 -15.9,-4.76 -31.9,-9.33 -48.3,-13.47 -16.4,-4.14 -33.3,-7.82 -50.2,-11.29 -17,-3.48 -34.1,-6.6 -51.5,-9.42 -17.4,-2.77 -35.2,-5.07 -53,-7.22 -17.9,-2.11 -36,-4.18 -54.3,-5.63 -18.3,-1.44 -36.8,-2.3 -55.5,-3.16 -18.8,-0.78 -37.7,-1.41 -56.8,-1.56 -19.1,-0.16 -38.6,0.11 -58,0.58 -19.5,0.51 -39.2,1.33 -59,2.5 -19.9,1.13 -39.8,2.62 -59.9,4.38 -20.2,1.75 -40.5,3.82 -60.9,6.25 -20.4,2.42 -41.1,5.11 -61.8,8.16 -20.7,3.05 -41.4,6.37 -62.4,10.04 -20.9,3.71 -42.2,7.62 -63.4,11.95 -21.2,4.3 -42.6,9.18 -64,14.1 -21.3,4.93 -42.7,10.12 -64.3,15.67 -21.5,5.55 -43.2,11.44 -64.9,17.58 -21.8,6.17 -43.4,12.69 -65.3,19.45 -21.8,6.8 -44,13.63 -65.9,21.02 -22,7.38 -43.8,15.23 -65.9,23.24 -22,7.97 -44.1,16.21 -66.2,24.76 -22.1,8.56 -44,17.5 -66.2,26.68 -22.1,9.14 -44.3,18.48 -66.5,28.25 -22.1,9.72 -44,19.76 -66.1,30.11 -22.2,10.32 -44.5,21.06 -66.6,31.99 -22.1,10.9 -44.2,22.07 -66.2,33.56 -22,11.52 -43.9,23.4 -65.9,35.47 -21.9,12.07 -43.7,24.37 -65.53,36.99 -21.8,12.66 -43.6,25.39 -65.24,38.59 -10.9,6.61 -21.44,13.09 -31.99,18.83 -10.59,5.78 -21.02,11.06 -31.41,16.02 -10.31,4.92 -20.62,9.33 -30.7,13.47 -10.15,4.14 -20.23,7.93 -30.12,11.29 -9.92,3.4 -19.49,6.49 -29.21,9.11 -9.69,2.61 -19.38,4.68 -28.83,6.6 -9.46,1.95 -18.95,3.43 -28.25,4.72 -9.25,1.21 -18.51,2.27 -27.61,2.85 -9.1,0.55 -18.01,0.75 -26.96,0.63 -8.9,-0.12 -17.89,-0.55 -26.64,-1.29 -8.82,-0.74 -17.42,-1.84 -26.05,-3.16 -8.63,-1.33 -17.23,-2.78 -25.74,-4.73 -8.52,-1.88 -17.07,-4.14 -25.39,-6.6 -8.36,-2.42 -16.49,-4.88 -24.77,-7.81 -8.24,-3.01 -16.64,-6.29 -24.76,-9.73 -8.13,-3.48 -16.1,-7.07 -24.15,-11.02 -16.09,-7.81 -31.95,-16.75 -47.73,-26.32 -15.78,-9.61 -31.52,-19.93 -47.03,-31.06 -15.55,-11.17 -31.09,-22.97 -46.45,-35.47 -15.39,-12.5 -30.5,-25.58 -45.78,-39.22 -15.31,-13.63 -30.78,-28.04 -46.13,-42.65 -15.31,-14.61 -30.43,-29.5 -45.78,-44.89 -30.78,-30.7 -62.15,-62.77 -93.83,-95.35 -31.6,-32.58 -63.75,-65.62 -96.91,-98.51 -16.61,-16.45 -33.4,-33.05 -50.51,-49.26 -17.15,-16.21 -34.45,-32.23 -52.11,-48.01 -17.66,-15.78 -35.94,-31.25 -54.26,-46.44 -18.36,-15.16 -37.03,-29.85 -56.17,-44.26 -19.14,-14.38 -38.44,-28.36 -58.36,-41.68 -19.96,-13.36 -40.31,-26.13 -61.17,-38.28 -10.43,-6.06 -21.02,-11.84 -31.68,-17.54 -10.7,-5.47 -21.68,-11.6 -32.66,-16.92 -10.94,-5.46 -22.03,-10.39 -33.28,-15.39 -11.21,-4.84 -22.38,-9.8 -33.87,-14.41 -11.48,-4.88 -23.08,-8.75 -34.84,-12.89 -11.8,-4.26 -23.67,-8.24 -35.78,-11.91 -12.07,-3.64 -24.34,-6.84 -36.72,-10 -12.38,-3.05 -24.96,-6.14 -37.66,-8.79 -12.65,-2.47 -25.54,-4.89 -38.59,-7.23 -13.01,-2.42 -26.17,-4.26 -39.53,-5.47 -13.36,-1.84 -26.76,-3.05 -40.47,-3.63 -13.75,-1.25 -27.66,-1.84 -41.72,-2.46 -14.1,-0.35 -28.24,-0.24 -42.69,0 -14.46,0.27 -29.07,0.62 -43.87,1.83 -14.85,1.21 -30,2.42 -45.2,3.64 -15.15,1.83 -30.47,3.67 -46.13,6.09 -62.46,9.22 -121.87,18.4 -178.83,27.3 -56.95,8.95 -111.33,17.62 -163.12,26.06 -103.64,16.8 -197.39,32.34 -283.01,46.13 -42.77,6.88 -83.75,13.36 -122.66,19.14 -38.9,6.06 -75.66,11.1 -111.05,15.67 -35.39,4.84 -69.38,8.43 -101.64,11.56 -32.31,3.05 -62.97,5.47 -92.58,6.95 -14.8,0.59 -29.37,1.21 -43.55,1.8 -14.22,0.35 -28.09,0.47 -41.72,0.31 -13.68,-0.12 -27.03,-0.31 -40.16,-1.21 -13.16,-0.59 -26.13,-1.84 -38.91,-3.05 -12.69,-1.21 -25.31,-2.42 -37.61,-4.22 -12.35,-1.83 -24.42,-3.67 -36.37,-5.46 -11.95,-2.43 -23.83,-4.89 -35.47,-7.54 -11.64,-3.05 -23.08,-6.06 -34.49,-9.42 -11.41,-3.63 -22.62,-6.99 -33.87,-10.97 -11.21,-4.26 -22.46,-8.21 -33.55,-12.89 -11.06,-4.85 -22,-9.69 -32.97,-15.04 -11.02,-5.47 -21.99,-10.94 -32.97,-16.96 -10.94,-6.05 -21.99,-12.38 -32.97,-19.1 -10.94,-6.76 -21.6,-13.87 -32.62,-21.33 -10.97,-7.46 -22.14,-15.31 -33.28,-23.55 -11.09,-8.2 -22.26,-16.68 -33.55,-25.74 -11.21,-9.03 -22.66,-17.78 -34.49,-26.06 -11.84,-8.24 -24.26,-16.05 -36.72,-23.55 -12.46,-7.46 -25,-14.61 -37.93,-21.29 -13.01,-6.68 -26.37,-12.89 -39.85,-18.83 -13.47,-6.05 -27.15,-11.41 -41.09,-16.64 -13.99,-5.47 -28.24,-10.23 -42.7,-14.73 -14.37,-4.25 -28.75,-8.75 -43.59,-12.58 -14.8,-3.63 -29.96,-6.91 -45.16,-10.03 -15.15,-3.01 -30.54,-6.06 -46.13,-8.44 -15.55,-2.42 -31.13,-4.22 -47.07,-6.25 -15.9,-1.8 -32.15,-3.01 -48.32,-4.26 -16.13,-1.21 -32.54,-1.8 -48.91,-2.42 -16.48,-0.43 -32.93,-0.59 -49.57,-0.59 -16.6,0.2 -33.32,0.59 -50.19,1.8 -16.88,0.62 -33.83,1.84 -50.82,3.67 -16.99,1.21 -34.3,3.01 -51.41,4.85 -17.19,1.83 -34.18,4.25 -51.48,6.91 -17.27,2.42 -34.73,5.47 -52.11,8.79 -17.31,3.05 -34.73,6.64 -52.07,10.35 -17.38,3.63 -34.73,7.66 -52.11,11.88 -17.35,4.25 -34.73,8.71 -52.07,13.47 -17.38,4.88 -34.81,9.81 -52.11,15.08 -17.31,5.47 -34.53,10.78 -51.76,16.64 -17.26,6.05 -34.37,11.88 -51.48,18.2 -17.15,6.33 -34.18,12.97 -51.14,19.81 -16.95,6.8 -33.75,13.75 -50.5,20.97 -16.76,7.23 -33.64,14.57 -50.2,22.31 -16.6,7.69 -32.93,15.7 -49.26,23.83 -16.33,8.16 -32.54,16.52 -48.63,25.08 -16.09,8.59 -31.91,17.38 -47.7,26.36 -15.78,8.99 -31.32,18.21 -46.75,27.62 -15.43,9.41 -30.71,18.75 -45.78,28.55 -7.54,4.85 -15.43,9.58 -23.21,13.75 -7.81,4.26 -15.7,8.01 -23.83,11.61 -8.08,3.63 -16.09,6.79 -24.49,9.72 -8.36,3.05 -16.79,5.47 -25.43,7.82 -8.63,2.42 -17.46,4.25 -26.33,6.25 -8.86,1.83 -17.92,3.04 -26.95,4.25 -9.06,1.21 -18.05,1.84 -27.34,2.42 -9.3,0.63 -18.75,0.63 -28.24,1.22 -9.46,0.07 -19.18,0.15 -28.83,-0.32 -9.65,-0.43 -19.38,-1.21 -29.18,-2.42 -9.85,-1.21 -19.81,-1.8 -29.81,-3.63 -10.04,-1.21 -20,-3.05 -30.11,-4.85 -20.28,-3.67 -40.98,-8.32 -61.84,-13.78 -20.82,-5.47 -41.8,-11.8 -63.05,-18.83 -21.25,-7.03 -42.5,-14.77 -63.98,-23.21 -21.52,-8.47 -43.24,-17.53 -64.96,-27.3 -21.72,-9.77 -43.75,-20.16 -65.55,-31.09 -21.87,-10.86 -43.48,-22.35 -65.27,-34.18 -21.8,-11.84 -43.52,-24.34 -65.24,-37.03 -21.75,-12.7 -43.47,-25.55 -64.96,-38.91 -21.48,-13.36 -42.81,-27.19 -63.98,-41.09 -15.63,-10.2 -31.1,-20.67 -46.45,-31.1 147.31,-405.47 574.18,-680.74 1056.64,-681.4 302.93,0.11 592.66,109.33 802.19,302.42 213.52,-246.64 579.22,-395.55 971.64,-395.63 355.63,0.28 691.41,122.85 910.74,332.58 194.57,-315.23 568.68,-511.48 975.39,-511.72 331.76,0.16 646.1,131.1 857.11,357.03 206.88,-127.03 466.03,-196.52 733.53,-196.72 413,0.2 794.7,165.16 1001.7,432.97 165.2,-92.34 355.4,-141.33 549.3,-141.48 580.1,0 1050.4,427.26 1050.4,954.37 -0.9,153.56 -42.5,304.65 -121.4,440.47 z" /><g
         transform="scale(1.48889)"
         id="g52"><path
           id="path54"
           style="fill:#e8e8e8;fill-opacity:1;fill-rule:nonzero;stroke:none"
           d="m 16267.8,3866.72 c -37.8,0.39 -75.6,0.81 -114.4,0.81 -51,-0.05 -102.7,-0.39 -154.2,-1.62 -25.8,-0.43 -51.5,-1.24 -77.2,-2.05 -25.6,-0.81 -51.3,-1.63 -76.7,-2.84 -25.4,-1.23 -50.5,-2.46 -75.4,-3.67 -25,-1.23 -49.6,-2.86 -74,-4.67 -24.3,-1.62 -48.3,-3.64 -71.8,-5.9 -23.6,-2.05 -46.7,-4.41 -69.3,-6.92 -22.7,-2.44 -44.9,-5.28 -66.4,-8.25 -21.6,-2.85 -42.5,-6.08 -62.8,-9.5 -20.3,-3.27 -39.9,-7.05 -58.8,-10.96 -18.9,-4.09 -36.9,-8.24 -54.1,-12.64 -17.3,-4.42 -33.8,-8.98 -49.4,-13.91 -7.7,-2.44 -15.2,-4.99 -22.5,-7.59 -7.3,-2.43 -14.5,-5.45 -21.3,-8.23 -6.8,-2.86 -13.3,-5.53 -19.6,-8.45 -6.3,-2.86 -12.4,-5.77 -18.1,-8.84 -5.8,-3.26 -11.2,-6.27 -16.5,-9.5 -5.2,-3.25 -10.3,-6.32 -14.9,-9.71 -18.6,-13.4 -36.1,-26.39 -52.7,-38.33 -16.5,-11.99 -32.2,-23.08 -47.2,-33.53 -15,-10.41 -29.4,-20.09 -43.4,-28.86 -7,-4.35 -14,-8.47 -20.9,-12.43 -6.8,-4.07 -13.6,-7.71 -20.4,-11.18 -6.8,-3.25 -13.5,-6.69 -20.2,-9.71 -6.8,-2.83 -13.4,-5.69 -20.2,-8.23 -6.9,-2.45 -13.8,-4.94 -20.7,-6.93 -6.9,-2.04 -13.8,-3.67 -20.9,-5.25 -7.1,-1.62 -14.3,-2.86 -21.6,-3.67 -7.4,-0.81 -14.7,-1.63 -22.4,-2.04 -7.7,-0.4 -15.6,-0.4 -23.6,-0.4 -8,0.13 -16.2,0.4 -24.7,1.21 -8.5,0.81 -17.2,1.63 -26.1,2.86 -9,1.23 -18.3,2.85 -27.8,4.85 -9.6,2.05 -19.3,4.25 -29.6,6.72 -10.1,2.46 -20.7,5.27 -31.5,8.44 -10.9,3.26 -22.3,6.75 -34,10.52 -11.6,3.68 -23.7,7.96 -36.2,12.44 -12.5,4.49 -25.4,9.18 -38.8,14.33 -13.4,5.11 -27.4,10.6 -41.7,16.42 -28.8,11.7 -59.5,24.82 -92.5,39.38 -33.1,14.56 -68.4,30.51 -106.2,48.07 -37.9,17.55 -78.2,36.65 -121.4,57.32 -43.2,20.62 -89.2,42.92 -138.2,66.8 -12.3,5.96 -24.3,11.57 -36.3,17.05 -12,5.51 -23.9,10.76 -35.6,15.82 -11.7,5.07 -23.3,9.92 -34.8,14.54 -11.4,4.61 -22.5,9.1 -33.7,13.27 -11.1,4.17 -22.3,8.05 -33.2,11.81 -10.9,3.75 -21.6,7.4 -32.3,10.73 -10.6,3.36 -21.2,6.35 -31.6,9.29 -10.4,2.93 -20.6,5.69 -30.8,8.21 -10.1,2.52 -20.4,5.01 -30.3,7.16 -9.9,2.15 -19.6,4.15 -29.3,5.9 -9.7,1.76 -19.4,3.23 -28.9,4.65 -9.4,1.39 -18.7,2.57 -28,3.56 -9.2,1.03 -18.3,1.84 -27.4,2.55 -9,0.68 -18.1,1.34 -26.9,1.68 -8.9,0.32 -17.5,0.4 -26.2,0.4 -8.6,0 -17,-0.08 -25.4,-0.4 -8.5,-0.34 -16.9,-0.84 -25.1,-1.47 -8.3,-0.65 -16.4,-1.55 -24.5,-2.55 -8,-0.96 -15.9,-2.12 -23.8,-3.38 -7.9,-1.26 -15.7,-2.65 -23.4,-4.19 -7.7,-1.58 -15.3,-3.23 -22.8,-5.07 -7.5,-1.84 -14.9,-3.81 -22.3,-5.9 -7.4,-2.13 -14.7,-4.39 -21.9,-6.74 -7.2,-2.37 -14.4,-4.97 -21.5,-7.59 -7.1,-2.65 -14,-5.35 -20.9,-8.21 -6.9,-2.91 -13.6,-5.74 -20.4,-8.87 -13.5,-6.22 -26.8,-13.09 -39.8,-20.23 -13.1,-7.13 -25.9,-14.56 -38.4,-22.53 -12.5,-7.98 -24.8,-16.56 -36.9,-25.29 -12,-8.72 -23.7,-17.74 -35.4,-27.19 -11.6,-9.41 -23.2,-19.25 -34.5,-29.27 -649.6,-751.38 -734.8,-227.15 -1511.1,-48.25 -11.5,2.83 -23.1,5.48 -34.9,7.98 -11.9,2.43 -23.9,4.93 -36.1,7.18 -12.2,2.02 -24.7,4.35 -37.3,6.32 -12.6,2.02 -25.1,3.65 -37.3,4.86 -12.3,1.21 -24.4,2.02 -36.3,2.83 -11.9,0.42 -23.6,0.81 -35.2,0.81 -11.5,-0.05 -22.9,-0.34 -34.1,-1.2 -11.2,-0.82 -22.4,-2.05 -33.3,-3.28 -10.9,-1.21 -21.5,-2.83 -32,-4.86 -10.5,-2.01 -20.9,-4.06 -31.2,-6.5 -10.2,-2.44 -20.2,-5.2 -30.1,-8.24 -9.9,-2.86 -19.7,-6.54 -29.3,-10.13 -9.6,-3.65 -19,-7.29 -28.2,-11.35 -9.3,-4.1 -18.4,-8.48 -27.4,-13.07 -9,-4.57 -17.9,-9.29 -26.6,-14.3 -8.6,-5.01 -17.1,-10.31 -25.4,-15.82 -8.4,-5.46 -16.6,-11.18 -24.7,-17.08 -8.1,-5.93 -16,-12.05 -23.8,-18.36 -7.8,-6.33 -15.5,-12.68 -23,-19.37 -7.5,-6.69 -15.1,-13.61 -22.3,-20.62 -7.3,-7.06 -14.3,-14.32 -21.3,-21.7 -7,-7.37 -13.7,-14.85 -20.4,-22.56 -6.7,-7.69 -13.4,-15.61 -19.8,-23.59 -6.5,-8 -12.8,-16.21 -19,-24.42 -6.2,-8.29 -12.2,-16.77 -18.1,-25.29 -6,-8.53 -11.8,-17.16 -17.5,-25.95 -5.7,-8.76 -11.4,-17.56 -16.8,-26.53 -5.5,-8.97 -10.8,-18.02 -16.1,-27.2 -5.2,-9.19 -10.2,-18.47 -15.1,-27.81 -3.3,-5.88 -6,-11.94 -9.1,-17.89 173,-310.09 577.4,-512.19 1026,-512.68 229.1,0.18 452.6,53.31 639.9,152.14 139.8,-174.78 367,-278.81 609.4,-279 280.8,0.14 537.7,139.27 665,360.12 141.4,-160.54 358.8,-254.46 589.2,-254.54 271.1,0.13 520.8,130 652.4,339.26 136.9,-108.83 314.6,-169.09 498.9,-169.23 412.4,-0.07 746.8,294.95 746.8,658.92 -0.4,63.62 -11.3,126.88 -32.3,187.75 z" /></g><g
         transform="scale(2.09125)"
         id="g56"><path
           id="path58"
           style="fill:#e8e8e8;fill-opacity:1;fill-rule:nonzero;stroke:none"
           d="m 16299.9,2482.84 c -0.8,0.27 -1.4,0.57 -2.3,1.15 -21.9,10.02 -43.7,19.77 -65.4,29.23 -21.6,9.51 -43,18.65 -64.3,27.48 -21.3,8.86 -42.5,17.39 -63.3,25.52 -20.8,8.12 -41.4,15.87 -61.7,23.22 -20.2,7.32 -40.2,14.29 -59.8,20.73 -9.9,3.21 -19.5,6.4 -29.1,9.39 -9.6,2.99 -19.1,5.79 -28.6,8.52 -9.4,2.62 -18.7,5.31 -28,7.81 -9.2,2.61 -18.4,4.87 -27.4,7.08 -9,2.31 -18,4.26 -26.8,6.22 -8.8,1.94 -17.3,3.85 -25.9,5.49 -8.5,1.65 -17,3.08 -25.3,4.43 -8.3,1.32 -16.4,2.5 -24.5,3.55 -8,1.04 -15.8,1.94 -23.6,2.67 -7.7,0.73 -15.4,1.21 -22.8,1.59 -7.5,0.37 -14.8,0.67 -22,0.71 -7.1,0.03 -14.1,-0.06 -20.9,-0.36 -6.9,-0.32 -13.5,-0.93 -20,-1.61 -6.6,-0.65 -13,-1.42 -19.2,-2.46 -6.2,-1.05 -12,-2.3 -17.9,-3.72 -5.8,-1.42 -11.5,-2.97 -17,-4.78 -5.5,-1.83 -10.7,-3.98 -15.7,-6.2 -5.1,-2.34 -10.1,-4.62 -14.8,-7.27 -4.7,-2.61 -9.1,-5.41 -13.4,-8.5 -4.3,-3.08 -8.6,-6.42 -12.5,-9.93 -3.9,-3.51 -7.7,-6.78 -11.7,-9.92 -3.9,-3.14 -7.7,-6.08 -11.7,-8.86 -3.9,-2.91 -7.9,-5.53 -11.8,-7.99 -4,-2.32 -7.9,-4.78 -11.9,-6.91 -4,-2.02 -8.1,-4.04 -12.1,-5.83 -4,-1.74 -7.8,-3.45 -11.8,-4.97 -4,-1.44 -8,-2.89 -12.1,-4.05 -4,-1.16 -8.2,-2.34 -12.2,-3.38 -4.1,-0.86 -8.2,-1.74 -12.2,-2.32 -4.1,-0.58 -8.2,-1.16 -12.2,-1.45 -4.1,-0.58 -8.2,-0.58 -12.3,-0.87 -4.1,-0.18 -8.2,-0.24 -12.4,-0.18 -4.1,0.06 -8.1,0.26 -12.2,0.58 -4.1,0.28 -8.4,0.88 -12.6,1.17 -4.1,0.58 -8.2,1.16 -12.4,1.74 -4.1,0.58 -8.3,1.44 -12.5,2.32 -8.4,1.73 -16.8,3.94 -25.2,6.39 -8.4,2.31 -16.9,5.11 -25.3,8.16 -8.5,3.04 -17,6.39 -25.5,9.92 -8.6,3.55 -17,7.23 -25.6,11.19 -8.5,3.94 -17.2,8.12 -25.8,12.38 -8.7,4.28 -17.3,8.63 -25.9,13.13 -17.3,9.01 -34.8,18.31 -52.3,27.65 -17.4,9.33 -34.9,18.67 -52.4,27.64 -8.8,4.49 -17.6,9.04 -26.5,13.3 -8.8,4.24 -17.5,8.3 -26.4,12.22 -8.8,3.94 -17.7,7.66 -26.5,11.17 -8.9,3.51 -17.7,6.91 -26.6,9.91 -8.9,3.03 -17.8,5.74 -26.6,8.17 -4.5,1.21 -8.9,2.32 -13.3,3.36 -4.5,1.05 -8.9,1.98 -13.3,2.84 -4.5,0.88 -9,1.62 -13.5,2.3 -4.4,0.67 -8.8,1.3 -13.3,1.77 -4.4,0.47 -8.8,0.81 -13.3,1.06 -4.4,0.29 -8.8,0.51 -13.3,0.53 -4.4,0.06 -8.8,-0.15 -13.3,-0.34 -4.4,-0.2 -9,-0.44 -13.5,-0.89 -4.4,-0.45 -8.8,-1.09 -13.2,-1.78 -4.5,-0.71 -8.9,-1.51 -13.3,-2.46 -4.5,-0.98 -8.9,-1.95 -13.3,-3.2 -4.5,-1.25 -8.9,-2.71 -13.3,-4.26 -4.5,-1.53 -8.9,-3.29 -13.3,-5.14 -4.5,-1.82 -8.9,-3.67 -13.3,-5.84 -4.5,-2.15 -8.9,-4.61 -13.3,-7.1 -4.4,-2.48 -8.9,-5.16 -13.3,-7.98 -4.4,-2.79 -8.7,-5.67 -13.1,-8.85 -4.5,-3.17 -8.9,-6.57 -13.3,-10.1 -8.9,-7.06 -17.7,-13.97 -26.5,-20.55 -8.7,-6.59 -17.2,-12.85 -25.8,-18.96 -8.6,-6.12 -17.2,-12.08 -25.7,-17.72 -8.5,-5.67 -17.1,-10.95 -25.5,-16.12 -8.4,-5.2 -16.9,-10.17 -25.2,-14.9 -8.3,-4.74 -16.6,-9.35 -24.8,-13.65 -8.3,-4.29 -16.3,-8.38 -24.5,-12.22 -8.1,-3.86 -16.2,-7.39 -24.2,-10.79 -8.1,-3.44 -16.2,-6.76 -24.1,-9.75 -8,-2.99 -15.8,-5.76 -23.6,-8.33 -7.8,-2.62 -15.6,-4.95 -23.4,-7.1 -7.8,-2.31 -15.6,-4.09 -23.2,-5.87 -7.7,-1.73 -15.1,-3.24 -22.7,-4.61 -7.5,-1.44 -15.2,-2.61 -22.7,-3.53 -7.4,-0.88 -14.7,-1.75 -22.1,-2.33 -7.4,-0.58 -14.7,-1.16 -22,-1.16 -7.3,-0.19 -14.4,-0.17 -21.6,0 -7.2,0.19 -14.4,0.58 -21.5,1.16 -7.1,0.58 -14.1,1.17 -21.1,2.03 -7,0.88 -14,2.04 -20.9,3.37 -6.9,1.17 -13.7,2.61 -20.5,4.27 -6.8,1.46 -13.5,3.37 -20.2,5.31 -6.7,2.03 -13.4,4.09 -20.1,6.39 -6.6,2.33 -13.1,4.66 -19.6,7.26 -6.6,2.62 -13.1,5.4 -19.5,8.33 -6.4,2.94 -12.8,5.98 -19.1,9.21 -6.4,3.25 -12.6,6.56 -18.8,10.09 -6.3,3.55 -12.5,7.32 -18.6,11.18 -6.2,3.84 -12.4,7.72 -18.5,11.87 -6,4.16 -11.9,8.51 -17.9,12.96 -5.9,4.41 -12,8.93 -17.9,13.63 -5.9,4.72 -11.6,9.55 -17.3,14.54 -11.6,9.97 -24,20.51 -37.2,31.36 -13.3,10.87 -27.3,22.14 -42,33.51 -7.4,5.68 -15,11.45 -22.7,17.19 -7.7,5.73 -15.7,11.45 -23.8,17.18 -8,5.75 -16.2,11.49 -24.6,17.2 -8.4,5.7 -17.1,11.4 -25.9,17.02 -8.7,5.6 -17.5,11 -26.6,16.48 -9,5.47 -18.3,11.02 -27.6,16.3 -9.3,5.29 -18.9,10.37 -28.6,15.41 -9.6,5.04 -19.5,9.96 -29.4,14.72 -9.9,4.77 -19.9,9.4 -30.1,13.82 -10.2,4.43 -20.6,8.73 -31,12.76 -10.4,4.04 -20.9,7.74 -31.6,11.34 -10.6,3.62 -21.5,7.16 -32.4,10.29 -10.9,3.12 -21.8,5.9 -33,8.5 -11,2.62 -22.2,4.88 -33.4,6.91 -11.3,2.04 -22.8,3.93 -34.2,5.33 -5.8,0.68 -11.6,1.23 -17.4,1.75 -5.8,0.52 -11.5,1.05 -17.4,1.42 -5.8,0.39 -11.6,0.52 -17.5,0.71 -5.9,0.19 -11.6,0.34 -17.6,0.34 -5.8,0.02 -11.9,-0.15 -17.8,-0.34 -6,-0.19 -12,-0.5 -17.9,-0.89 -6,-0.4 -11.9,-0.85 -18,-1.44 -5.9,-0.58 -12,-1.16 -18,-1.95 -6.1,-0.78 -12.2,-1.83 -18.3,-2.84 -6.1,-1.01 -12.2,-2.14 -18.3,-3.36 -6.1,-1.23 -12.1,-2.45 -18.2,-3.9 -6.1,-1.46 -12.3,-3.1 -18.5,-4.78 -6.1,-1.68 -12.4,-3.4 -18.6,-5.33 -6.1,-1.9 -12.4,-4.03 -18.6,-6.2 -6.2,-2.17 -12.4,-4.48 -18.6,-6.91 -6.2,-2.41 -12.3,-4.95 -18.6,-7.62 -6.2,-2.67 -12.5,-5.38 -18.8,-8.33 -6.2,-2.93 -12.6,-6 -18.9,-9.21 -6.3,-3.22 -12.5,-6.63 -18.8,-10.11 -6.3,-3.47 -12.7,-7.04 -19,-10.81 -6.3,-3.76 -12.6,-7.64 -18.9,-11.69 -6.3,-4.06 -12.6,-8.24 -19,-12.59 -6.3,-4.34 -12.6,-8.82 -18.9,-13.47 -6.4,-4.63 -12.7,-9.58 -19,-14.53 -6.3,-4.95 -12.8,-9.98 -19.1,-15.25 -6.4,-5.24 -12.6,-10.72 -19,-16.3 -34,-29.83 -76.8,-67.17 -114.1,-99.77 87.1,-211.42 331.8,-354.28 607.9,-354.8 39.9,0.07 79.8,3.17 119.1,9.22 17.4,-61.24 47,-116.58 87.2,-163.4 89.5,-104.32 226.8,-160.3 381.5,-155.62 154.7,4.69 314.2,69.66 443.4,180.61 9.8,8.41 19.3,17.03 28.6,25.87 21.2,-16.74 43.4,-32.42 66.3,-46.96 282.2,-178.46 627.8,-152.49 794.8,59.72 81.9,-29.31 170.6,-44.46 260.2,-44.48 259.9,-0.02 494.2,126.39 593.5,320.26 z" /></g><g
         transform="scale(1.0705)"
         id="g60"><path
           id="path62"
           style="fill:#e8e8e8;fill-opacity:1;fill-rule:nonzero;stroke:none"
           d="m 14217.7,15929.2 c -4.5,0.8 -8.3,1.6 -12.6,2.4 -33.3,6.1 -67.4,12.1 -102,17.6 -34.6,5.4 -69.7,10.3 -105.5,14.9 -17.9,2.3 -35.8,4.7 -53.9,6.7 -18.1,2.1 -36.5,3.9 -54.8,5.6 -18.3,1.8 -36.9,3.5 -55.4,5 -18.5,1.5 -37,2.9 -55.7,4.1 -18.6,1.2 -36.8,2.7 -54.5,4.4 -17.6,1.8 -34.7,3.9 -51.3,6.1 -16.6,2.3 -32.7,4.6 -48.3,7.4 -15.6,2.7 -30.8,5.6 -45.5,8.8 -14.7,3.1 -28.7,6.7 -42.4,10.2 -13.8,3.6 -27.3,7.2 -40.2,11.2 -12.9,3.9 -25.4,8.1 -37.5,12.3 -12.1,4.2 -23.8,8.4 -35.2,12.9 -11.3,4.4 -22.4,9.1 -33.1,13.8 -10.6,4.7 -20.8,9.4 -30.8,14.3 -9.9,4.9 -19.6,9.7 -29,14.7 -9.3,5 -18.5,10.1 -27.3,15.2 -8.7,5.1 -17,10.1 -25.1,15.2 -8.2,5.1 -16.1,10.1 -23.8,15.3 -15.4,10.2 -30.1,20.4 -43.7,30.5 -13.6,10 -26.5,19.8 -38.6,29.3 -12.3,9.4 -23.8,18.4 -34.9,26.9 -11.2,8.5 -21.8,16.5 -32.3,23.7 -5.1,3.7 -10.4,7.1 -15.5,10.3 -5.1,3.2 -10.2,6.3 -15.2,9.1 -5.2,2.8 -10,5.6 -15,7.9 -5.1,2.3 -10.2,4.3 -15.3,6.2 -5.1,1.8 -9.9,3.4 -15,4.7 -5,1.3 -10.3,2.5 -15.5,3.2 -5.1,0.7 -10.5,0.9 -15.8,0.9 -5.1,0 -10.6,0 -16.1,-0.6 -5.7,-0.6 -11.2,-1.9 -17,-3.2 -5.8,-1.4 -11.6,-2.9 -17.6,-5 -6,-2.1 -12.1,-4.7 -18.2,-7.4 -6,-2.6 -12.3,-5.6 -18.4,-8.8 -6.2,-3.1 -12.3,-6.6 -18.5,-10.2 -6.3,-3.6 -12.5,-7.4 -18.8,-11.4 -12.6,-8.1 -25.4,-16.7 -38.4,-26.1 -13,-9.4 -26.4,-19.3 -39.9,-29.6 -26.9,-20.6 -55,-42.7 -84.4,-64.5 -14.7,-10.9 -29.7,-21.6 -45.1,-32.2 -15.4,-10.6 -31,-20.9 -47.2,-30.8 -8.1,-4.9 -16.6,-9.9 -24.9,-14.6 -8.3,-4.8 -16.6,-9.1 -25.3,-13.5 -8.5,-4.4 -17.2,-8.6 -26,-12.6 -8.8,-4 -17.7,-8.1 -26.7,-11.8 -9.1,-3.6 -18.2,-7 -27.5,-10.2 -9.3,-3.2 -18.9,-6.1 -28.5,-8.8 -9.6,-2.7 -19.4,-4.9 -29.3,-7 -9.8,-2.1 -19.7,-4.1 -29.9,-5.6 -10.1,-1.5 -20.6,-2.7 -31,-3.5 -10.5,-0.9 -21.2,-1.6 -32,-1.8 -10.8,-0.1 -21.7,0.3 -32.8,0.9 -11.1,0.7 -22.3,1.6 -33.7,3 -11.4,1.4 -23.1,3.3 -34.9,5.5 -11.8,2.3 -23.8,4.8 -36.1,8 -12.1,3.1 -24.3,7 -36.8,11.1 -12.6,4.1 -25.3,8.6 -38.2,13.8 -25.7,10.2 -51.5,21.1 -77.3,32.2 -25.9,11.1 -52,22.5 -78,34 -51.9,23.1 -103.8,46.5 -155.6,68.9 -26,11.2 -51.6,22.1 -77.4,32.5 -25.8,10.4 -51.7,20.4 -77.4,29.6 -12.8,4.6 -25.3,8.9 -38.1,13.2 -12.7,4.2 -25.6,8.2 -38.4,12 -12.7,3.8 -25.4,7.5 -38.1,10.9 -12.6,3.3 -25.2,6.5 -37.8,9.3 -12.6,2.9 -25,5.4 -37.5,7.7 -12.5,2.2 -24.8,4.2 -37.2,5.8 -12.4,1.6 -24.9,2.8 -37.2,3.8 -12.3,1 -24.4,1.5 -36.6,1.8 -12.2,0.2 -24.6,0.2 -36.7,-0.3 -12.1,-0.6 -24,-1.6 -36,-3 -12,-1.4 -23.9,-3.3 -35.8,-5.5 -11.9,-2.3 -23.7,-4.8 -35.5,-7.9 -11.7,-3.2 -23.2,-7 -34.8,-11.2 -11.7,-4.1 -23.5,-8.6 -34.9,-13.8 -11.5,-5.1 -22.7,-11 -34,-17.2 -11.3,-6.3 -22.5,-12.9 -33.7,-20.3 -11.1,-7.3 -22.4,-15.4 -33.4,-24 -11,-8.6 -21.7,-17.8 -32.5,-27.6 -10.9,-9.7 -21.6,-20 -32.3,-31 -10.7,-11.1 -21.2,-22.8 -31.6,-35.2 -10.5,-12.4 -21.2,-24.1 -31.7,-35.2 -10.5,-11.1 -21.1,-21.5 -31.7,-31.3 -10.5,-9.9 -20.9,-19.2 -31.6,-27.8 -10.6,-8.7 -21.2,-16.6 -31.9,-24.1 -10.7,-7.4 -21.7,-14.4 -32.6,-20.8 -10.9,-6.4 -21.8,-12.3 -32.8,-17.6 -11,-5.3 -22.2,-10 -33.4,-14.3 -11.2,-4.3 -22.3,-8.4 -33.7,-11.7 -11.4,-3.5 -23,-6.4 -34.6,-8.8 -11.6,-2.6 -23.6,-4.5 -35.4,-6.2 -11.9,-1.6 -23.9,-3 -36.1,-3.8 -12.1,-0.8 -24.4,-1.3 -36.9,-1.5 -12.5,-0.1 -25,0 -37.9,0.6 -12.7,0.5 -25.8,1.4 -38.9,2.7 -13.2,1.2 -26.3,2.6 -39.9,4.4 -13.5,1.8 -27.4,3.8 -41.3,6.1 -13.9,2.4 -27.9,5.1 -42.2,8 -14.4,2.7 -28.9,5.5 -43.7,8.8 -29.6,6.4 -60.2,13.8 -91.7,21.6 -31.5,7.9 -64.2,16.1 -97.9,24.9 -33.7,8.9 -68.3,18.2 -104.3,27.6 -36.06,9.4 -73.42,19.1 -111.99,28.7 -38.57,9.6 -78.28,19.1 -119.58,28.4 -20.66,4.7 -41.64,9.3 -62.98,13.8 -21.39,4.6 -43.28,8.9 -65.39,13.2 -22.11,4.3 -44.53,8.5 -67.4,12.6 -22.84,4.1 -46.06,8.2 -69.73,12 -11.86,1.9 -23.9,3.4 -35.73,4.7 -11.93,1.4 -23.83,2.7 -35.79,3.6 -11.93,0.8 -23.76,1.1 -35.73,1.4 -11.96,0.3 -24.04,0.5 -36.09,0.3 -12.01,-0.2 -24.05,-0.5 -36.05,-1.2 -12.04,-0.7 -24.01,-1.5 -36.08,-2.6 -12.01,-1.2 -23.99,-2.6 -36.06,-4.1 -12.05,-1.6 -24.01,-3.3 -36.09,-5.3 -12,-2 -24.3,-4.3 -36.34,-6.8 -12.01,-2.3 -24.05,-4.8 -36.06,-7.6 -12.04,-2.8 -24.04,-5.9 -36.08,-9.1 -12.01,-3.1 -23.76,-6.4 -35.72,-9.9 -11.98,-3.5 -24.09,-7.3 -36.06,-11.2 -11.93,-3.9 -23.61,-8 -35.47,-12.3 -11.89,-4.2 -23.94,-8.6 -35.76,-13.1 -11.85,-4.6 -23.72,-9.3 -35.47,-14.1 -11.74,-4.8 -23.46,-9.8 -35.13,-15 -11.72,-5 -23.28,-10.1 -34.9,-15.5 -23.24,-10.8 -46.26,-22.2 -69.18,-34 -22.91,-11.7 -45.75,-23.8 -68.27,-36.3 -15.65,-8.8 -31.13,-17.9 -46.64,-27 116.3,-415.3 494.56,-702.7 925.84,-703.4 249.58,0.2 489.33,97.3 668.73,270.8 161,-157.3 377.2,-245.4 602.3,-245.5 222.7,0.1 436.8,86.4 597.3,240.8 159.2,-146.6 367.8,-228 584.3,-228 245.2,0.1 478.7,104.6 642.2,287.3 163.6,-197.7 406.8,-312.3 663.5,-312.5 427.7,0 790.8,313.6 853.1,736.8 z" /></g><g
         transform="scale(1.1952)"
         id="g64"><path
           id="path66"
           style="fill:#ffffff;fill-opacity:1;fill-rule:nonzero;stroke:none"
           d="m 10017.8,16300 c -584.6,-0.2 -1072.2,-446.9 -1123.48,-1029.2 -93.18,33.3 -191.39,50.4 -290.32,50.4 -228.81,0 -448.25,-90.9 -610,-252.8 -161.78,-161.8 -252.6,-381.2 -252.53,-610 0.42,-78.7 11.63,-157 33.29,-232.6 13.87,8.1 27.69,16.3 41.77,24.1 20.18,11.3 40.63,22.1 61.16,32.6 20.52,10.5 41.14,20.8 61.96,30.4 10.4,4.9 20.76,9.4 31.22,14 10.46,4.5 20.98,9 31.5,13.3 10.56,4.4 21.18,8.6 31.73,12.7 10.63,4 21.41,8 32.07,11.7 10.62,3.8 21.08,7.6 31.73,11.1 10.69,3.5 21.6,6.8 32.33,10 10.72,3.1 21.28,6 31.99,8.9 10.76,2.8 21.54,5.6 32.29,8.1 10.79,2.5 21.51,4.7 32.33,6.9 10.75,2.1 21.73,4.2 32.55,6 10.79,1.8 21.5,3.3 32.32,4.7 10.76,1.4 21.48,2.7 32.3,3.7 10.78,1 21.53,1.7 32.32,2.4 10.75,0.5 21.5,0.9 32.28,1 10.76,0.2 21.58,0 32.3,-0.3 10.72,-0.2 21.34,-0.5 32.03,-1.3 10.65,-0.7 21.38,-1.9 32.03,-3.1 10.68,-1.2 21.44,-2.5 31.99,-4.2 21.24,-3.4 42.04,-7.1 62.49,-10.8 20.53,-3.7 40.6,-7.4 60.37,-11.3 19.8,-3.8 39.41,-7.8 58.53,-11.8 19.16,-4.1 37.95,-8.1 56.45,-12.3 36.96,-8.4 72.55,-16.9 107.1,-25.5 34.55,-8.6 68.01,-17.3 100.27,-25.7 32.26,-8.4 63.28,-16.8 93.44,-24.7 30.17,-7.9 59.42,-15.3 87.69,-22.3 28.24,-7 55.66,-13.7 82.13,-19.4 13.27,-2.9 26.28,-5.4 39.12,-7.9 12.85,-2.5 25.36,-5 37.78,-7.1 12.46,-2.1 24.91,-3.9 37.03,-5.5 12.1,-1.6 23.93,-2.9 35.73,-4 11.79,-1 23.46,-1.8 34.9,-2.4 11.48,-0.5 22.72,-0.6 33.86,-0.5 11.17,0.1 22.23,0.6 33.08,1.4 10.91,0.7 21.63,1.9 32.32,3.4 10.65,1.4 21.31,3.3 31.73,5.5 10.43,2.2 20.79,4.8 30.99,7.9 10.2,3 20.16,6.6 30.17,10.4 10.06,3.9 20.06,8.1 29.93,12.9 9.84,4.8 19.64,10.1 29.42,15.7 9.73,5.8 19.47,12 29.15,18.7 9.57,6.7 19.09,13.8 28.6,21.5 9.54,7.8 18.88,16.2 28.33,24.9 9.45,8.9 18.96,18.2 28.34,28.1 9.41,10 18.99,20.4 28.34,31.5 9.41,11.1 18.79,21.6 28.36,31.5 9.55,9.9 19.18,19.1 28.9,27.8 9.7,8.8 19.31,17.1 29.15,24.7 9.87,7.7 19.9,15 29.9,21.6 10.03,6.6 20.07,12.5 30.2,18.1 10.16,5.6 20.17,10.8 30.43,15.5 10.27,4.6 20.81,8.6 31.21,12.3 10.4,3.7 20.8,7.1 31.2,10 10.6,2.8 21.2,5.1 31.8,7.1 10.6,2 21.3,3.7 32,4.9 10.8,1.2 21.5,2.2 32.4,2.7 10.8,0.5 21.9,0.4 32.8,0.2 10.9,-0.2 21.8,-0.7 32.8,-1.5 11,-0.9 22.3,-2 33.3,-3.4 11.1,-1.5 22.2,-3.3 33.3,-5.3 11.2,-2 22.4,-4.3 33.6,-6.8 11.3,-2.6 22.6,-5.4 33.9,-8.4 11.3,-3 22.7,-6.3 34.1,-9.7 11.4,-3.4 23,-7 34.4,-10.8 11.4,-3.8 22.7,-7.7 34.1,-11.8 23,-8.3 46.2,-17.2 69.3,-26.5 23.1,-9.3 46.2,-19.1 69.3,-29.2 46.4,-20 92.9,-41 139.4,-61.6 23.3,-10.4 46.7,-20.6 69.9,-30.5 23.1,-9.9 46.2,-19.7 69.3,-28.8 11.5,-4.7 22.9,-8.7 34.1,-12.4 11.2,-3.7 22.2,-7.1 33,-10 10.9,-2.8 21.8,-5 32.4,-7.1 10.5,-2 20.9,-3.7 31.2,-4.9 10.2,-1.3 20.2,-2.1 30.2,-2.7 9.9,-0.5 19.7,-0.9 29.4,-0.8 9.6,0.2 19.2,0.8 28.6,1.6 9.4,0.8 18.7,1.8 27.8,3.1 9.1,1.4 17.9,3.1 26.8,5 8.8,1.9 17.7,3.9 26.3,6.3 8.5,2.4 17.1,5.1 25.4,7.9 8.3,2.8 16.5,5.9 24.7,9.2 8.1,3.2 16,6.9 23.8,10.5 7.9,3.6 15.7,7.3 23.4,11.3 7.7,3.9 15.1,7.8 22.6,12 7.5,4.3 15.1,8.7 22.3,13.2 14.6,8.8 28.5,18.1 42.3,27.5 13.8,9.5 27.3,19.2 40.4,28.9 26.3,19.5 51.5,39.3 75.6,57.7 12.1,9.3 24.1,18.1 35.7,26.5 11.7,8.4 23.1,16.2 34.4,23.4 5.7,3.6 11.2,7 16.8,10.2 5.6,3.3 11,6.4 16.6,9.2 5.5,2.9 11.1,5.5 16.5,7.9 5.5,2.4 10.9,4.7 16.3,6.6 5.4,1.9 10.6,3.2 15.7,4.4 5.2,1.3 10.3,2.4 15.3,3 5.1,0.5 9.6,0.5 14.4,0.4 4.6,0 9.5,-0.1 14.2,-0.7 4.5,-0.6 9.3,-1.7 13.9,-2.9 4.6,-1.2 8.9,-2.6 13.4,-4.2 4.6,-1.7 9.1,-3.4 13.7,-5.5 4.5,-2.1 8.9,-4.6 13.4,-7.1 4.6,-2.6 9.1,-5.2 13.6,-8.2 4.6,-2.9 9.3,-5.9 14,-9.1 9.3,-6.5 18.9,-13.7 28.8,-21.3 10,-7.6 20.3,-15.7 31.2,-24.2 11,-8.4 22.5,-17.2 34.7,-26.2 12.2,-9 25.3,-18.1 39.1,-27.3 6.9,-4.6 13.9,-9.1 21.3,-13.7 7.3,-4.5 14.7,-9 22.5,-13.6 7.9,-4.6 16.1,-9.2 24.5,-13.6 8.4,-4.5 17,-8.8 26,-13.2 8.9,-4.3 18,-8.6 27.6,-12.8 9.5,-4.2 19.5,-8.4 29.6,-12.4 10.2,-4 20.6,-7.8 31.5,-11.5 10.9,-3.8 22,-7.6 33.6,-11 11.6,-3.6 23.6,-6.8 35.9,-10 12.4,-3.2 25,-6.4 38.1,-9.2 13.2,-2.9 26.7,-5.5 40.7,-7.9 14,-2.4 28.4,-4.5 43.3,-6.5 14.9,-2.1 30.2,-4 45.9,-5.6 15.9,-1.5 32.1,-2.9 48.9,-3.9 16.7,-1.1 33.2,-2.4 49.8,-3.7 16.6,-1.3 33.2,-2.8 49.7,-4.4 16.4,-1.7 32.8,-3.2 49,-5 16.2,-1.8 32.3,-4 48.3,-6.1 32.1,-4.1 63.5,-8.5 94.5,-13.4 31.1,-4.8 61.6,-10.2 91.4,-15.7 4,-0.7 7.5,-1.4 11.3,-2.1 5.5,37.2 8.3,74.8 8.4,112.4 -0.4,412.5 -324.8,751.9 -736.9,770.9 0.1,2.9 0.2,5.8 0.3,8.7 0,177.8 -70.6,348.4 -196.3,474.1 -125.7,125.8 -296.3,196.5 -474.1,196.5 -120.1,0 -237.9,-32.3 -341.2,-93.4 -201.7,348.7 -573.9,563.5 -976.8,563.5 z" /></g><g
         transform="scale(1.66953)"
         id="g68"><path
           id="path70"
           style="fill:#e8e8e8;fill-opacity:1;fill-rule:nonzero;stroke:none"
           d="m 16300,9900.61 c -4.1,2.51 -8.1,4.78 -12.2,7.33 -21.4,13.08 -43.3,26.74 -65.6,41.16 -22.3,14.41 -44.9,29.53 -67.9,45.27 -22.9,15.73 -46,32.13 -69.5,49.23 -11.7,8.6 -23.5,17.4 -35.3,26.3 -11.8,8.9 -23.6,18 -35.5,27.3 -11.9,9.2 -23.8,18.7 -35.7,28.3 -11.9,9.7 -23.8,19.6 -35.7,29.5 -11.9,10 -23.6,19.4 -34.8,28.4 -11.2,9 -22.1,17.5 -32.7,25.6 -10.5,8 -20.7,15.4 -30.6,22.5 -9.9,7.1 -19.5,13.7 -28.8,19.9 -9.3,6.3 -18.3,12.2 -27,17.5 -8.8,5.4 -17.2,10.3 -25.4,14.9 -8.2,4.5 -16.3,8.6 -24,12.4 -7.8,3.7 -15.3,7.3 -22.6,10.3 -7.3,3 -14.3,5.6 -21.2,7.9 -6.9,2.3 -13.8,4.3 -20.3,6 -6.6,1.7 -12.9,3.1 -19.2,4.2 -6.2,1 -12.4,1.8 -18.4,2.2 -5.9,0.4 -11.7,0.5 -17.5,0.3 -5.7,0 -11.5,-0.4 -17.1,-1.1 -5.5,-0.6 -10.9,-1.3 -16.3,-2.4 -5.4,-1.1 -10.9,-2.6 -16.2,-4.1 -5.3,-1.6 -10.5,-3.4 -15.8,-5.3 -5.2,-2 -10.3,-4.1 -15.6,-6.4 -5.2,-2.3 -10.3,-4.8 -15.5,-7.5 -5.3,-2.7 -10.6,-5.5 -15.8,-8.5 -10.6,-5.9 -21.3,-12.4 -32.4,-19.3 -11,-6.9 -22.3,-14.3 -34.2,-21.8 -11.8,-7.6 -24.1,-15.4 -37,-23.3 -13,-8 -26.6,-16 -41,-24.1 -7.2,-4 -14.5,-8 -22.1,-12 -7.6,-4 -15.5,-7.9 -23.5,-11.8 -8.1,-3.9 -16.4,-7.7 -25,-11.5 -8.6,-3.8 -17.6,-7.6 -26.7,-11.3 -9.1,-3.6 -17.9,-7.4 -26.5,-11.3 -8.6,-3.8 -16.9,-7.8 -25,-11.8 -8.1,-4 -15.9,-7.9 -23.5,-12 -7.6,-4.1 -15,-8.4 -22.2,-12.6 -7.2,-4.2 -14.2,-8.3 -21,-12.6 -6.9,-4.3 -13.4,-8.7 -20,-13 -13,-8.5 -25.4,-16.9 -37.3,-25.3 -12,-8.4 -23.7,-16.7 -35,-24.7 -11.3,-7.9 -22.4,-15.6 -33.5,-22.9 -5.5,-3.6 -11,-7.1 -16.5,-10.5 -5.5,-3.41 -11,-6.61 -16.5,-9.77 -5.6,-3.16 -11.1,-6.16 -16.8,-9.01 -5.6,-2.85 -11.3,-5.57 -17,-8.1 -5.8,-2.5 -11.8,-4.98 -17.7,-7.13 -6,-2.15 -12.1,-4.07 -18.2,-5.83 -6.2,-1.73 -12.4,-3.37 -18.8,-4.7 -6.5,-1.31 -13.2,-2.32 -20,-3.18 -6.7,-0.89 -13.7,-1.54 -20.9,-1.9 -7.1,-0.35 -14.4,-0.37 -21.9,-0.18 -7.6,0.18 -15.2,0.54 -23.2,1.31 -8,0.74 -16.3,1.79 -24.8,3.18 -8.5,1.35 -17.3,3.11 -26.3,5.07 -9,2.01 -18.1,4.29 -27.8,6.96 -9.6,2.69 -19.6,5.82 -29.9,9.21 -10.2,3.37 -20.8,6.95 -31.7,11.09 -11,4.12 -22.2,8.61 -33.8,13.48 -11.7,5 -23.9,10.3 -36.3,16 -12.4,5.7 -25.3,11.9 -38.5,18.4 -13.2,6.6 -26.9,13.6 -41,21.1 -14.1,7.4 -27.9,14.5 -41.3,20.8 -13.4,6.4 -26.5,12.3 -39.3,17.7 -12.8,5.4 -25.1,10.2 -37.2,14.7 -12.1,4.4 -24,8.3 -35.5,11.8 -11.5,3.5 -22.7,6.6 -33.7,9.2 -10.9,2.7 -21.7,5 -32.1,6.8 -10.4,1.8 -20.5,3.3 -30.4,4.3 -10,1 -19.7,1.6 -29.2,1.9 -9.5,0.3 -18.7,0.2 -27.8,-0.2 -9,-0.4 -18,-1.2 -26.7,-2.3 -8.6,-1 -17,-2.3 -25.4,-3.9 -8.3,-1.7 -16.4,-3.6 -24.4,-5.8 -8,-2.2 -16,-4.8 -23.7,-7.5 -7.7,-2.8 -15.3,-5.8 -22.7,-9.1 -7.5,-3.2 -14.8,-6.5 -22,-10.1 -7.2,-3.6 -14.4,-7.6 -21.4,-11.7 -7.1,-4 -14,-8.2 -20.9,-12.6 -6.9,-4.3 -13.7,-8.8 -20.5,-13.5 -6.8,-4.6 -13.6,-9.5 -20.3,-14.4 -6.7,-5 -13.4,-10 -20.1,-15.1 -13.3,-10.2 -26.6,-20.7 -40,-31.5 -13.4,-10.85 -26.7,-21.92 -40.4,-32.94 -13.7,-11.02 -27.7,-22.02 -41.9,-32.87 -7.1,-5.43 -14.3,-10.83 -21.6,-16.17 -7.3,-5.33 -14.8,-10.6 -22.4,-15.79 -7.5,-5.17 -15,-10.23 -22.9,-15.21 -7.8,-5.01 -15.7,-9.89 -23.8,-14.67 -8.1,-4.75 -16.6,-9.43 -25,-13.9 -8.5,-4.47 -17.1,-8.82 -25.9,-12.96 -8.9,-4.16 -17.5,-7.72 -26.2,-10.9 -8.6,-3.21 -17.2,-5.99 -25.7,-8.26 -8.5,-2.29 -16.8,-4.05 -25.2,-5.45 -8.3,-1.43 -16.6,-2.46 -24.8,-3.02 -8.2,-0.59 -16.3,-0.77 -24.4,-0.59 -8.1,0.21 -16.3,0.73 -24.3,1.71 -8,0.94 -16.1,2.29 -24,3.93 -8,1.64 -15.8,3.72 -23.7,6.02 -7.9,2.29 -15.8,4.98 -23.7,7.9 -7.8,2.9 -15.6,6.09 -23.5,9.58 -7.8,3.51 -15.8,7.25 -23.6,11.27 -7.9,4.02 -15.6,8.28 -23.5,12.8 -7.9,4.49 -15.8,9.31 -23.7,14.27 -7.9,4.96 -15.9,10.06 -23.8,15.4 -8,5.36 -16,10.83 -24.1,16.54 -8,5.71 -16.1,11.62 -24.2,17.66 -16.3,12.08 -32.7,24.71 -49.5,37.79 -16.7,13.05 -33.9,26.66 -51.3,40.36 -17.3,13.8 -35,27.7 -53.1,41.7 -18.2,14.1 -36.9,28.1 -56,42.1 -9.6,7.1 -19.2,14.1 -29,21.1 -9.8,6.9 -19.8,13.8 -29.9,20.6 -10,6.9 -20.2,13.7 -30.6,20.4 -10.3,6.6 -20.9,13.2 -31.5,19.7 -10.7,6.5 -21.5,12.7 -32.6,19 -11,6.2 -22.2,12.2 -33.6,18.2 -11.4,6 -22.8,11.8 -34.6,17.5 -11.7,5.6 -23.8,11.1 -35.9,16.3 -10.4,4.5 -20.6,8.8 -30.8,12.8 -10.2,4 -20.2,7.6 -30.2,11.1 -10,3.4 -19.9,6.8 -29.7,9.8 -9.8,2.9 -19.6,5.6 -29.2,8 -9.6,2.5 -19.1,4.8 -28.5,6.8 -9.4,2 -18.7,3.9 -27.9,5.4 -9.2,1.6 -18.2,2.9 -27.2,4 -9,1.1 -17.9,2.1 -26.7,2.8 -8.8,0.7 -17.5,1 -26.1,1.3 -8.6,0.3 -17.2,0.6 -25.6,0.4 -8.4,-0.1 -16.7,-0.4 -24.9,-0.9 -8.3,-0.6 -16.4,-1.2 -24.5,-2.1 -8,-0.9 -15.8,-2 -23.6,-3.2 -7.9,-1.2 -15.7,-2.6 -23.4,-4.2 -7.6,-1.5 -15.2,-3.3 -22.7,-5.2 -7.5,-1.9 -14.7,-3.8 -22,-6 -7.3,-2.2 -14.5,-4.7 -21.6,-7.2 -7.1,-2.5 -14.1,-5.1 -21,-7.9 -7,-2.7 -13.8,-5.6 -20.5,-8.6 -6.7,-3.1 -13.4,-6.3 -19.9,-9.6 -6.6,-3.3 -13,-6.6 -19.4,-10.1 -6.4,-3.6 -12.6,-7.4 -18.8,-11.1 -6.2,-3.8 -12.4,-7.5 -18.4,-11.5 -6,-4 -12,-8.1 -17.8,-12.2 -5.9,-4.2 -11.6,-8.4 -17.3,-12.8 -5.7,-4.3 -11.2,-8.6 -16.7,-13.1 -11.1,-9 -21.6,-18.5 -32,-28 -10.3,-9.6 -20.4,-19.5 -30.1,-29.5 -9.7,-10.1 -19,-20.3 -28,-30.7 -9,-10.3 -17.5,-20.8 -25.9,-31.4 -8.4,-10.5 -16.5,-21.2 -24.3,-31.9 -7.7,-10.7 -15,-21.4 -22.1,-32.1 -6.5,-9.66 -12.4,-19.25 -18.3,-28.77 142.7,-94.18 335.6,-135.64 530.9,-114.06 24.5,2.78 48.9,6.54 73.1,11.27 40.6,-279.33 371.6,-468.69 746,-426.77 131.2,14.77 256.6,57.28 361.4,122.54 143.8,-98.58 341.4,-142.26 541.6,-119.7 108.6,12.23 213.5,43.52 306.2,91.32 142.6,-91.28 333.1,-130.84 525.6,-109.17 250.6,28.22 470,155.96 573.2,333.71 10.4,-1.48 20.8,-2.78 31.2,-3.93 208.2,-21.43 412.5,28.71 556,136.43 z" /></g><g
         transform="scale(1.69029)"
         id="g72"><path
           id="path74"
           style="fill:#ffffff;fill-opacity:1;fill-rule:nonzero;stroke:none"
           d="m 13455.1,11498.1 c -484.7,-0.2 -894.1,-313.2 -956.8,-731.5 -60.1,5.6 -121.4,5 -182.3,-1.8 -180.7,-20.4 -348,-93.7 -465,-203.8 -117.1,-110.1 -174.2,-248.1 -159,-383.5 14.8,-126 91.3,-240.38 214.8,-321.1 5.8,9.4 11.7,18.91 18,28.4 7,10.56 14.2,21.17 21.9,31.73 7.6,10.59 15.7,21.1 23.9,31.57 8.3,10.47 16.7,20.75 25.6,30.99 8.9,10.24 18.1,20.33 27.7,30.21 9.5,10 19.5,19.7 29.7,29.2 10.2,9.4 20.7,18.8 31.6,27.6 5.4,4.5 10.9,8.8 16.5,13 5.6,4.3 11.3,8.5 17,12.7 5.8,4.1 11.7,8.1 17.7,12 5.9,3.9 12,7.6 18.2,11.3 6.1,3.7 12.2,7.5 18.5,11 6.3,3.5 12.7,6.8 19.1,10 6.5,3.3 13.1,6.5 19.7,9.5 6.7,3 13.4,5.8 20.2,8.5 6.9,2.8 13.8,5.3 20.8,7.8 7,2.5 14.2,4.9 21.4,7.1 7.2,2.1 14.3,4.1 21.7,5.9 7.4,1.9 14.9,3.7 22.4,5.2 7.6,1.5 15.3,2.9 23.1,4.1 7.7,1.2 15.4,2.3 23.3,3.2 8,0.8 16.1,1.5 24.2,2 8.1,0.5 16.4,0.8 24.7,0.9 8.3,0.2 16.7,-0.1 25.2,-0.3 8.5,-0.3 17.1,-0.6 25.8,-1.3 8.7,-0.7 17.5,-1.7 26.4,-2.8 8.8,-1.1 17.8,-2.4 26.9,-3.9 9.1,-1.6 18.2,-3.4 27.4,-5.4 9.3,-2 18.8,-4.2 28.3,-6.7 9.5,-2.4 19.1,-5 28.7,-8 9.7,-2.9 19.5,-6.2 29.4,-9.6 9.9,-3.4 19.8,-7 29.9,-11 10.1,-3.9 20.1,-8.1 30.4,-12.6 11.9,-5.2 23.9,-10.6 35.5,-16.1 11.6,-5.6 22.9,-11.4 34.1,-17.3 11.2,-5.9 22.3,-11.8 33.2,-18 10.9,-6.2 21.6,-12.4 32.1,-18.8 10.6,-6.3 21,-12.9 31.2,-19.4 10.3,-6.6 20.3,-13.3 30.2,-20.1 10,-6.7 19.9,-13.5 29.6,-20.4 9.7,-6.85 19.1,-13.85 28.6,-20.78 18.8,-13.87 37.3,-27.71 55.3,-41.57 17.9,-13.89 35.3,-27.67 52.5,-41.21 17.2,-13.56 34.1,-27.02 50.7,-39.91 16.5,-12.9 32.7,-25.4 48.8,-37.3 8,-5.96 16,-11.81 23.9,-17.45 8,-5.66 15.9,-11.04 23.8,-16.34 7.8,-5.29 15.7,-10.33 23.6,-15.22 7.8,-4.9 15.6,-9.64 23.3,-14.1 7.8,-4.46 15.5,-8.65 23.2,-12.62 7.8,-3.98 15.6,-7.7 23.4,-11.14 7.8,-3.45 15.4,-6.59 23.2,-9.47 7.8,-2.87 15.6,-5.53 23.4,-7.8 7.8,-2.26 15.6,-4.32 23.4,-5.93 7.8,-1.62 15.8,-2.96 23.7,-3.91 8,-0.92 16,-1.48 24,-1.69 8,-0.2 16,0 24.1,0.58 8.1,0.58 16.3,1.57 24.5,2.99 8.2,1.4 16.5,3.11 24.9,5.38 8.4,2.27 16.9,5.02 25.4,8.16 8.6,3.16 17.1,6.68 25.8,10.77 8.7,4.11 17.3,8.38 25.6,12.8 8.4,4.44 16.7,9.04 24.7,13.75 8,4.69 15.8,9.55 23.6,14.47 7.7,4.94 15.2,9.91 22.6,15.04 7.5,5.11 14.9,10.33 22.1,15.58 7.2,5.26 14.3,10.6 21.3,15.97 14.1,10.74 27.9,21.6 41.4,32.49 13.5,10.86 26.7,21.79 39.9,32.47 13.2,10.67 26.4,21.05 39.5,31.17 6.6,5.06 13.3,10.01 19.9,14.86 6.6,4.86 13.3,9.68 20,14.29 6.8,4.62 13.4,9.05 20.3,13.37 6.8,4.3 13.6,8.46 20.6,12.44 7,3.97 14,7.9 21.1,11.51 7.2,3.58 14.4,6.83 21.8,10 7.3,3.17 14.8,6.22 22.4,8.92 7.6,2.73 15.5,5.23 23.4,7.43 7.9,2.2 15.9,4.1 24.1,5.7 8.3,1.7 16.5,2.9 25.1,4 8.6,1 17.4,1.8 26.4,2.2 8.9,0.4 18.1,0.4 27.4,0.2 9.4,-0.3 19,-0.9 28.8,-1.9 9.8,-1 19.8,-2.5 30.1,-4.3 10.3,-1.8 20.9,-4.1 31.7,-6.7 10.9,-2.6 21.9,-5.6 33.2,-9.05 11.4,-3.5 23.2,-7.33 35.2,-11.69 11.9,-4.4 24.1,-9.16 36.7,-14.5 12.6,-5.31 25.5,-11.11 38.8,-17.44 13.2,-6.31 26.9,-13.25 40.8,-20.59 14,-7.35 27.4,-14.31 40.5,-20.8 13.1,-6.48 25.7,-12.53 38,-18.19 12.3,-5.64 24.3,-10.93 35.8,-15.76 11.6,-4.86 22.6,-9.3 33.5,-13.38 10.8,-4.07 21.2,-7.61 31.3,-10.96 10.1,-3.33 20,-6.44 29.5,-9.08 9.5,-2.66 18.6,-4.9 27.5,-6.86 8.9,-1.99 17.6,-3.68 26,-5.02 8.3,-1.34 16.6,-2.4 24.5,-3.17 7.9,-0.76 15.3,-1.1 22.8,-1.29 7.4,-0.19 14.7,-0.16 21.7,0.19 7.1,0.34 14,1.02 20.6,1.87 6.7,0.86 13.4,1.82 19.7,3.16 6.4,1.3 12.5,2.92 18.6,4.65 6.1,1.71 12.1,3.6 18,5.75 5.9,2.11 11.8,4.56 17.5,7.05 5.7,2.48 11.3,5.16 16.8,7.97 5.6,2.8 11.1,5.81 16.6,8.93 5.5,3.12 10.8,6.28 16.3,9.63 5.5,3.37 10.9,6.82 16.3,10.4 11,7.17 21.9,14.77 33.1,22.65 11.2,7.86 22.7,16.01 34.5,24.31 11.8,8.3 24.1,16.64 36.9,25.05 6.5,4.23 13,8.62 19.7,12.81 6.8,4.2 13.7,8.29 20.8,12.45 7.1,4.14 14.4,8.36 21.9,12.44 7.5,4.07 15.3,7.97 23.2,11.87 8,3.9 16.2,7.9 24.7,11.7 8.5,3.8 17.2,7.5 26.2,11.1 9,3.6 17.9,7.4 26.3,11.2 8.5,3.7 16.8,7.4 24.7,11.3 8,3.9 15.7,7.7 23.2,11.7 7.5,3.9 14.8,7.9 21.9,11.8 14.3,8 27.7,16 40.5,23.8 12.8,7.9 24.9,15.6 36.6,23 11.6,7.5 22.8,14.7 33.8,21.6 10.8,6.8 21.4,13.2 31.9,19.1 5.2,2.9 10.4,5.7 15.6,8.3 5.1,2.6 10.2,5.1 15.4,7.5 5.1,2.2 10.2,4.3 15.4,6.3 5.2,1.9 10.3,3.6 15.6,5.2 5.2,1.5 10.6,2.9 15.9,4.1 5.4,1 10.7,1.7 16.2,2.4 5.5,0.6 11.2,1 16.9,1.1 5.6,0.1 11.3,0 17.2,-0.4 5.9,-0.4 12,-1.2 18.2,-2.2 6.2,-1.1 12.4,-2.5 19,-4.1 6.4,-1.7 13.2,-3.6 20,-6 6.8,-2.2 13.7,-4.7 21,-7.7 7.2,-3 14.6,-6.5 22.2,-10.3 7.7,-3.7 15.7,-7.7 23.8,-12.2 8.1,-4.5 16.4,-9.4 25,-14.7 8.7,-5.3 17.6,-11.1 26.8,-17.2 9.2,-6.2 18.6,-12.7 28.4,-19.7 9.8,-7 19.8,-14.4 30.2,-22.3 10.4,-7.9 21.3,-16.3 32.3,-25.2 11.1,-8.9 22.6,-18.2 34.4,-28 11.7,-9.9 23.4,-19.7 35.2,-29.2 11.8,-9.49 23.6,-18.85 35.3,-28 11.7,-9.15 23.4,-18.12 35.1,-26.93 11.7,-8.8 23.3,-17.51 34.9,-25.97 23.1,-16.94 46,-33.07 68.6,-48.62 22.7,-15.58 45.1,-30.51 67,-44.75 22,-14.23 43.7,-27.72 64.8,-40.65 4.1,-2.51 8,-4.76 12.1,-7.23 107.8,80.54 173.5,188.23 186,305.15 14.1,135.5 -44.2,273 -162.2,382.1 -117.9,109.2 -285.8,181.1 -466.7,200 -189.3,19.5 -376.2,-20.7 -516,-111.2 -52.2,144.3 -227,244.6 -426.7,244.6 -109.3,0 -214.7,-30.4 -295.8,-85.2 -34.2,441.1 -455.3,783.7 -963.3,783.6 z" /></g><g
         transform="scale(2.10669)"
         id="g76"><path
           id="path78"
           style="fill:#e8e8e8;fill-opacity:1;fill-rule:nonzero;stroke:none"
           d="m 16299.9,5269.62 c -5.9,3.19 -11.7,6.4 -17.5,9.69 -7.9,4.46 -15.8,8.91 -23.5,13.55 -7.7,4.62 -15.3,9.38 -22.9,14.15 -7.6,4.74 -15,9.55 -22.3,14.44 -7.4,4.88 -14.6,9.88 -21.6,14.89 -7.1,5.01 -14,10.07 -20.7,15.18 -6.7,5.14 -13.3,10.26 -19.7,15.49 -6.4,5.25 -12.5,10.6 -18.4,15.94 -6,5.34 -11.7,10.65 -17.2,16.08 -5.4,5.44 -10.6,11 -15.6,16.52 -5,5.55 -9.6,11.07 -14,16.69 -4.4,5.62 -8.6,11.29 -12.4,16.98 -3.8,5.7 -7.8,11 -11.9,16.08 -4.1,5.08 -8.3,9.94 -12.6,14.45 -4.4,4.5 -8.8,8.73 -13.4,12.66 -4.7,3.93 -9.5,7.47 -14.3,10.86 -4.9,3.4 -9.9,6.53 -14.9,9.39 -5.1,2.85 -10.1,5.52 -15.4,7.9 -5.2,2.35 -10.6,4.52 -16,6.39 -5.5,1.88 -11,3.49 -16.6,4.92 -5.6,1.4 -11.3,2.59 -17,3.57 -5.7,0.99 -11.4,1.82 -17.2,2.4 -5.8,0.57 -11.7,0.85 -17.6,1.04 -5.9,0.16 -11.9,0.18 -17.9,0 -6,-0.21 -11.9,-0.5 -18,-1.04 -6,-0.56 -12.1,-1.36 -18.1,-2.24 -6.1,-0.88 -12.1,-1.8 -18.2,-2.99 -6.1,-1.19 -12.3,-2.56 -18.4,-4.03 -6,-1.46 -12.1,-3.02 -18.1,-4.76 -6.1,-1.72 -12,-3.67 -18,-5.65 -6,-1.99 -12,-4.07 -17.9,-6.26 -5.9,-2.18 -11.7,-4.46 -17.6,-6.86 -5.8,-2.39 -11.7,-4.85 -17.4,-7.43 -5.8,-2.58 -11.4,-5.32 -17,-8.05 -5.6,-2.74 -11.1,-5.47 -16.5,-8.34 -5.5,-2.86 -10.8,-5.81 -16.1,-8.79 -10.6,-5.95 -20.8,-12.18 -30.5,-18.47 -9.8,-6.28 -19.1,-12.61 -27.9,-19.06 -8.8,-6.43 -17.2,-12.92 -24.8,-19.36 -7.7,-6.41 -14.8,-12.83 -21.2,-19.06 -6.4,-6.23 -12.8,-12.07 -19,-17.58 -6.3,-5.48 -12.6,-10.57 -18.8,-15.33 -6.2,-4.75 -12.3,-9.12 -18.5,-13.11 -6.2,-3.97 -12.3,-7.69 -18.5,-10.86 -3,-1.58 -6.3,-2.94 -9.3,-4.33 -3.1,-1.37 -6.2,-2.7 -9.3,-3.87 -3.1,-1.17 -6.1,-2.3 -9.2,-3.26 -3.1,-0.97 -6.2,-1.8 -9.4,-2.55 -3.1,-0.76 -6.2,-1.4 -9.4,-1.92 -3.1,-0.52 -6.2,-0.91 -9.3,-1.19 -3.2,-0.31 -6.4,-0.52 -9.6,-0.61 -3.2,-0.07 -6.4,-0.13 -9.7,0 -3.2,0.15 -6.4,0.52 -9.7,0.89 -3.2,0.39 -6.5,0.72 -9.8,1.35 -3.3,0.61 -6.6,1.39 -10,2.26 -3.3,0.84 -6.7,1.77 -10.1,2.82 -3.4,1.1 -6.8,2.39 -10.2,3.73 -3.5,1.32 -7.1,2.73 -10.6,4.32 -3.5,1.58 -7,3.23 -10.6,5.06 -3.6,1.82 -7.2,3.87 -10.9,5.95 -7.3,4.16 -14.7,8.81 -22.3,14 -7.6,5.2 -15.3,10.89 -23.2,17.13 -8,6.25 -16,12.93 -24.3,20.25 -8.3,7.33 -16.8,15.24 -25.5,23.68 -4.3,4.23 -8.7,8.31 -13.1,12.22 -4.4,3.91 -8.9,7.72 -13.4,11.31 -4.5,3.6 -9.1,6.99 -13.7,10.27 -4.6,3.31 -9.2,6.4 -13.9,9.39 -4.6,3 -9.2,5.95 -14,8.63 -4.7,2.7 -9.3,5.22 -14.1,7.61 -4.8,2.39 -9.7,4.62 -14.5,6.69 -4.8,2.08 -9.7,4.03 -14.5,5.81 -4.9,1.8 -9.8,3.42 -14.8,4.91 -5,1.5 -9.9,2.83 -14.9,4.02 -5,1.19 -10,2.25 -15,3.14 -5.1,0.89 -10.1,1.63 -15.2,2.24 -5.1,0.61 -10.4,1.04 -15.5,1.32 -5.2,0.31 -10.2,0.44 -15.4,0.46 -5.1,0.02 -10.4,-0.17 -15.6,-0.46 -5.2,-0.28 -10.4,-0.63 -15.7,-1.17 -5.2,-0.58 -10.5,-1.39 -15.8,-2.26 -5.2,-0.86 -10.6,-1.84 -15.9,-2.97 -5.3,-1.15 -10.6,-2.45 -15.9,-3.87 -5.3,-1.45 -10.7,-3.05 -16.1,-4.77 -5.4,-1.73 -10.7,-3.51 -16.1,-5.51 -5.3,-2.02 -10.7,-4.26 -16.1,-6.56 -5.3,-2.26 -10.7,-4.58 -16,-7.14 -5.4,-2.56 -10.9,-5.34 -16.3,-8.2 -5.4,-2.85 -10.8,-5.8 -16.2,-8.93 -5.4,-3.14 -10.8,-6.42 -16.2,-9.83 -5.4,-3.41 -11,-7.03 -16.4,-10.72 -5.4,-3.69 -10.8,-7.51 -16.2,-11.48 -5.4,-3.95 -10.9,-7.97 -16.2,-12.2 -5.5,-4.24 -10.9,-8.6 -16.2,-13.11 -5.4,-4.5 -10.7,-9.21 -16.1,-13.99 -5.4,-4.79 -10.9,-9.68 -16.3,-14.74 -10.7,-10.11 -20.8,-19.19 -30.2,-27.41 -9.4,-8.19 -18.1,-15.5 -26.4,-21.88 -4.1,-3.19 -8.1,-6.19 -12,-8.94 -3.9,-2.76 -7.6,-5.26 -11.3,-7.6 -3.7,-2.34 -7.3,-4.49 -10.8,-6.39 -3.4,-1.92 -6.9,-3.57 -10.2,-5.07 -3.4,-1.5 -6.7,-2.76 -9.9,-3.87 -3.2,-1.1 -6.2,-1.97 -9.4,-2.69 -3,-0.71 -6.2,-1.28 -9.2,-1.63 -3,-0.35 -5.9,-0.47 -8.9,-0.47 -3,0.02 -5.9,0.22 -8.8,0.61 -2.9,0.37 -5.9,0.91 -8.8,1.64 -2.9,0.72 -6,1.61 -8.9,2.68 -3,1.06 -5.9,2.34 -9,3.73 -3,1.37 -6.1,2.91 -9.2,4.62 -3.1,1.68 -6.3,3.5 -9.5,5.51 -6.5,3.98 -13.1,8.54 -20.1,13.7 -7.1,5.13 -14.5,10.9 -22.4,17.11 -7.9,6.21 -16.2,12.93 -25.1,20.1 -9,7.19 -18.6,14.86 -28.8,22.94 -10.2,8.08 -21.1,16.57 -32.7,25.48 -11.7,8.88 -24.2,18.08 -37.5,27.7 -13.4,9.62 -27.6,19.65 -42.9,29.93 -7.7,5.13 -15.2,10.06 -22.5,14.73 -7.3,4.68 -14.5,9.03 -21.5,13.26 -7,4.23 -13.8,8.27 -20.5,12.05 -6.7,3.81 -13.4,7.37 -19.8,10.74 -6.4,3.36 -12.6,6.6 -18.8,9.53 -6.1,2.93 -12.2,5.53 -18.1,8.03 -6,2.52 -11.7,4.91 -17.3,7.01 -5.7,2.09 -11.2,3.97 -16.7,5.65 -5.4,1.71 -10.8,3.18 -16.1,4.47 -5.2,1.3 -10.3,2.37 -15.3,3.29 -5,0.88 -10,1.57 -14.9,2.07 -4.9,0.52 -9.7,0.91 -14.4,1.04 -4.8,0.13 -9.3,0.09 -13.9,-0.15 -4.6,-0.24 -9.1,-0.72 -13.5,-1.35 -4.5,-0.61 -8.8,-1.43 -13.2,-2.39 -4.3,-0.98 -8.6,-2.12 -12.7,-3.43 -4.3,-1.34 -8.6,-2.8 -12.7,-4.47 -4.2,-1.67 -8.1,-3.51 -12.2,-5.51 -4.1,-2.02 -8.2,-4.08 -12.2,-6.42 -4.1,-2.31 -8.1,-4.93 -12.1,-7.58 -4,-2.65 -8,-5.51 -11.9,-8.49 -4,-2.99 -8,-6.08 -11.9,-9.38 -4,-3.31 -8,-6.68 -12,-10.27 -3.9,-3.62 -7.9,-7.42 -11.9,-11.34 -7.9,-7.78 -16,-16.2 -24.2,-25.16 -8.2,-8.95 -16.5,-18.52 -25,-28.59 -8.5,-10.05 -17.2,-20.6 -26.1,-31.72 -8.9,-11.11 -18.2,-22.74 -27.7,-34.84 -4.7,-6.07 -9.4,-11.67 -14.1,-16.99 -4.8,-5.3 -9.6,-10.29 -14.3,-14.89 -4.7,-4.58 -9.4,-8.75 -14.2,-12.65 -4.7,-3.91 -9.4,-7.49 -14.1,-10.73 -4.8,-3.23 -9.7,-6.17 -14.5,-8.79 -4.7,-2.58 -9.6,-4.86 -14.4,-6.84 -4.8,-1.98 -9.7,-3.67 -14.6,-5.06 -4.9,-1.39 -9.9,-2.45 -14.9,-3.29 -5,-0.83 -10.1,-1.5 -15.2,-1.78 -5.1,-0.29 -10.2,-0.22 -15.4,0 -5.3,0.21 -10.6,0.64 -16,1.36 -5.3,0.69 -10.7,1.67 -16.2,2.82 -5.5,1.15 -11.2,2.42 -16.8,4.02 -5.7,1.59 -11.5,3.37 -17.3,5.36 -5.8,1.98 -11.7,4.32 -17.7,6.69 -6.1,2.37 -12.2,4.88 -18.5,7.61 -6.2,2.74 -12.6,5.58 -19,8.63 -6.5,3.07 -13.1,6.33 -19.8,9.68 -13.5,6.72 -27.4,13.97 -41.9,21.75 -29,15.54 -60.2,33.01 -94.1,51.53 -17,9.26 -34.6,18.75 -53,28.45 -18.4,9.68 -37.6,19.56 -57.5,29.48 -19.9,9.9 -40.6,19.86 -62.3,29.78 -10.7,4.96 -21.8,9.97 -33,14.89 -11.2,4.93 -22.9,9.73 -34.6,14.59 -5.8,2.43 -11.7,4.73 -17.7,6.71 -5.9,1.98 -11.9,3.65 -18,5.21 -6.1,1.56 -12.3,2.9 -18.5,4.03 -6.2,1.11 -12.4,2.13 -18.7,2.82 -6.3,0.72 -12.6,1.18 -18.9,1.5 -6.4,0.31 -12.9,0.37 -19.4,0.28 -6.5,-0.08 -12.9,-0.28 -19.5,-0.75 -6.6,-0.43 -13.2,-1.13 -19.8,-1.93 -6.6,-0.81 -13.3,-1.67 -19.9,-2.84 -6.7,-1.14 -13.5,-2.52 -20.3,-4 -6.7,-1.48 -13.4,-3.12 -20.3,-4.91 -6.8,-1.8 -13.6,-3.71 -20.5,-5.82 -6.9,-2.1 -13.8,-4.3 -20.7,-6.7 -6.9,-2.39 -13.8,-5.06 -20.7,-7.75 -6.9,-2.67 -13.9,-5.38 -20.9,-8.32 -6.9,-2.95 -13.8,-6.05 -20.8,-9.24 -7,-3.21 -14,-6.54 -21,-9.97 -7,-3.45 -14,-7.07 -21,-10.74 -14,-7.33 -27.9,-15.05 -41.9,-23.21 -14,-8.18 -27.9,-16.73 -41.8,-25.63 -13.9,-8.88 -27.8,-18.02 -41.6,-27.55 -13.8,-9.51 -27.5,-19.45 -41.1,-29.48 -13.6,-10.04 -27.1,-20.23 -40.5,-30.67 -13.4,-10.46 -26.7,-21.12 -39.7,-31.88 -13.1,-10.75 -26,-21.66 -38.8,-32.61 -8.7,-7.47 -17.2,-14.96 -25.7,-22.49 103.1,-135.08 279.8,-211.33 465.2,-200.74 76.1,4.35 150.4,23.21 217.9,55.25 80.4,-98.99 228.1,-155.14 384.8,-146.24 136.9,7.79 262.8,64.34 338.3,152.05 84.8,-80.75 218,-124.09 357.1,-116.17 88.2,5.03 172.9,30.36 242.8,72.54 109.6,-91.23 270.2,-138.81 436.5,-129.42 169.7,9.71 326.6,77.72 424.8,184.21 106.2,-101.26 258.7,-154.73 415.8,-145.79 206.7,11.88 388,129.29 463.9,300.23 z" /></g><g
         transform="scale(2.11183)"
         id="g80"><path
           id="path82"
           style="fill:#ffffff;fill-opacity:1;fill-rule:nonzero;stroke:none"
           d="m 14471.3,6662.01 c -13.1,-0.05 -26.1,-0.44 -39.1,-1.18 -271.5,-15.5 -493.5,-177.72 -521.7,-381.21 -47.7,9.29 -96.7,12.66 -145.6,9.96 -256.1,-14.65 -465.6,-190.12 -495.9,-415.37 -97.2,61.19 -215.6,90.86 -335.6,84.09 -139.4,-7.92 -270.3,-64.39 -363.9,-156.97 -93.6,-92.58 -142.3,-213.69 -135.3,-336.7 4.8,-83.77 35.2,-164.53 88,-233.67 8.5,7.51 17,14.96 25.7,22.42 12.7,10.95 25.5,21.8 38.6,32.53 13.1,10.75 26.3,21.38 39.7,31.8 13.3,10.43 26.8,20.6 40.4,30.61 13.5,10.01 27.2,19.92 41,29.41 13.7,9.49 27.6,18.61 41.4,27.49 13.9,8.86 27.8,17.4 41.8,25.54 13.9,8.14 27.8,15.85 41.7,23.18 7,3.66 14,7.27 21,10.69 6.9,3.44 14,6.77 20.9,9.95 7,3.2 13.9,6.27 20.8,9.21 7,2.94 13.9,5.66 20.9,8.33 6.9,2.66 13.7,5.33 20.6,7.73 6.9,2.38 13.8,4.57 20.6,6.68 6.9,2.09 13.7,3.99 20.5,5.78 6.8,1.78 13.5,3.43 20.3,4.91 6.7,1.46 13.5,2.86 20.2,4.01 6.6,1.15 13.2,2.02 19.9,2.81 6.6,0.82 13.2,1.5 19.7,1.93 6.6,0.44 13,0.66 19.5,0.75 6.4,0.08 12.9,0.02 19.3,-0.29 6.4,-0.32 12.6,-0.78 18.8,-1.5 6.3,-0.72 12.6,-1.68 18.7,-2.81 6.2,-1.13 12.4,-2.48 18.5,-4.02 6,-1.55 12,-3.22 17.9,-5.19 6,-1.98 11.9,-4.26 17.7,-6.68 11.7,-4.86 23.3,-9.66 34.5,-14.56 11.2,-4.92 22.2,-9.91 33,-14.87 21.5,-9.89 42.2,-19.81 62.1,-29.71 19.9,-9.87 39,-19.75 57.3,-29.41 18.4,-9.65 36,-19.14 52.9,-28.37 33.9,-18.46 65,-35.9 93.9,-51.4 14.4,-7.75 28.3,-14.99 41.7,-21.7 6.7,-3.35 13.3,-6.6 19.8,-9.65 6.5,-3.06 12.8,-5.89 19,-8.61 6.2,-2.73 12.4,-5.21 18.4,-7.58 6,-2.37 11.9,-4.7 17.7,-6.68 5.8,-1.99 11.6,-3.77 17.2,-5.36 5.7,-1.57 11.3,-2.83 16.8,-3.99 5.5,-1.16 10.8,-2.14 16.2,-2.84 5.3,-0.68 10.7,-1.1 15.9,-1.35 5.2,-0.2 10.3,-0.27 15.4,0 5.1,0.3 10.2,0.96 15.2,1.8 5,0.83 9.9,1.87 14.8,3.25 4.9,1.39 9.8,3.09 14.6,5.05 4.8,2 9.6,4.26 14.4,6.85 4.8,2.59 9.6,5.53 14.4,8.76 4.7,3.22 9.4,6.81 14.1,10.7 4.7,3.88 9.4,8.04 14.1,12.63 4.7,4.57 9.6,9.54 14.3,14.85 4.7,5.29 9.3,10.9 14.1,16.93 9.5,12.07 18.7,23.69 27.6,34.77 8.9,11.08 17.5,21.6 26,31.65 8.5,10.03 16.8,19.57 25,28.52 8.1,8.94 16.2,17.31 24.2,25.1 4,3.89 7.9,7.7 11.8,11.29 4,3.58 8,6.97 11.9,10.24 4,3.29 8,6.38 11.9,9.36 4,2.98 7.9,5.83 11.9,8.47 3.9,2.65 8,5.26 12,7.59 4.1,2.33 8.1,4.38 12.2,6.38 4.1,2.01 8.1,3.85 12.2,5.49 4.1,1.67 8.4,3.15 12.6,4.46 4.3,1.33 8.5,2.44 12.8,3.42 4.3,0.98 8.6,1.78 13.1,2.39 4.4,0.61 8.9,1.09 13.5,1.35 4.5,0.24 9.1,0.27 13.8,0.15 4.7,-0.13 9.5,-0.52 14.4,-1.04 4.9,-0.52 9.8,-1.18 14.9,-2.07 5,-0.89 10,-1.98 15.3,-3.26 5.2,-1.29 10.6,-2.77 16,-4.45 5.4,-1.71 11,-3.55 16.7,-5.67 5.6,-2.08 11.3,-4.47 17.2,-6.97 5.9,-2.5 12,-5.1 18.1,-8.02 6.2,-2.93 12.3,-6.16 18.7,-9.51 6.4,-3.35 13.1,-6.92 19.8,-10.69 6.7,-3.8 13.5,-7.81 20.5,-12.05 7,-4.22 14.1,-8.54 21.4,-13.22 7.3,-4.66 14.8,-9.58 22.4,-14.7 15.3,-10.24 29.4,-20.26 42.8,-29.86 13.3,-9.6 25.8,-18.76 37.4,-27.64 11.7,-8.85 22.5,-17.32 32.7,-25.39 10.2,-8.07 19.7,-15.72 28.7,-22.88 8.9,-7.18 17.2,-13.87 25.1,-20.05 7.8,-6.2 15.2,-11.97 22.2,-17.09 7.1,-5.13 13.7,-9.68 20.1,-13.67 3.2,-1.98 6.4,-3.82 9.5,-5.5 3.1,-1.7 6.2,-3.22 9.2,-4.6 3,-1.39 6,-2.65 8.9,-3.72 3,-1.06 6,-1.94 8.9,-2.66 3,-0.73 5.9,-1.28 8.8,-1.65 2.9,-0.37 5.8,-0.57 8.8,-0.61 2.9,-0.02 5.9,0.11 8.9,0.46 3,0.35 6.1,0.93 9.2,1.65 3.1,0.72 6.2,1.57 9.3,2.66 3.2,1.11 6.5,2.37 9.8,3.87 3.4,1.5 6.8,3.16 10.3,5.05 3.5,1.9 7.1,4.07 10.7,6.4 3.7,2.33 7.4,4.83 11.3,7.56 3.9,2.76 7.9,5.74 12,8.92 8.3,6.36 16.9,13.65 26.3,21.84 9.4,8.18 19.5,17.26 30.2,27.34 5.4,5.03 10.8,9.93 16.2,14.71 5.3,4.75 10.6,9.45 16,13.94 5.4,4.51 10.8,8.86 16.2,13.08 5.4,4.23 10.8,8.23 16.2,12.19 5.4,3.94 10.8,7.77 16.2,11.43 5.4,3.68 10.9,7.31 16.3,10.71 5.4,3.39 10.8,6.68 16.2,9.8 5.4,3.11 10.8,6.07 16.2,8.92 5.4,2.85 10.8,5.61 16.1,8.16 5.4,2.57 10.7,4.86 16.1,7.14 5.4,2.27 10.7,4.53 16,6.52 5.4,2.02 10.7,3.8 16.1,5.5 5.3,1.74 10.7,3.33 16,4.75 5.3,1.45 10.6,2.74 15.9,3.87 5.3,1.15 10.7,2.13 15.9,2.98 5.3,0.86 10.5,1.66 15.8,2.23 5.2,0.58 10.4,0.93 15.6,1.19 5.2,0.28 10.4,0.46 15.6,0.46 5.1,-0.02 10.2,-0.15 15.3,-0.46 5.1,-0.32 10.4,-0.76 15.5,-1.33 5,-0.59 10.1,-1.35 15.1,-2.24 5,-0.89 10,-1.93 15,-3.13 5,-1.16 9.9,-2.51 14.9,-3.99 4.9,-1.5 9.8,-3.13 14.7,-4.9 4.9,-1.8 9.7,-3.72 14.5,-5.79 4.9,-2.08 9.7,-4.31 14.4,-6.7 4.8,-2.39 9.5,-4.9 14.1,-7.56 4.7,-2.68 9.4,-5.64 14,-8.62 4.6,-2.98 9.3,-6.07 13.8,-9.36 4.6,-3.3 9.2,-6.66 13.7,-10.25 4.5,-3.61 9,-7.4 13.4,-11.3 4.4,-3.89 8.7,-7.97 13.1,-12.17 8.6,-8.42 17.1,-16.32 25.4,-23.62 8.3,-7.33 16.3,-13.99 24.2,-20.22 7.9,-6.23 15.6,-11.91 23.2,-17.07 7.5,-5.18 15,-9.82 22.3,-13.97 3.6,-2.07 7.2,-4.12 10.8,-5.96 3.5,-1.81 7,-3.47 10.5,-5.05 3.6,-1.57 7.1,-2.97 10.6,-4.3 3.4,-1.32 6.9,-2.65 10.2,-3.72 3.4,-1.09 6.8,-1.98 10.1,-2.82 3.4,-0.82 6.7,-1.6 10,-2.23 3.3,-0.61 6.5,-0.98 9.8,-1.35 3.2,-0.37 6.4,-0.76 9.7,-0.89 3.2,-0.15 6.4,-0.09 9.6,0 3.2,0.08 6.4,0.28 9.5,0.59 3.2,0.31 6.3,0.67 9.4,1.19 3.1,0.51 6.2,1.18 9.3,1.92 3.1,0.76 6.3,1.55 9.4,2.53 3.1,0.95 6.1,2.09 9.2,3.28 3.1,1.16 6.2,2.46 9.2,3.86 3.1,1.37 6.3,2.72 9.4,4.31 6.1,3.16 12.3,6.87 18.4,10.84 6.2,3.96 12.2,8.32 18.4,13.08 6.2,4.73 12.5,9.8 18.7,15.3 6.3,5.49 12.7,11.31 19.1,17.53 6.3,6.21 13.4,12.6 21,19.01 7.7,6.41 16.1,12.88 24.9,19.32 8.8,6.42 18,12.74 27.7,19.01 9.8,6.27 20,12.47 30.5,18.43 5.2,2.96 10.6,5.9 16,8.76 5.5,2.83 10.9,5.59 16.5,8.31 5.6,2.73 11.3,5.46 17,8.03 5.7,2.55 11.5,5.03 17.3,7.43 5.9,2.39 11.7,4.64 17.6,6.82 5.9,2.19 11.8,4.28 17.8,6.24 6,2 12,3.92 18,5.66 6,1.72 12,3.27 18.1,4.75 6.1,1.47 12.2,2.85 18.3,4.02 6.1,1.16 12.1,2.09 18.1,2.96 6.1,0.87 12.2,1.7 18.1,2.24 6.1,0.55 12.1,0.83 18,1.03 6,0.2 12,0.19 17.8,0 5.9,-0.17 11.8,-0.46 17.6,-1.03 5.8,-0.58 11.5,-1.37 17.2,-2.39 5.7,-0.98 11.4,-2.15 16.9,-3.55 5.6,-1.42 11.1,-3.03 16.5,-4.9 5.4,-1.87 10.8,-4.03 16.1,-6.4 5.2,-2.35 10.2,-5.02 15.3,-7.87 5,-2.84 10,-5.99 14.8,-9.35 4.9,-3.39 9.7,-6.94 14.3,-10.86 4.6,-3.92 9,-8.14 13.4,-12.62 4.3,-4.49 8.5,-9.34 12.6,-14.42 4.1,-5.07 8.1,-10.36 11.8,-16.04 3.8,-5.68 8,-11.34 12.4,-16.94 4.4,-5.59 9,-11.12 14,-16.64 4.9,-5.51 10.1,-11.06 15.6,-16.49 5.4,-5.42 11.1,-10.71 17,-16.04 6,-5.33 12.1,-10.67 18.5,-15.89 6.3,-5.24 12.9,-10.34 19.6,-15.46 6.7,-5.11 13.6,-10.16 20.6,-15.15 7.1,-5 14.2,-9.97 21.6,-14.86 7.2,-4.86 14.7,-9.65 22.2,-14.41 7.6,-4.75 15.2,-9.5 22.9,-14.11 7.7,-4.6 15.6,-9.04 23.5,-13.52 5.7,-3.25 11.6,-6.47 17.4,-9.66 27.5,61.95 39.9,128.21 36.2,194.32 -14.6,256.1 -261.7,450.32 -551.9,433.79 -43.4,-2.53 -86.4,-9.82 -127.9,-21.68 7.6,34.68 10.5,70.12 8.6,105.47 -6.2,108.82 -57.3,210.61 -142.1,282.95 -84.8,72.36 -196.4,109.35 -310.1,102.86 -60.2,-3.55 -119,-19.18 -172.6,-45.91 -29.6,203.43 -255.4,354.29 -529,353.42 z" /></g><g
         transform="scale(1.31544)"
         id="g84"><path
           id="path86"
           style="fill:#e8e8e8;fill-opacity:1;fill-rule:nonzero;stroke:none"
           d="m 16300,8398.39 c -12.4,-0.3 -24.8,-0.53 -37.2,-0.45 -13,0.06 -26,0.39 -39.1,0.98 -13.1,0.53 -26.2,1.55 -39.1,2.62 -13,1.06 -26,2.4 -38.9,4.06 -12.9,1.67 -25.5,3.45 -38.2,5.73 -12.6,2.26 -25.2,4.93 -37.6,7.87 -12.4,2.95 -24.7,6.12 -36.7,9.77 -12.1,3.66 -23.9,7.76 -35.6,12.15 -11.6,4.39 -22.9,9.12 -34.1,14.32 -5.6,2.58 -11,5.31 -16.5,8.13 -5.4,2.79 -10.9,5.79 -16.2,8.82 -5.3,3.03 -10.5,6.26 -15.7,9.53 -5.2,3.27 -10.3,6.53 -15.3,10 -5,3.49 -9.9,7.01 -14.7,10.76 -4.9,3.71 -9.4,7.72 -14.1,11.67 -4.7,3.98 -9.4,7.96 -13.9,12.17 -4.6,4.19 -8.8,8.41 -13.1,12.86 -4.1,4.49 -8.5,9.12 -12.6,13.84 -4.2,4.72 -8,9.56 -11.9,14.55 -7.8,9.95 -15.7,19.6 -24.1,28.86 -8.4,9.27 -17.3,18.12 -26.2,26.7 -9,8.61 -18.2,16.86 -27.7,24.83 -9.5,7.92 -19.1,15.56 -29.1,22.89 -10,7.31 -20.3,14.28 -30.7,21 -10.5,6.68 -21.2,13.21 -32,19.3 -10.8,6.09 -21.7,11.67 -32.9,17.16 -11.1,5.52 -22.6,10.81 -34.1,15.77 -11.5,4.93 -23.3,9.68 -35.1,14.04 -11.7,4.4 -23.5,8.55 -35.5,12.42 -11.9,3.89 -24.1,7.39 -36.2,10.71 -12.2,3.33 -24.3,6.48 -36.5,9.33 -12.3,2.85 -24.6,5.26 -37,7.63 -12.4,2.35 -24.8,4.52 -37.2,6.42 -12.4,1.9 -24.8,3.56 -37.2,5.02 -12.4,1.48 -24.6,2.76 -37,3.83 -12.3,1.01 -24.5,1.75 -36.7,2.4 -12.2,0.6 -24.4,1.19 -36.5,1.43 -12,0.24 -24.2,0.15 -36,0 -11.9,-0.15 -23.5,-0.45 -35.1,-0.98 -11.6,-0.51 -23.3,-1.28 -34.5,-2.17 -11.4,-0.83 -22.4,-1.69 -33.5,-2.85 -10.9,-1.16 -22,-2.58 -32.6,-4.07 -10.6,-1.45 -21.1,-3 -31.3,-4.75 -10.2,-1.78 -20.1,-3.71 -29.8,-5.73 -9.7,-2.05 -19.2,-4.4 -28.4,-6.68 -9.2,-2.32 -18.2,-4.64 -27,-7.16 -8.6,-2.52 -16.9,-5.14 -25,-7.87 -8,-2.73 -15.7,-5.64 -23.1,-8.58 -7.4,-2.97 -14.6,-5.94 -21.3,-9.05 -6.6,-3.15 -12.8,-6.48 -18.8,-9.8 -5.9,-3.27 -11.5,-6.57 -16.7,-10.01 -10.3,-6.89 -21.3,-13.93 -32.4,-21.24 -11.2,-7.27 -22.8,-14.76 -34.8,-22.18 -12.1,-7.39 -24.5,-14.7 -37.5,-21.92 -12.9,-7.24 -26.5,-14.43 -40.5,-21.22 -7,-3.42 -14.1,-6.78 -21.3,-10.01 -7.2,-3.24 -14.5,-6.5 -21.9,-9.57 -7.5,-3.02 -15.2,-5.99 -22.9,-8.82 -7.7,-2.82 -15.4,-5.55 -23.4,-8.1 -8,-2.59 -16.1,-4.87 -24.3,-7.16 -8.2,-2.26 -16.7,-4.48 -25.3,-6.44 -8.5,-1.93 -17,-3.63 -25.7,-5.23 -8.8,-1.57 -17.7,-2.88 -26.8,-4.07 -9,-1.21 -18.3,-2.35 -27.6,-3.08 -9.3,-0.75 -18.8,-1.17 -28.4,-1.43 -9.6,-0.3 -19.4,-0.47 -29.3,-0.24 -9.9,0.21 -19.9,0.68 -30.1,1.43 -10.2,0.74 -20.5,1.78 -31,3.09 -10.5,1.28 -21.2,3.08 -32,4.98 -10.8,1.96 -21.6,4.13 -32.7,6.69 -11.1,2.55 -22.4,5.37 -33.8,8.58 -11.4,3.24 -22.9,6.83 -34.6,10.75 -11.7,3.92 -23.5,8.19 -35.5,12.88 -12.1,4.66 -24.4,9.57 -36.8,15.03 -12.3,5.44 -24.8,11.41 -37.4,17.64 -12.7,6.23 -25.6,12.95 -38.6,20.05 -13.1,7.06 -26.1,14.43 -39.4,22.38 -13.3,7.99 -26.9,16.43 -40.6,25.3 -13.6,8.88 -27.5,18.32 -41.5,28.15 -7,4.91 -14.1,9.54 -21,14.05 -6.9,4.55 -13.7,8.76 -20.5,12.89 -6.7,4.16 -13.5,8.17 -20.2,11.94 -6.7,3.74 -13.2,7.34 -19.8,10.72 -6.6,3.35 -13.1,6.5 -19.6,9.53 -6.4,3.06 -12.9,5.91 -19.3,8.58 -6.4,2.67 -12.8,5.29 -19.1,7.64 -6.3,2.37 -12.4,4.44 -18.6,6.44 -6.2,2.05 -12.3,3.8 -18.4,5.49 -6,1.69 -12.3,3.42 -18.3,4.78 -6,1.36 -11.7,2.47 -17.6,3.59 -6,1.07 -11.9,2.08 -17.7,2.85 -5.8,0.81 -11.7,1.23 -17.4,1.67 -5.7,0.48 -11.3,0.98 -16.9,1.21 -5.7,0.19 -11.4,0.3 -17,0.25 -5.5,-0.1 -10.9,-0.39 -16.4,-0.75 -5.5,-0.35 -10.9,-0.83 -16.2,-1.45 -5.4,-0.6 -10.9,-1.28 -16.2,-2.17 -10.6,-1.66 -21,-3.84 -31.3,-6.41 -10.3,-2.59 -20.5,-5.62 -30.5,-9.09 -10.1,-3.45 -19.9,-7.42 -29.6,-11.67 -9.8,-4.25 -19.4,-8.85 -28.9,-13.84 -9.4,-4.99 -18.9,-10.34 -28.1,-15.98 -9.2,-5.64 -18.2,-11.64 -27.2,-17.87 -8.9,-6.27 -17.7,-12.8 -26.5,-19.58 -8.7,-6.76 -17.4,-13.74 -26,-20.98 -8.5,-7.22 -16.9,-14.56 -25.3,-22.19 -8.3,-7.6 -16.4,-15.44 -24.5,-23.37 -8.1,-7.93 -16.3,-16.15 -24.3,-24.32 -15.9,-16.36 -31.5,-32.9 -46.8,-49.86 -15.3,-16.93 -30.3,-34.06 -45.1,-51.01 -14.8,-16.99 -29.5,-33.89 -43.9,-50.34 -14.4,-16.45 -28.5,-32.55 -42.6,-47.93 -7.1,-7.69 -14.3,-15.32 -21.3,-22.65 -7,-7.34 -13.8,-14.35 -20.8,-21.23 -6.9,-6.9 -14,-13.63 -20.9,-20.05 -7,-6.39 -13.9,-12.54 -20.8,-18.35 -6.9,-5.82 -14.1,-11.23 -21,-16.22 -7,-4.98 -13.8,-9.62 -20.8,-13.83 -7,-4.19 -14.2,-7.99 -21.2,-11.44 -7.1,-3.47 -14.1,-6.56 -21.3,-9.32 -7,-2.7 -14.2,-5.08 -21.4,-7.13 -7.2,-2.08 -14.4,-3.83 -21.7,-5.26 -7.3,-1.42 -14.8,-2.55 -22.2,-3.32 -7.4,-0.84 -14.9,-1.43 -22.4,-1.66 -7.5,-0.24 -15,-0.06 -22.7,0.23 -7.7,0.3 -15.3,0.66 -23.1,1.43 -7.8,0.8 -15.6,1.84 -23.6,3.09 -8,1.24 -16,2.88 -24.1,4.54 -8.2,1.66 -16.6,3.42 -24.8,5.46 -8.3,2.05 -16.6,4.31 -25.1,6.68 -17,4.82 -34.4,10.25 -52.2,16.22 -17.8,6 -36.1,12.68 -54.9,19.57 -18.8,6.89 -38.1,13.99 -57.9,21.47 -19.8,7.48 -40.1,15.32 -61.1,23.13 -20.9,7.78 -42.4,15.56 -64.6,23.37 -22.2,7.81 -45.1,15.59 -68.7,23.14 -11.8,3.8 -23.6,7.57 -35.8,11.22 -12.1,3.62 -24.4,7.01 -36.9,10.48 -12.5,3.51 -25.1,6.98 -38,10.25 -12.8,3.3 -26,6.5 -39.3,9.56 -13.3,3.03 -26.7,6.03 -40.3,8.82 -13.7,2.76 -27.7,5.37 -41.7,7.87 -7.1,1.24 -14,2.25 -21,3.09 -7,0.83 -13.8,1.48 -20.8,1.9 -6.9,0.41 -13.9,0.68 -20.8,0.71 -6.8,0.03 -13.7,-0.12 -20.5,-0.45 -6.7,-0.35 -13.5,-0.97 -20.2,-1.66 -6.8,-0.74 -13.6,-1.57 -20.3,-2.64 -6.7,-1.04 -13.2,-2.38 -19.8,-3.83 -6.6,-1.43 -13.2,-3.03 -19.8,-4.75 -6.6,-1.75 -13.1,-3.65 -19.6,-5.74 -6.4,-2.07 -12.9,-4.27 -19.3,-6.68 -6.4,-2.34 -12.7,-4.96 -19.1,-7.63 -6.3,-2.67 -12.5,-5.41 -18.8,-8.34 -6.2,-2.94 -12.4,-5.85 -18.6,-9.06 -6.2,-3.18 -12.5,-6.56 -18.6,-10.01 -12.2,-6.91 -24.1,-14.34 -36,-22.18 -11.8,-7.87 -23.5,-16.12 -35.1,-24.83 -11.5,-8.66 -22.9,-17.76 -34.1,-27.17 -11.1,-9.44 -22.3,-19.27 -33.1,-29.33 -10.8,-10.07 -21.3,-20.41 -31.7,-31 -10.5,-10.61 -20.7,-21.42 -30.8,-32.44 -10.1,-11.04 -19.9,-22.3 -29.6,-33.64 -9.6,-11.34 -19.1,-22.75 -28.4,-34.33 -9.2,-11.58 -18.1,-23.34 -26.9,-35.07 -1.9,-2.4 -3.7,-4.78 -5.3,-7.15 102,-274.39 363.6,-456.6 656.4,-457.19 224,0.18 434.5,107.31 566.4,288.34 132.9,-170.75 337.2,-270.65 553.6,-270.7 246.2,0.23 474.3,129.47 601,340.57 133.2,-153.08 326.1,-241.01 529,-241.12 200.1,0.11 390.6,85.69 523.7,235.15 126.5,-212.41 355.4,-342.62 602.7,-342.71 365.2,0.71 668.7,281.39 698.1,645.37 z" /></g><g
         transform="scale(1.31575)"
         id="g88"><path
           id="path90"
           style="fill:#ffffff;fill-opacity:1;fill-rule:nonzero;stroke:none"
           d="m 14412.5,10780.1 c -561,-0.4 -1053.7,-372.7 -1207.3,-912.26 -116.6,79.69 -254.5,122.32 -395.8,122.32 -387.4,-0.03 -701.4,-314.07 -701.5,-701.51 0,-50.74 5.6,-101.36 16.5,-150.94 -346,-48.95 -603.2,-345.09 -603.3,-694.55 0.5,-83.52 15.8,-166.29 45.4,-244.43 1.8,2.4 3.2,4.78 5.2,7.15 8.8,11.73 17.7,23.49 27,35.07 9.2,11.58 18.7,22.98 28.3,34.32 9.7,11.37 19.6,22.59 29.6,33.64 10.1,11.01 20.3,21.82 30.8,32.42 10.4,10.59 20.9,20.93 31.7,30.99 10.8,10.06 22,19.92 33.1,29.33 11.2,9.42 22.6,18.5 34.1,27.16 11.6,8.71 23.2,16.96 35.1,24.83 11.8,7.83 23.8,15.26 36,22.17 6.1,3.45 12.4,6.8 18.6,10.01 6.1,3.17 12.3,6.11 18.6,9.05 6.2,2.97 12.5,5.7 18.8,8.34 6.3,2.68 12.7,5.29 19.1,7.63 6.4,2.38 12.8,4.64 19.3,6.68 6.4,2.09 13,3.99 19.6,5.74 6.5,1.75 13.1,3.35 19.7,4.77 6.6,1.43 13.1,2.71 19.8,3.83 6.7,1.05 13.6,1.88 20.3,2.62 6.7,0.74 13.4,1.34 20.2,1.66 6.8,0.35 13.7,0.5 20.5,0.47 6.9,-0.02 13.8,-0.29 20.8,-0.74 6.9,-0.41 13.7,-1.06 20.8,-1.9 6.9,-0.83 13.9,-1.84 21,-3.09 14,-2.49 28,-5.07 41.7,-7.86 13.6,-2.76 27,-5.76 40.3,-8.82 13.2,-3.06 26.4,-6.26 39.3,-9.56 12.9,-3.27 25.4,-6.77 37.9,-10.24 12.5,-3.51 24.9,-6.86 37,-10.48 12.1,-3.65 24,-7.45 35.7,-11.22 23.6,-7.54 46.5,-15.32 68.7,-23.13 22.2,-7.81 43.7,-15.59 64.6,-23.36 21,-7.78 41.3,-15.65 61.1,-23.13 19.8,-7.49 39.1,-14.58 57.9,-21.47 18.8,-6.89 37,-13.57 54.9,-19.53 17.8,-6 35.2,-11.43 52.2,-16.25 8.5,-2.37 16.7,-4.59 25,-6.65 8.3,-2.04 16.7,-3.82 24.8,-5.48 8.1,-1.67 16.2,-3.3 24.1,-4.55 7.9,-1.24 15.8,-2.29 23.6,-3.08 7.8,-0.78 15.5,-1.16 23.1,-1.43 7.7,-0.3 15.2,-0.5 22.7,-0.24 7.5,0.24 15,0.84 22.4,1.67 7.4,0.83 14.9,1.93 22.2,3.32 7.3,1.43 14.5,3.17 21.7,5.26 7.2,2.07 14.4,4.42 21.5,7.15 7,2.7 14.1,5.82 21.2,9.29 7,3.45 14.2,7.25 21.2,11.44 7,4.21 13.8,8.84 20.8,13.83 6.9,4.98 14,10.39 21,16.21 6.9,5.82 13.8,11.96 20.7,18.34 6.9,6.42 14,13.15 21,20.05 7,6.88 13.8,13.89 20.8,21.22 7,7.33 14.1,14.96 21.2,22.65 14.1,15.41 28.3,31.48 42.7,47.92 14.4,16.48 29.1,33.34 43.9,50.32 14.8,16.95 29.7,34.08 45,51.04 15.4,16.92 30.9,33.48 46.8,49.81 8,8.17 16.2,16.39 24.3,24.32 8.1,7.93 16.3,15.76 24.5,23.36 8.3,7.64 16.8,14.97 25.3,22.18 8.5,7.24 17.3,14.22 26,20.99 8.7,6.77 17.5,13.3 26.5,19.57 9,6.23 18,12.23 27.2,17.86 9.2,5.67 18.7,10.99 28.1,15.98 9.5,4.99 19.1,9.56 28.9,13.83 9.7,4.25 19.5,8.23 29.5,11.7 10,3.44 20.2,6.44 30.6,9.06 10.3,2.58 20.6,4.75 31.2,6.44 5.3,0.83 10.8,1.54 16.2,2.17 5.4,0.59 10.8,1.09 16.2,1.42 5.5,0.33 10.9,0.65 16.5,0.75 5.5,0.05 11.3,-0.07 16.9,-0.25 5.6,-0.2 11.2,-0.7 16.9,-1.21 5.8,-0.44 11.6,-0.86 17.4,-1.67 5.9,-0.77 11.8,-1.78 17.6,-2.84 6,-1.07 11.7,-2.23 17.7,-3.6 6,-1.39 12.3,-3.08 18.4,-4.78 6,-1.72 12.1,-3.47 18.3,-5.49 6.2,-2.01 12.3,-4.1 18.6,-6.41 6.3,-2.38 12.7,-4.96 19.1,-7.66 6.3,-2.67 12.8,-5.52 19.3,-8.58 6.5,-3.03 13,-6.15 19.6,-9.53 6.6,-3.35 13.1,-6.98 19.7,-10.72 6.8,-3.74 13.5,-7.81 20.3,-11.94 6.8,-4.15 13.6,-8.33 20.5,-12.85 6.9,-4.54 14,-9.17 21,-14.07 14,-9.83 27.8,-19.27 41.5,-28.15 13.6,-8.88 27.2,-17.3 40.5,-25.26 13.4,-7.99 26.4,-15.35 39.4,-22.41 13,-7.1 26,-13.81 38.6,-20.04 12.7,-6.24 25.1,-12.2 37.4,-17.64 12.4,-5.46 24.7,-10.36 36.8,-15.02 12,-4.66 23.8,-8.96 35.5,-12.89 11.7,-3.92 23.1,-7.5 34.5,-10.71 11.4,-3.24 22.8,-6.06 33.9,-8.61 11.1,-2.53 21.9,-4.75 32.7,-6.65 10.8,-1.96 21.4,-3.71 32,-5.02 10.4,-1.34 20.8,-2.35 31,-3.09 10.2,-0.74 20.1,-1.22 30,-1.42 9.9,-0.24 19.7,-0.07 29.4,0.23 9.5,0.27 19,0.69 28.3,1.43 9.4,0.74 18.6,1.93 27.7,3.09 9,1.18 17.9,2.49 26.7,4.06 8.8,1.57 17.2,3.33 25.7,5.23 8.5,1.96 17.1,4.16 25.3,6.44 8.3,2.25 16.4,4.57 24.3,7.16 8,2.58 15.7,5.28 23.4,8.1 7.7,2.82 15.4,5.79 22.9,8.82 7.5,3.06 14.7,6.3 21.9,9.56 7.2,3.2 14.3,6.59 21.3,10.01 13.9,6.79 27.5,13.97 40.5,21.22 13,7.25 25.4,14.52 37.4,21.94 12.1,7.39 23.7,14.87 34.8,22.14 11.2,7.31 22.1,14.35 32.5,21.23 5.1,3.48 10.7,6.74 16.7,10.04 5.9,3.26 12.1,6.62 18.8,9.77 6.7,3.14 13.8,6.11 21.2,9.05 7.4,2.97 15.1,5.85 23.1,8.58 8.1,2.74 16.4,5.35 25.1,7.87 8.7,2.55 17.7,4.87 26.9,7.16 9.3,2.31 18.7,4.63 28.4,6.68 9.7,2.01 19.6,3.97 29.8,5.73 10.2,1.75 20.6,3.26 31.3,4.74 10.6,1.49 21.6,2.88 32.6,4.07 11.1,1.16 22.1,2.05 33.4,2.85 11.4,0.83 23,1.66 34.6,2.2 11.6,0.5 23.2,0.77 35.1,0.95 11.8,0.15 23.9,0.24 36,0 12,-0.21 24.2,-0.84 36.4,-1.43 12.3,-0.59 24.4,-1.34 36.8,-2.4 12.3,-1.01 24.6,-2.35 36.9,-3.83 12.4,-1.48 24.8,-3.09 37.2,-4.99 12.4,-1.9 24.8,-4.06 37.2,-6.44 12.4,-2.38 24.7,-4.78 37,-7.63 12.3,-2.88 24.3,-5.97 36.5,-9.3 12.1,-3.32 24.2,-6.88 36.2,-10.74 12,-3.86 23.7,-8.01 35.5,-12.38 11.8,-4.4 23.6,-9.15 35.1,-14.07 11.5,-4.96 22.9,-10.25 34.1,-15.73 11.1,-5.53 22,-11.11 32.9,-17.2 10.8,-6.08 21.5,-12.61 31.9,-19.29 10.4,-6.71 20.8,-13.69 30.8,-20.99 9.9,-7.31 19.6,-14.97 29.1,-22.9 9.5,-7.95 18.6,-16.2 27.6,-24.78 8.9,-8.61 17.8,-17.46 26.2,-26.72 8.4,-9.27 16.4,-18.88 24.1,-28.86 3.7,-4.99 7.8,-9.83 11.9,-14.55 4.2,-4.72 8.3,-9.35 12.7,-13.83 4.1,-4.46 8.6,-8.67 13,-12.86 4.6,-4.21 9.2,-8.22 13.9,-12.17 4.6,-3.95 9.2,-7.96 14,-11.66 4.9,-3.75 9.9,-7.25 14.8,-10.75 5,-3.45 10.1,-6.74 15.3,-10.01 5.2,-3.27 10.4,-6.5 15.7,-9.53 5.3,-3.06 10.8,-6.03 16.2,-8.82 5.5,-2.82 10.9,-5.52 16.5,-8.1 11.2,-5.23 22.5,-9.92 34.1,-14.31 11.6,-4.39 23.5,-8.52 35.5,-12.18 12.1,-3.65 24.4,-6.85 36.8,-9.76 12.3,-2.91 25,-5.61 37.6,-7.87 12.7,-2.26 25.3,-4.07 38.2,-5.73 12.8,-1.66 25.8,-2.99 38.8,-4.07 13,-1.04 26.1,-2.07 39.1,-2.61 13,-0.56 26.1,-0.89 39.1,-0.98 12.4,-0.05 24.8,0.15 37.2,0.48 2,18.67 3.2,37.47 3.7,56.26 -0.2,381.7 -305.6,693.19 -687.2,701.02 37,119.95 55.8,244.76 55.8,370.28 0,693.74 -562.4,1256.14 -1256.1,1256.14 z" /></g><path
         id="path92"
         style="fill:#e8e8e8;fill-opacity:1;fill-rule:nonzero;stroke:none"
         d="m 11289.6,11352.9 c -16.2,4.9 -32.9,9.6 -48.6,14.7 -31.1,10.1 -61.2,20.7 -89.7,31.4 -14.3,5.3 -28.2,10.5 -41.7,16 -13.5,5.4 -26.3,11 -39,16.6 -12.6,5.7 -24.8,11.5 -36.3,17.3 -11.6,5.7 -22.8,11.3 -33.3,17.2 -10.5,5.9 -20.3,11.9 -29.5,17.9 -9.2,6 -17.9,12.1 -25.8,18.2 -7.8,6.1 -15.2,12.3 -21.6,18.5 -6.4,6.2 -12.1,12.5 -17,18.8 -9.7,12.6 -20.2,25.5 -31.6,38.3 -11.5,12.9 -23.8,25.8 -36.8,38.6 -12.9,12.8 -26.4,25.4 -40.8,38 -14.3,12.5 -29.5,24.9 -45.1,37 -15.7,12 -32.1,23.9 -49,35.1 -8.4,5.6 -17,11 -25.7,16.3 -8.8,5.4 -17.7,10.6 -26.7,15.7 -8.9,5.1 -18,10 -27.3,14.8 -9.3,4.8 -18.7,9.4 -28.2,13.8 -9.5,4.4 -19.1,8.8 -28.9,12.8 -9.7,4.1 -19.6,8 -29.5,11.6 -10,3.7 -20,6.9 -30.1,10.1 -10.2,3.2 -20.5,6.4 -30.8,9.1 -10.3,2.7 -20.5,5 -31,7.2 -10.5,2.2 -21,4.3 -31.7,6 -10.7,1.7 -21.5,2.9 -32.3,4 -10.8,1.1 -21.7,2 -32.7,2.5 -10.9,0.5 -21.8,0.8 -33,0.6 -11,-0.1 -22.1,-0.7 -33.2,-1.6 -11.2,-0.8 -22.7,-1.9 -33.9,-3.4 -11.2,-1.6 -22.5,-3.4 -33.9,-5.7 -11.3,-2.2 -22.4,-4.7 -33.8,-7.8 -11.4,-3.1 -23.1,-6.5 -34.5,-10.4 -11.5,-3.8 -22.7,-8.2 -34.2,-12.8 -11.5,-4.7 -23,-9.6 -34.5,-15.1 -11.5,-5.5 -23.3,-11.8 -34.8,-18.2 -11.6,-6.4 -23.1,-13 -34.5,-20.4 -11.57,-7.3 -22.94,-14.5 -34.22,-21.3 -11.29,-6.8 -22.47,-13.2 -33.56,-19.5 -11.13,-6.2 -22.34,-12.5 -33.28,-18.2 -10.94,-5.7 -21.84,-10.8 -32.58,-16 -10.74,-5.1 -21.37,-10.1 -31.99,-14.7 -10.63,-4.6 -21.21,-8.8 -31.72,-12.8 -10.43,-4.1 -20.7,-8.1 -31.05,-11.7 -10.36,-3.5 -20.55,-6.7 -30.75,-9.7 -10.27,-3 -20.62,-5.7 -30.7,-8.1 -10.16,-2.5 -20.12,-4.7 -30.12,-6.7 -10.04,-1.9 -20.15,-3.5 -30.11,-5 -9.97,-1.4 -19.85,-2.5 -29.81,-3.5 -9.92,-0.9 -19.92,-1.5 -29.8,-1.8 -9.93,-0.4 -19.69,-0.7 -29.53,-0.6 -9.81,0.1 -19.65,0.6 -29.5,1.2 -9.84,0.7 -19.68,1.7 -29.49,2.9 -9.84,1.2 -19.69,2.4 -29.53,4 -9.81,1.7 -19.61,3.6 -29.49,5.7 -9.85,2.1 -19.61,4.6 -29.49,7.2 -9.93,2.6 -19.89,5.7 -29.81,8.8 -9.96,3.2 -20.12,6.4 -30.12,10.1 -10.04,3.6 -20.04,7.5 -30.11,11.6 -10.08,4.1 -20.28,8.2 -30.43,12.8 -10.2,4.6 -20.16,9.7 -30.39,14.8 -20.59,10.1 -41.37,20.9 -62.47,32.9 -21.05,12 -42.61,25.1 -64.29,38.9 -21.68,13.9 -43.79,28.8 -66.21,44.5 -22.39,15.8 -45.12,32.4 -68.4,50 -6.06,4.3 -11.76,8.3 -17.54,12.2 -6.06,3.8 -11.72,7.7 -17.54,11 -6.05,3.3 -11.41,6.3 -17.23,9.1 -6.09,2.7 -11.72,5.2 -17.54,7.5 -6.09,2.3 -11.71,4.4 -17.57,6.3 -6.06,1.8 -11.96,3.6 -17.89,5 -6.1,1.4 -11.68,2.5 -17.54,3.5 -6.1,0.9 -11.96,1.9 -17.85,2.5 -6.1,0.5 -11.61,0.8 -17.54,0.9 -6.1,0.1 -11.92,0.2 -17.93,0 -11.96,-0.5 -24.03,-1.6 -36.06,-3.5 -12.03,-1.9 -24.22,-4.4 -36.44,-7.5 -12.11,-3.2 -24.38,-7 -36.72,-11.3 -12.27,-4.2 -24.57,-8.9 -37.03,-14.1 -12.46,-5.3 -24.77,-11.2 -37.35,-17.3 -12.54,-6.1 -25.23,-12.6 -37.93,-19.4 -12.73,-6.9 -25.7,-14 -38.63,-21.4 -25.78,-14.7 -51.84,-30.5 -78.4,-46.7 -26.6,-16.3 -53.79,-33 -81.29,-49.6 -27.5,-16.5 -55.31,-32.9 -83.75,-48.6 -14.22,-7.9 -28.79,-15.5 -43.28,-22.9 -14.53,-7.5 -29.14,-14.5 -43.9,-21.4 -14.73,-6.8 -29.5,-13.6 -44.58,-19.7 -15.03,-6.2 -30.39,-11.9 -45.74,-17.2 -15.39,-5.4 -30.78,-10.2 -46.44,-14.5 -15.67,-4.3 -31.72,-8.1 -47.74,-11.3 -16.01,-3.2 -31.95,-5.9 -48.32,-7.8 -8.2,-1 -16.52,-1.9 -24.76,-2.5 -8.28,-0.6 -16.45,-1 -24.77,-1.3 -8.4,-0.3 -17.03,-0.4 -25.47,-0.3 -8.43,0.1 -16.87,0.4 -25.43,0.9 -8.55,0.5 -17.11,1.3 -25.74,2.2 -8.59,0.9 -17.3,2.1 -26.01,3.5 -8.75,1.3 -17.58,2.9 -26.37,4.7 -8.79,1.8 -17.42,3.7 -26.37,5.9 -8.91,2.3 -17.97,4.8 -26.95,7.6 -9.03,2.7 -18.13,5.8 -27.31,9.1 -9.1,3.2 -18.4,6.5 -27.61,10.3 -9.22,3.8 -18.29,7.9 -27.62,12.2 -9.38,4.3 -18.83,9 -28.24,13.9 -9.42,4.8 -18.99,9.9 -28.52,15.3 -9.53,5.5 -18.91,10.6 -28.24,15.4 -9.42,4.8 -18.71,9.3 -27.93,13.5 -9.22,4.1 -18.52,7.7 -27.62,11.3 -9.06,3.5 -18.04,7 -26.95,10 -8.95,3 -17.54,5.5 -26.37,7.9 -8.79,2.3 -17.73,4.4 -26.33,6.2 -8.71,1.9 -17.18,3.4 -25.74,4.8 -8.51,1.3 -16.99,2.6 -25.43,3.4 -8.4,0.9 -16.52,1.5 -24.8,1.9 -8.25,0.4 -16.6,0.4 -24.77,0.3 -8.12,-0.1 -16.13,-0.4 -24.14,-0.9 -8.01,-0.5 -15.9,-1.2 -23.87,-2.2 -7.89,-0.9 -16.01,-1.8 -23.86,-3.1 -7.82,-1.3 -15.47,-2.8 -23.21,-4.4 -15.39,-3.3 -30.7,-7.3 -45.74,-11.9 -15.08,-4.6 -29.84,-10 -44.57,-15.7 -14.69,-5.7 -29.22,-11.9 -43.59,-18.5 -14.38,-6.6 -28.83,-13.7 -42.97,-21 -14.18,-7.4 -28.13,-15 -42.11,-23 -13.87,-7.9 -27.66,-16.1 -41.37,-24.4 -13.75,-8.3 -27.54,-16.9 -41.13,-25.4 -27.11,-17 -53.83,-34.1 -80.63,-50.9 -13.36,-8.3 -26.83,-16.4 -40.11,-24.4 -13.36,-8 -26.84,-15.8 -40.12,-23.3 -13.36,-7.4 -26.49,-14.6 -39.84,-21.3 -13.36,-6.7 -26.72,-12.9 -40.12,-18.8 -13.44,-5.8 -26.95,-11.3 -40.51,-16 -13.55,-4.7 -27.15,-8.8 -40.78,-12.2 -6.8,-1.8 -13.87,-3.4 -20.7,-4.8 -6.88,-1.3 -13.79,-2.7 -20.71,-3.7 -6.91,-1.1 -13.75,-1.6 -20.7,-2.2 -6.99,-0.6 -13.98,-1.1 -21.02,-1.3 -7.03,-0.2 -13.94,-0.2 -21.01,0 -7.11,0.3 -14.18,0.9 -21.29,1.6 -7.19,0.7 -14.45,1.6 -21.68,2.8 -7.23,1.3 -14.69,2.7 -21.99,4.4 -7.27,1.7 -14.57,3.7 -21.96,6 -7.34,2.2 -14.84,4.7 -22.3,7.5 -7.46,2.8 -14.73,6 -22.27,9.4 -7.53,3.4 -15.23,7 -22.89,11 -7.65,4 -15.19,8.5 -22.89,13.2 -7.69,4.6 -15.74,9.4 -23.55,14.7 -7.85,5.3 -15.59,11 -23.56,16.9 -7.96,6 -16.09,12.2 -24.18,18.9 -8.04,6.6 -15.93,13.6 -24.14,21 -8.2,7.4 -16.52,15.1 -24.76,23.2 -8.28,8.1 -16.72,16.5 -25.08,25.4 -8.4,8.9 -16.88,18.3 -25.39,27.9 -8.56,9.7 -17.66,18.8 -27.31,27.7 -9.64,8.8 -19.72,17.3 -30.43,25.3 -10.66,8.1 -21.83,15.7 -33.55,23 -11.72,7.2 -23.98,14.2 -36.76,20.7 -12.65,6.5 -25.86,12.7 -39.49,18.5 -13.67,5.7 -27.81,11.2 -42.38,16.3 -14.57,5.1 -29.46,9.7 -44.89,14.1 -15.43,4.4 -31.44,8.5 -47.69,12.3 -16.29,3.7 -32.85,7.2 -49.92,10.3 -17.07,3.1 -34.61,5.7 -52.39,8.2 -17.81,2.4 -35.78,4.7 -54.29,6.5 -18.52,1.9 -37.31,3.2 -56.45,4.4 -19.18,1.3 -38.55,2.4 -58.36,3.2 -19.76,0.6 -40.11,1.1 -60.5,1.3 -20.4,0.1 -40.86,0 -61.8,-0.4 -20.94,-0.4 -42.27,-1 -63.71,-1.9 -21.41,-0.8 -43.05,-2.1 -64.92,-3.4 -21.92,-1.3 -44.15,-2.9 -66.53,-4.7 -22.34,-1.9 -45,-3.7 -67.77,-6 -22.74,-2.2 -45.59,-4.5 -68.71,-7.2 -46.17,-5.3 -93.13,-11.7 -140.55,-18.5 -47.38,-6.8 -95.39,-14.4 -143.67,-22.6 -48.28,-8.2 -97.03,-17 -145.9,-26.4 -48.87,-9.4 -97.7,-19.4 -146.8,-29.8 -49.14,-10.4 -98.43,-21.3 -147.46,-32.6 -0.62,-0.1 -1.21,-0.2 -1.83,-0.3 197.46,-201.4 492.22,-336.9 813.2,-373.7 77.66,-8.6 155.74,-11.3 233.09,-8.1 187.14,-553.1 835.66,-939.2 1578.04,-939.6 624.57,0.2 1194.18,274.9 1467.03,707.4 128.56,-71.3 284.3,-109.7 444.22,-109.8 228.36,0.2 444.14,78.5 585.74,212.7 234.65,-145.2 543.25,-208.8 855.25,-176.3 348.7,36.8 666.2,189.8 863.4,416.3 z" /><path
         id="path94"
         style="fill:#ffffff;fill-opacity:1;fill-rule:nonzero;stroke:none"
         d="m 8029.96,14067.3 c -304.8,10.5 -609.49,-139.2 -847.69,-416.7 -179.85,118.4 -399.18,195.5 -629.65,221.5 -305.55,34.5 -608.83,-23.5 -843.09,-161 -234.3,-137.5 -380.43,-343.3 -406.21,-572.2 -5.35,-50.8 -4.77,-102.1 1.84,-153.4 -578.95,7.7 -1048.05,-309.7 -1097.11,-742.3 -23.71,-217 62.54,-438.1 241.56,-619.3 0.62,0.2 1.21,0.2 1.84,0.3 49.06,11.3 98.35,22.2 147.46,32.7 49.1,10.4 97.97,20.4 146.79,29.8 48.87,9.4 97.62,18.1 145.9,26.3 48.28,8.2 96.29,15.8 143.67,22.6 47.43,6.9 94.34,13.2 140.59,18.5 23.12,2.7 45.94,5 68.67,7.2 22.77,2.3 45.43,4.2 67.77,6 22.35,1.8 44.58,3.3 66.53,4.7 21.91,1.4 43.47,2.6 64.92,3.5 21.45,0.8 42.73,1.5 63.71,1.8 20.94,0.4 41.41,0.5 61.8,0.4 20.39,-0.2 40.74,-0.6 60.51,-1.3 19.8,-0.7 39.21,-1.9 58.35,-3.2 19.18,-1.3 38.01,-2.5 56.45,-4.3 18.52,-1.8 36.52,-4.2 54.3,-6.6 17.77,-2.5 35.31,-5.1 52.38,-8.2 17.07,-3.1 33.63,-6.6 49.92,-10.3 16.25,-3.7 32.31,-7.9 47.7,-12.3 15.43,-4.3 30.31,-9 44.88,-14.1 14.57,-5.1 28.71,-10.5 42.38,-16.3 13.64,-5.7 26.84,-12 39.49,-18.5 12.7,-6.5 25.04,-13.4 36.76,-20.7 11.72,-7.3 22.89,-14.9 33.56,-22.9 10.7,-8.1 20.78,-16.6 30.43,-25.4 9.65,-8.9 18.75,-18 27.3,-27.6 8.56,-9.7 16.99,-19.1 25.39,-27.9 8.44,-8.9 16.8,-17.4 25.08,-25.5 8.24,-8.1 16.64,-15.8 24.77,-23.2 8.12,-7.4 16.09,-14.4 24.14,-21 8.08,-6.6 16.21,-12.8 24.18,-18.8 7.97,-6 15.66,-11.7 23.55,-16.9 7.85,-5.4 15.78,-10.2 23.56,-14.8 7.69,-4.6 15.23,-9.2 22.89,-13.2 7.65,-4 15.35,-7.6 22.89,-10.9 7.54,-3.4 14.8,-6.7 22.26,-9.5 7.46,-2.8 14.96,-5.3 22.31,-7.5 7.34,-2.3 14.69,-4.3 21.95,-5.9 7.31,-1.8 14.77,-3.2 21.99,-4.4 7.23,-1.2 14.49,-2.2 21.68,-2.9 7.15,-0.7 14.26,-1.3 21.29,-1.6 7.11,-0.2 13.99,-0.1 21.02,0 7.03,0.2 14.02,0.7 21.01,1.3 6.99,0.6 13.79,1.2 20.71,2.2 6.91,1 13.82,2.4 20.7,3.8 6.84,1.4 13.91,2.9 20.7,4.7 13.64,3.5 27.27,7.5 40.78,12.3 13.56,4.7 27.07,10.1 40.51,15.9 13.4,5.9 26.76,12.1 40.12,18.9 13.36,6.7 26.52,13.9 39.84,21.3 13.36,7.4 26.84,15.2 40.12,23.2 13.36,8 26.76,16.1 40.12,24.5 26.79,16.7 53.51,33.8 80.62,50.8 13.63,8.5 27.38,17.1 41.13,25.4 13.72,8.3 27.5,16.6 41.41,24.5 13.87,7.9 27.85,15.5 42.07,22.9 14.14,7.4 28.52,14.4 42.97,21 14.45,6.6 28.91,12.8 43.59,18.5 14.69,5.7 29.5,11.1 44.57,15.7 15.04,4.6 30.36,8.6 45.75,11.9 7.73,1.7 15.43,3.1 23.2,4.4 7.85,1.3 15.9,2.3 23.87,3.2 7.89,0.9 15.78,1.7 23.86,2.2 8.01,0.5 16.02,0.8 24.14,0.8 8.17,0.1 16.53,0.1 24.77,-0.3 8.28,-0.3 16.41,-1 24.8,-1.8 8.36,-0.9 16.88,-2.2 25.43,-3.5 8.48,-1.4 17.04,-2.9 25.75,-4.7 8.67,-1.8 17.54,-3.9 26.32,-6.3 8.83,-2.4 17.43,-4.9 26.37,-7.9 8.91,-2.9 17.89,-6.4 26.95,-10 9.03,-3.5 18.4,-7.1 27.62,-11.3 9.22,-4.1 18.52,-8.7 27.93,-13.5 9.42,-4.8 18.71,-9.9 28.24,-15.3 9.53,-5.5 19.11,-10.5 28.52,-15.4 9.41,-4.9 18.87,-9.5 28.24,-13.8 9.34,-4.3 18.4,-8.5 27.62,-12.2 9.22,-3.8 18.44,-7.2 27.62,-10.4 9.1,-3.3 18.28,-6.4 27.3,-9.1 8.99,-2.7 18.05,-5.3 26.99,-7.5 8.91,-2.3 17.54,-4.2 26.33,-6 8.79,-1.8 17.62,-3.3 26.37,-4.7 8.71,-1.4 17.42,-2.6 26.01,-3.5 8.64,-0.9 17.19,-1.7 25.75,-2.2 8.55,-0.5 16.99,-0.8 25.43,-0.9 8.47,-0.1 17.07,0.1 25.46,0.3 8.32,0.3 16.49,0.6 24.77,1.3 8.24,0.6 16.64,1.5 24.77,2.5 16.32,1.9 32.3,4.6 48.32,7.9 16.01,3.2 31.99,6.9 47.73,11.2 15.66,4.3 31.06,9.1 46.45,14.5 15.35,5.3 30.7,11 45.74,17.2 15.08,6.2 29.76,12.9 44.57,19.8 14.76,6.9 29.45,13.9 43.9,21.3 14.5,7.5 29.07,15.1 43.29,22.9 28.47,15.7 56.28,32.1 83.75,48.7 27.5,16.5 54.64,33.3 81.28,49.5 26.57,16.2 52.62,32 78.4,46.8 12.97,7.4 25.9,14.5 38.64,21.3 12.73,6.8 25.39,13.3 37.93,19.4 12.57,6.2 24.92,12 37.34,17.3 12.46,5.3 24.77,9.9 37.03,14.1 12.27,4.3 24.53,8.2 36.72,11.3 12.15,3.2 24.37,5.7 36.44,7.5 12.04,1.9 24.11,3.1 36.06,3.5 6.09,0.2 11.95,0.2 17.93,0 6.05,-0.1 11.64,-0.4 17.54,-0.9 6.05,-0.6 11.95,-1.5 17.85,-2.5 6.05,-1 11.64,-2.1 17.54,-3.5 6.05,-1.4 12.03,-3.1 17.89,-5 6.09,-1.9 11.72,-3.9 17.58,-6.3 6.05,-2.3 11.72,-4.7 17.54,-7.5 6.05,-2.8 11.4,-5.8 17.22,-9.1 6.1,-3.3 11.72,-7.1 17.54,-11 6.1,-3.8 11.8,-7.8 17.54,-12.2 23.28,-17.5 45.98,-34.2 68.4,-49.9 22.42,-15.7 44.49,-30.7 66.21,-44.6 21.68,-13.8 43.2,-26.8 64.3,-38.8 21.09,-12.1 41.91,-22.9 62.46,-33 10.23,-5 20.27,-10.1 30.39,-14.7 10.19,-4.7 20.35,-8.8 30.43,-12.9 10.08,-4.1 20.08,-8 30.12,-11.6 10,-3.7 20.15,-6.9 30.11,-10 9.96,-3.2 19.89,-6.2 29.81,-8.8 9.88,-2.7 19.65,-5.2 29.49,-7.3 9.84,-2.1 19.69,-4 29.49,-5.6 9.85,-1.7 19.69,-2.9 29.53,-4.1 9.85,-1.1 19.65,-2.2 29.5,-2.8 9.84,-0.7 19.68,-1.2 29.49,-1.3 9.84,-0.1 19.61,0.3 29.53,0.6 9.88,0.4 19.92,1 29.8,1.9 9.89,0.9 19.85,2 29.81,3.4 9.96,1.5 20.08,3.1 30.12,5.1 10,1.9 19.96,4.1 30.11,6.6 10.12,2.5 20.51,5.2 30.71,8.1 10.27,3 20.39,6.2 30.74,9.7 10.31,3.6 20.54,7.6 31.05,11.7 10.51,4 21.1,8.2 31.72,12.8 10.63,4.7 21.25,9.7 31.99,14.8 10.75,5.1 21.64,10.3 32.58,16 10.94,5.7 22.19,11.9 33.28,18.2 11.1,6.2 22.27,12.6 33.56,19.4 11.29,6.8 22.65,14 34.14,21.4 11.6,7.3 23,13.9 34.5,20.4 11.5,6.4 23.4,12.6 34.9,18.2 11.5,5.5 23,10.3 34.5,15 11.5,4.7 22.7,9 34.1,12.9 11.5,3.8 23.2,7.3 34.5,10.3 11.4,3.1 22.5,5.6 33.9,7.9 11.4,2.2 22.7,4.1 33.9,5.6 11.2,1.5 22.7,2.6 33.9,3.4 11.2,0.9 22.2,1.5 33.2,1.7 11.1,0.1 22,-0.2 33,-0.7 10.9,-0.4 21.9,-1.3 32.6,-2.4 10.9,-1.1 21.7,-2.5 32.4,-4.1 10.6,-1.7 21.2,-3.8 31.6,-6 10.5,-2.2 20.7,-4.5 31.1,-7.2 10.3,-2.7 20.6,-5.9 30.8,-9.1 10.1,-3.2 20.1,-6.4 30,-10 10,-3.7 19.8,-7.6 29.6,-11.6 9.7,-4.1 19.4,-8.5 28.9,-12.9 9.4,-4.4 19,-9 28.2,-13.8 9.2,-4.8 18.3,-9.7 27.3,-14.7 9,-5.2 18,-10.4 26.7,-15.7 8.7,-5.4 17.3,-10.8 25.7,-16.3 16.9,-11.3 33.3,-23.2 49,-35.2 15.6,-12 30.7,-24.5 45.1,-37 14.4,-12.6 27.9,-25.1 40.8,-38 12.9,-12.8 25.3,-25.7 36.8,-38.5 11.4,-12.9 21.9,-25.7 31.6,-38.3 4.9,-6.4 10.5,-12.7 17,-18.9 6.4,-6.2 13.7,-12.4 21.6,-18.5 7.9,-6.1 16.5,-12.2 25.8,-18.2 9.2,-6 19,-12 29.5,-17.9 10.4,-5.8 21.7,-11.5 33.2,-17.2 11.6,-5.8 23.9,-11.6 36.4,-17.3 12.7,-5.6 25.4,-11.1 38.9,-16.6 13.5,-5.5 27.5,-10.7 41.7,-16 28.6,-10.7 58.7,-21.3 89.8,-31.4 15.7,-5.1 32.4,-9.8 48.6,-14.7 149.1,170.4 219.5,370.6 199.5,567.5 -39.8,379.3 -405.3,679.7 -901,740.4 -105.4,381.1 -525.4,681.3 -1033.74,738.5 -210.51,23.5 -421.76,3.4 -610.82,-58.3 -167.11,406.9 -474.57,672.9 -831.41,719.4 -27.15,3.6 -54.45,5.9 -81.87,6.9 z" /></g></g></svg>