<?xml version="1.0" encoding="UTF-8" standalone="no"?>
<svg
   xmlns:dc="http://purl.org/dc/elements/1.1/"
   xmlns:cc="http://creativecommons.org/ns#"
   xmlns:rdf="http://www.w3.org/1999/02/22-rdf-syntax-ns#"
   xmlns:svg="http://www.w3.org/2000/svg"
   xmlns="http://www.w3.org/2000/svg"
   viewBox="0 0 6541.1733 6541.1733"
   height="6541.1733"
   width="6541.1733"
   xml:space="preserve"
   id="svg2"
   version="1.1"><metadata
     id="metadata8"><rdf:RDF><cc:Work
         rdf:about=""><dc:format>image/svg+xml</dc:format><dc:type
           rdf:resource="http://purl.org/dc/dcmitype/StillImage" /></cc:Work></rdf:RDF></metadata><defs
     id="defs6" /><g
     transform="matrix(1.3333333,0,0,-1.3333333,0,6541.1733)"
     id="g10"><g
       transform="scale(0.1)"
       id="g12"><g
         transform="scale(3.00974)"
         id="g14"></g><g
         transform="scale(1.56691)"
         id="g18"><path
           id="path20"
           style="fill:#e94e1d;fill-opacity:1;fill-rule:nonzero;stroke:none"
           d="m 14374.9,14616.8 c 26.3,-161.4 136.4,-559.3 585.3,-627.3 271.7,-41.3 554.9,9.6 798.5,106.5 233.2,92.9 428.7,227.1 541.3,362.1 -452.7,-1.8 -1162.7,44.4 -1925.1,158.6 v 0.1" /></g><g
         transform="scale(1.44675)"
         id="g22"><path
           id="path24"
           style="fill:#e94e1d;fill-opacity:1;fill-rule:nonzero;stroke:none"
           d="m 13533.8,16300 c 55.2,-198.9 227.1,-640 698.9,-850.5 64.9,-28.9 128.7,-50.7 191,-66.2 235.6,-58.5 448.8,-25.1 619.8,60.6 170,85.2 298.4,222 364.9,371.2 5.6,12.6 10.8,25.3 15.5,38 -637.9,101.6 -1301.5,247.3 -1890.1,446.8 v 0.1" /></g><g
         transform="scale(1.71448)"
         id="g26"><path
           id="path28"
           style="fill:#ffffff;fill-opacity:1;fill-rule:nonzero;stroke:none"
           d="m 10629.3,14099 c 48.5,-247.4 220.1,-867.7 741.9,-1066.2 15.3,18.4 24.8,27.5 24.9,27.6 19.8,19.3 51.6,18.9 70.9,-0.9 19.3,-19.9 18.8,-51.6 -1,-70.9 -0.1,-0.2 -13.9,-13.4 -34.9,-40.7 -1.8,-3.1 -3.9,-6 -6.3,-8.5 -60,-81.3 -167.1,-266.1 -192.1,-575.5 125.6,-113.1 171.2,-239.2 171.5,-239.9 9.7,-26 -3.6,-54.9 -29.6,-64.6 -26.1,-9.6 -55,3.6 -64.7,29.7 -0.2,0.6 -41.3,114 -157.2,211.6 -2.7,1.9 -5.2,3.9 -7.5,6.3 -95.2,77.5 -238.7,143 -447.9,131.1 -81.8,-4.6 -150,-58.3 -204.1,-143.6 -56.2,-88.7 -96.7,-210.2 -121.2,-347.9 -24.9,-140.4 -33,-296.5 -24.2,-451.3 20.4,-357.6 129.8,-706.9 329.6,-833.5 266.4,-168.8 522.6,-100.8 691.6,-13.1 3.5,2.4 7.2,4.4 11.2,5.9 116.7,62.6 189,132.5 189.5,133 20,19.2 51.8,18.6 70.9,-1.4 19.2,-19.9 18.6,-51.7 -1.4,-70.9 -0.5,-0.5 -72.6,-70.2 -190.9,-137.1 11.4,-261.2 238.2,-441.7 586.9,-570.6 377.2,-139.45 893.1,-217.61 1437.1,-271.03 591.9,-58.15 1240.8,3.32 1727.1,226.25 394.5,180.68 680.9,468.38 738.1,885.18 126.5,923.3 -279.1,1365.6 -294.8,1382.4 l -4.2,5.1 c -16.4,22.3 -11.5,53.7 10.8,70.1 196.9,144.2 357,336.3 469,538.3 l 0.5,1 0.6,1.1 0.1,0.2 c 33.1,59.8 62,120.4 86.3,181 39.2,97.6 66.5,194.6 80.8,286.7 0.2,2.1 0.5,4.2 1,6.2 9.1,61.2 12.4,120.3 9.5,175.9 -7,134.6 -50.6,248.1 -136.2,321.2 -51.7,44 -119.6,74.2 -205.1,86.2 -603.6,84.9 -897.1,-613.5 -914,-655.2 l -0.5,-1.2 -0.1,-0.2 -0.2,-0.6 -0.4,-1 -0.3,-0.5 -0.2,-0.4 -0.3,-0.8 -0.1,-0.1 -0.4,-0.9 -0.1,-0.2 -0.4,-0.7 -0.2,-0.4 -0.3,-0.5 -0.3,-0.6 -0.2,-0.3 -0.5,-0.8 c -95.1,-165.3 -320.8,-338.9 -598.1,-449.3 -237.7,-94.7 -514.8,-144.2 -781.6,-103.7 -395.6,59.9 -542.4,359.1 -596.5,555.1 -70.1,-120.7 -181.5,-228 -322.1,-298.6 -164.1,-82.2 -367.8,-114.5 -591.7,-58.9 -58,14.4 -117.5,34.9 -178,61.9 -499.1,222.5 -635.1,722.7 -662,848.6 -247.2,89.2 -476.8,190.4 -678,304.9 v 0" /></g><g
         transform="scale(1.91021)"
         id="g30"><path
           id="path32"
           style="fill:#ffffff;fill-opacity:1;fill-rule:nonzero;stroke:none"
           d="m 14292.8,9402.14 c 528.5,-290.65 946.4,-315.62 1257.4,-189.09 185.5,75.49 333.7,205.05 445.1,364.15 112.4,160.5 187.6,351.32 226,547.6 78.7,401.8 3.1,823.2 -222.5,1048.9 -591.6,591.6 -1347.1,339.9 -1460.7,297.4 -98.7,-174.2 -235.1,-339.9 -401.1,-470.2 93.8,-122.5 357.4,-541.6 256.7,-1276.39 -16.2,-118 -50.8,-225.27 -100.9,-322.37 v 0" /></g><g
         transform="scale(2.4411)"
         id="g34"><path
           id="path36"
           style="fill:#ffffff;fill-opacity:1;fill-rule:nonzero;stroke:none"
           d="m 12178.1,10738.7 c -6.1,18.4 3.8,38.4 22.2,44.6 18.5,6.1 38.4,-3.8 44.6,-22.2 0.6,-1.8 98.8,-306.5 365.5,-653.1 3.5,-3 6.3,-6.6 8.2,-10.6 263.9,-339.33 689.2,-716.05 1342.4,-886.87 235.6,-61.61 458.5,-101.19 666.1,-120.15 442.3,-40.48 815.5,12 1095.4,142.68 275.7,128.75 460.5,333.94 530.4,601.04 13,49.94 22.1,101.96 27,155.95 2.1,22.65 3.7,45.55 4.7,68.55 15.4,347.9 -102.3,619.7 -313.1,812.3 l -1.8,1.7 c -212.6,193.4 -520,308.1 -882,341.3 -36.3,3.3 -73.6,5.8 -111.9,7.5 -186.8,8.3 -346.8,4.2 -488.3,0.6 -494.6,-12.7 -771,-19.7 -1173.5,499 -250.2,322.5 -485.6,549.2 -735.7,674.5 -247.5,124.1 -511.3,149.3 -821.4,70.4 -16.9,-4.2 -34,4.4 -40.9,19.8 -11.6,24.1 -271.6,541 -1322,726.9 -1080.65,191.3 -1705.86,-131.6 -1707.7,-132.5 -12.38,-6.2 -26.71,-4.4 -37.08,3.5 -0.53,0.3 -178.97,142.9 -622.79,110.2 -209.54,-15.5 -447.5,-187.8 -708.37,-376.7 -289.87,-209.8 -607.27,-439.7 -957.81,-508.7 -245.5,-48.3 -485.27,-8.6 -734.17,32.7 -424.81,70.4 -877.19,145.3 -1417.28,-225.4 -187.15,-128.5 -304.28,-292.5 -359.57,-470 -57.62,-185.1 -48.37,-385.6 18.5,-576.6 67.34,-192.5 192.92,-375.3 367.37,-523.8 231.46,-196.8 548.89,-333.1 930.77,-351 1133.59,-53.2 1648.32,326 1735.25,397.9 -101.68,800.5 492.68,1513 494.36,1515.1 12.42,14.9 34.66,17 49.69,4.6 15,-12.4 17.09,-34.6 4.67,-49.6 -1.67,-2 -585.59,-702 -476.54,-1479 v -0.1 l 0.04,-0.5 0.08,-0.3 c 32.53,-230.1 205.11,-421.6 459.88,-579.6 2.66,-1.2 5.16,-2.8 7.41,-4.55 155.09,-95.25 340.13,-178.2 542.25,-250.06 l 2.34,-0.82 13.64,-4.83 c 367.5,-129 788.91,-221.09 1190.7,-283.4 l 0.16,-0.04 h 0.08 0.08 l 0.33,-0.04 h 0.16 l 0.29,-0.04 h 0.04 l 0.17,-0.04 0.32,-0.04 h 0.17 0.16 l 0.04,-0.04 h 0.13 l 0.16,-0.04 0.49,-0.04 0.08,-0.04 h 0.08 l 0.78,-0.17 h 0.04 l 1.4,-0.28 c 527.59,-81.53 1020.8,-111.8 1313,-107.01 46.9,103.56 273.5,544.64 708.3,483.43 74.1,-10.4 133.9,-37.32 180.2,-76.85 75.9,-64.68 114.3,-161.93 120.2,-275.49 1.6,-29.94 0.9,-61.04 -2,-92.99 539.7,89.84 945.2,583.55 1028.4,691.78 -265.8,350.6 -364.1,655.8 -364.7,657.5 h -0.1" /></g><g
         transform="scale(2.45179)"
         id="g38"><path
           id="path40"
           style="fill:#4e312e;fill-opacity:1;fill-rule:nonzero;stroke:none"
           d="m 12125,10691.9 c -6.1,18.3 3.8,38.2 22.1,44.4 18.4,6.1 38.3,-3.8 44.4,-22.1 1.2,-3.5 385.7,-1197.83 1708.7,-1543.82 234.5,-61.34 456.4,-100.74 663.2,-119.63 440.3,-40.29 811.9,11.95 1090.6,142.06 274.5,128.19 458.5,332.49 528,598.42 13,49.72 22.1,101.52 27,155.28 2,22.55 3.6,45.31 4.6,68.19 15.4,346.4 -101.8,617 -311.8,808.8 l -1.7,1.8 c -211.7,192.4 -517.7,306.7 -878.2,339.7 -36.1,3.3 -73.2,5.8 -111.4,7.5 -186,8.2 -345.2,4.1 -486.1,0.5 -492.5,-12.5 -767.7,-19.6 -1168.4,496.9 -249.2,321.1 -483.5,546.8 -732.5,671.6 -246.4,123.5 -509.1,148.6 -817.9,70.1 -16.7,-4.2 -33.8,4.4 -40.7,19.7 -11.6,24 -270.3,538.6 -1316.2,723.7 -1075.95,190.5 -1698.43,-131.1 -1700.27,-132 -12.31,-6.1 -26.59,-4.3 -36.91,3.5 -0.53,0.4 -178.2,142.4 -620.08,109.8 -208.62,-15.5 -445.55,-187 -705.28,-375.1 -288.61,-208.9 -604.62,-437.7 -953.63,-506.4 -244.44,-48.1 -483.16,-8.6 -730.98,32.5 -422.96,70.1 -873.36,144.7 -1411.09,-224.5 -186.34,-127.9 -302.96,-291.1 -358.01,-467.9 -57.37,-184.2 -48.15,-383.8 18.43,-574.1 67.04,-191.6 192.07,-373.7 365.76,-521.4 230.45,-196.1 546.5,-331.7 926.72,-349.6 1244.23,-58.3 1739.63,406.5 1741.09,407.8 14.24,13.1 36.47,12.2 49.56,-2 13.13,-14.3 12.19,-36.5 -2.04,-49.6 -1.55,-1.4 -518.15,-485.9 -1791.63,-426.2 -396.86,18.6 -727.43,160.8 -969.01,366.3 -183.45,156.1 -315.64,348.7 -386.66,551.6 -71.49,204.3 -81.2,419.2 -19.25,618.1 59.56,191.3 185.16,367.5 385.51,505 560.82,385 1025.5,308.1 1461.88,235.7 241.41,-40 473.98,-78.5 706.26,-32.8 333.8,65.7 643.29,289.8 925.9,494.4 268.21,194.2 512.81,371.3 741.54,388.2 388.08,28.7 590.87,-74.9 649.4,-111.6 113.06,51.8 733.51,305 1724.89,129.5 967.2,-171.2 1288.5,-625.9 1354.1,-737.9 314.6,74.7 584.9,45.7 839.9,-82.1 259.4,-130.1 501.2,-362.2 756.7,-691.4 378.9,-488.4 641.4,-481.7 1111.3,-469.7 142.3,3.6 303,7.8 490.8,-0.6 38.2,-1.6 76.5,-4.2 114.6,-7.7 375.4,-34.3 695.4,-154.6 918.8,-357.5 l 2.1,-1.8 c 225.2,-205.8 350.9,-494.8 334.6,-863.8 -1,-22.98 -2.7,-46.84 -4.9,-71.51 -5.3,-57.84 -15,-113.39 -28.9,-166.54 -75.1,-287.09 -272.4,-507.02 -566.2,-644.26 -289.7,-135.33 -673.7,-189.86 -1126.6,-148.38 -210.7,19.25 -436.4,59.26 -674.5,121.54 -1360.3,355.74 -1756.3,1585.85 -1757.5,1589.35 h -0.1" /></g><g
         transform="scale(1.32213)"
         id="g42"><path
           id="path44"
           style="fill:#4e312e;fill-opacity:1;fill-rule:nonzero;stroke:none"
           d="m 14788.5,15722 c 12.5,-33.8 -4.7,-71.3 -38.4,-83.8 -33.8,-12.6 -71.3,4.7 -83.9,38.4 -0.5,1.4 -176.6,487.9 -794.3,452.6 -106.1,-6 -194.7,-75.6 -264.7,-186.3 -73,-114.9 -125.5,-272.6 -157.1,-451.1 -32.4,-182 -42.9,-384.4 -31.5,-585.2 26.5,-463.7 168.2,-916.6 427.5,-1080.9 597.4,-378.5 1155.5,161.7 1157.1,163.2 25.9,24.9 67,24 91.9,-1.8 24.9,-25.9 24.1,-67.1 -1.8,-92 -1.7,-1.7 -633.1,-612.8 -1317,-179.4 -297.7,188.5 -459,683 -487.6,1183.8 -12.1,211.1 -1,423.7 32.9,614.8 34.7,194.7 93.2,368.6 175.4,498.4 92.4,145.8 214.8,237.7 367.7,246.5 714.4,40.8 923.2,-535.6 923.8,-537.2 v 0" /></g><g
         transform="scale(1.72557)"
         id="g46"><path
           id="path48"
           style="fill:#4e312e;fill-opacity:1;fill-rule:nonzero;stroke:none"
           d="m 14944.3,13161 c -10.3,-25.5 -39.4,-37.8 -64.9,-27.5 -25.6,10.3 -37.9,39.5 -27.6,65 1,2.3 319.9,812.2 1015.2,714.3 104.8,-14.7 189.3,-52.7 254.9,-108.7 107.3,-91.5 161.7,-229.1 170.1,-389.8 8,-154.3 -26.7,-331 -97.8,-507.9 -106.5,-265.1 -295.4,-532.9 -544.5,-728.3 103.8,-135.7 395.7,-599.6 284.2,-1413 -62.2,-453.1 -368.9,-763.5 -790.7,-956.87 -500,-229.14 -1163.5,-292.6 -1767.2,-233.37 -548.2,53.84 -1068.9,132.94 -1452.5,274.75 -399.4,147.66 -654.1,364.09 -648.7,690.69 0.4,27.5 23,49.4 50.5,49 27.5,-0.5 49.4,-23.1 49,-50.6 -4.5,-275 224.6,-462.7 583.6,-595.38 374.8,-138.56 887.3,-216.22 1427.9,-269.36 588,-57.72 1232.7,3.36 1716,224.79 391.9,179.55 676.5,465.35 733.3,879.55 125.7,917.4 -277.3,1356.9 -292.9,1373.6 l -4.2,4.9 c -16.2,22.2 -11.4,53.4 10.7,69.7 254.4,186.3 446.9,453 553,717 65.8,163.8 98,325.8 90.7,465.7 -7,133.8 -50.3,246.6 -135.3,319.2 -51.4,43.7 -118.9,73.8 -203.8,85.7 -617.2,86.9 -908.2,-650.9 -909,-653 v -0.1" /></g><g
         transform="scale(1.81574)"
         id="g50"><path
           id="path52"
           style="fill:#4e312e;fill-opacity:1;fill-rule:nonzero;stroke:none"
           d="m 9942.55,16277 c 16.68,20.2 46.59,23 66.75,6.3 20.2,-16.7 23,-46.6 6.3,-66.7 -2.2,-2.7 -787.64,-944.2 -640.59,-1989.1 70.99,-504.6 643.09,-871.3 1378.79,-1129.6 1162.3,-408 2725.5,-541.3 3403.3,-525.3 26.1,0.6 47.8,-20.1 48.4,-46.2 0.6,-26.1 -20,-47.8 -46.1,-48.4 -684.4,-16.2 -2262.9,118.4 -3436.7,530.5 -767.1,269.3 -1364.6,658.9 -1441.54,1206 -152.94,1086.6 659.07,2059.7 661.39,2062.5 v 0" /></g><g
         transform="scale(1.89106)"
         id="g54"><path
           id="path56"
           style="fill:#4e312e;fill-opacity:1;fill-rule:nonzero;stroke:none"
           d="m 16211.5,13040.5 c 14.7,20.4 43.2,25 63.5,10.2 20.4,-14.8 25,-43.3 10.2,-63.6 -1.8,-2.4 -616.4,-861.2 -1468.3,-965.6 -25.1,-3 -47.7,14.8 -50.8,39.8 -3,24.9 14.7,47.7 39.7,50.7 812.3,99.5 1404,926.2 1405.7,928.5 v 0" /></g><g
         transform="scale(1.5832)"
         id="g58"><path
           id="path60"
           style="fill:#4e312e;fill-opacity:1;fill-rule:nonzero;stroke:none"
           d="m 14110.6,14527.6 c -1.7,30 21.3,55.6 51.3,57.3 29.9,1.6 55.5,-21.3 57.2,-51.3 0,-1.7 28.2,-603.3 587.3,-688 268.9,-40.7 549.2,9.5 790.2,105.5 278.5,111 502.6,281.2 594,441 14.9,26.1 48.2,35.1 74.3,20.2 26.1,-15 35.1,-48.2 20.2,-74.3 -102.6,-179.3 -347.5,-367.8 -648.5,-487.7 -257.4,-102.5 -557.5,-156.1 -846.4,-112.3 -647.4,98.1 -679.5,787.7 -679.6,789.7 v -0.1" /></g><g
         transform="scale(1.46053)"
         id="g62"><path
           id="path64"
           style="fill:#4e312e;fill-opacity:1;fill-rule:nonzero;stroke:none"
           d="m 13266.9,16226.9 c -5.4,32.1 16.3,62.4 48.4,67.8 32.1,5.3 62.4,-16.3 67.8,-48.5 0.3,-1.9 102,-669 715.3,-942.5 64.3,-28.6 127.5,-50.2 189.2,-65.6 233.3,-57.9 444.5,-24.9 613.9,60 168.4,84.4 295.5,219.9 361.5,367.7 14.5,32.6 26,65.8 34.3,99.3 7.7,31.5 39.6,50.8 71.3,43.1 31.5,-7.8 50.8,-39.7 43,-71.3 -9.9,-40 -23.7,-79.8 -41.2,-119 -76.4,-171.4 -222.9,-327.9 -416.3,-425 -192.6,-96.6 -431.9,-134.4 -694.6,-69.2 -68.1,16.9 -138,40.9 -209.1,72.6 -672.1,299.7 -783.3,1028.5 -783.6,1030.6 h 0.1" /></g><g
         transform="scale(1.37577)"
         id="g66"><path
           id="path68"
           style="fill:#4e312e;fill-opacity:1;fill-rule:nonzero;stroke:none"
           d="m 14201.8,16275.9 c 24.7,24.1 64.3,23.6 88.3,-1.2 24.1,-24.7 23.6,-64.3 -1.1,-88.3 -0.8,-0.7 -256.2,-245 -293.1,-809.2 -2.2,-34.5 -31.9,-60.7 -66.4,-58.5 -34.4,2.1 -60.6,31.8 -58.5,66.2 40.2,612.8 330,890.2 330.8,891 v 0" /></g><g
         transform="scale(1.49882)"
         id="g70"><path
           id="path72"
           style="fill:#4e312e;fill-opacity:1;fill-rule:nonzero;stroke:none"
           d="m 12025.3,16232.5 c -3.7,31.5 18.8,60.1 50.4,63.8 31.5,3.7 60,-18.8 63.8,-50.3 0.3,-3.1 121,-1087.1 905.5,-1351.3 30,-10.1 46.1,-42.6 36.1,-72.6 -10,-30 -42.5,-46.2 -72.6,-36.2 -854.4,287.9 -982.8,1443.3 -983.2,1446.6" /></g><g
         transform="scale(1.92121)"
         id="g74"><path
           id="path76"
           style="fill:#4e312e;fill-opacity:1;fill-rule:nonzero;stroke:none"
           d="m 14440.4,11399.7 c -23,-9.1 -49,2 -58.2,24.9 -9.2,23 1.9,49 24.9,58.2 2.5,1.1 884.5,369.4 1563.5,-309.6 245.7,-245.6 329.4,-696.7 245.8,-1123.6 -40.4,-206.35 -120.1,-407.94 -239.4,-578.41 -120.4,-171.92 -280.9,-312.09 -482.2,-394.02 -340.4,-138.5 -795.5,-110.03 -1366.5,214.76 -21.5,12.23 -29,39.56 -16.9,61 12.2,21.5 39.5,29.05 61,16.87 543.7,-309.28 972,-338.43 1288.8,-209.5 184.4,75 331.8,203.88 442.5,362.06 111.7,159.59 186.5,349.31 224.7,544.44 78.2,399.5 3.1,818.6 -221.3,1042.9 -636.6,636.7 -1464.4,290.9 -1466.8,290 h 0.1" /></g><g
         transform="scale(1.6886)"
         id="g78"><path
           id="path80"
           style="fill:#7cb2e4;fill-opacity:1;fill-rule:evenodd;stroke:none"
           d="m 15897.4,16154.2 c 222.3,0 402.6,-243.6 402.6,-544.2 0,-300.5 -180.3,-544.2 -402.6,-544.2 -222.3,0 -402.5,243.7 -402.5,544.2 0,300.6 180.2,544.2 402.5,544.2" /></g><g
         transform="scale(1.73924)"
         id="g82"><path
           id="path84"
           style="fill:#7cb2e4;fill-opacity:1;fill-rule:evenodd;stroke:none"
           d="m 11438.3,16257.2 c 211.5,-42.9 336,-309.4 278.1,-595.4 -57.9,-286 -276.3,-483.1 -487.8,-440.3 -211.5,42.9 -336.1,309.4 -278.2,595.4 57.9,286 276.3,483.1 487.9,440.3" /></g><g
         transform="scale(1.61599)"
         id="g86"><path
           id="path88"
           style="fill:#fbd3e3;fill-opacity:1;fill-rule:evenodd;stroke:none"
           d="m 11874.2,16227.8 c 392,-72.2 668.7,-353.7 618,-628.7 -50.6,-275 -409.5,-439.4 -801.5,-367.2 -392.1,72.3 -668.8,353.8 -618.2,628.7 50.7,275 409.6,439.4 801.7,367.2" /></g><g
         transform="scale(1.73633)"
         id="g90"><path
           id="path92"
           style="fill:#fbd3e3;fill-opacity:1;fill-rule:evenodd;stroke:none"
           d="m 15221.5,13578.9 -4,-3.1 v 0 l 4,3.1 z m 364.8,859 c 370,26.4 685.1,-162.5 703.7,-422 10,-140.3 -68.7,-272.6 -201.5,-368.6 -19.3,26.1 -41.4,49.9 -66.5,71.3 -65.2,55.6 -149.2,93.4 -253.3,108 -269.6,38 -482.2,-61.4 -641.4,-196.9 -103.1,74.6 -169.2,175.5 -177.4,290.2 -18.6,259.5 266.3,491.5 636.4,518 v 0" /></g><g
         transform="scale(1.49241)"
         id="g94"><path
           id="path96"
           style="fill:#4e312e;fill-opacity:1;fill-rule:nonzero;stroke:none"
           d="m 16006.5,14060.4 c 21.7,-23.3 20.4,-59.8 -2.9,-81.4 -23.3,-21.7 -59.8,-20.4 -81.4,2.9 -150.4,161 -310.6,244.7 -464.2,264.8 -131.3,17.1 -259,-12.4 -372.1,-79.9 -115.2,-68.8 -216,-177.2 -291.3,-316.4 -125,-231.3 -179.2,-546.4 -113.9,-906.7 74.6,-411.6 347.8,-723.4 648.4,-889.9 99.4,-55.1 201.8,-94.2 300.7,-115.6 97.4,-20.9 190.8,-24.7 274,-9.6 120.5,21.8 220.6,84 280.1,191.4 15.5,27.8 50.6,37.8 78.3,22.3 27.8,-15.4 37.8,-50.5 22.4,-78.2 -77.7,-140.2 -206.4,-220.9 -360.5,-248.8 -98.5,-17.8 -207,-13.8 -318.2,10.1 -109.8,23.7 -223,66.9 -332.8,127.7 -327,181.2 -624.3,521 -705.7,970.3 -70.3,387.9 -10.8,729.2 125.7,981.6 85.2,157.7 200.6,281.2 333.7,360.6 135.1,80.7 288.1,115.8 446,95.2 179.3,-23.3 363.7,-118.5 533.7,-300.3 v -0.1" /></g><g
         transform="scale(1.58798)"
         id="g98"><path
           id="path100"
           style="fill:#fddfe0;fill-opacity:1;fill-rule:nonzero;stroke:none"
           d="m 14876.7,15999.9 c -8.1,0.2 -16.2,0.4 -24.5,1 -206.9,12.5 -326.1,192.8 -378.7,299.1 -65.5,-72.5 -191.5,-178.3 -366.7,-174 -5.8,0.2 -11.4,0.4 -17,0.8 -20.6,-129.2 -66.3,-526.4 109.4,-737.2 47.5,-57 114.1,-94.6 186.9,-108.4 66.3,-12.4 137.9,-5.1 205.3,25.4 68,30.9 131.9,85.8 182,168.1 71.2,117.1 114.4,289 103.3,525.2 v 0" /></g><g
         transform="scale(1.6021)"
         id="g102"><path
           id="path104"
           style="fill:#4e312e;fill-opacity:1;fill-rule:nonzero;stroke:none"
           d="m 13650.3,16207.8 c -7.6,24.5 6.2,50.6 30.8,58.1 24.6,7.6 50.6,-6.2 58.1,-30.8 0.2,-0.4 43.3,-153.3 245.4,-158.3 209.5,-5.3 333.6,194.7 333.9,195.2 13.9,21.7 42.7,28 64.3,14.1 9.5,-6.1 15.9,-14.9 19.1,-24.8 0.3,-0.8 96.5,-294.8 324.8,-308.6 229.3,-13.9 314,157 314.1,157.4 11.5,23 39.4,32.2 62.3,20.8 22.9,-11.4 32.2,-39.4 20.8,-62.3 -0.3,-0.6 -112.1,-226.4 -402.6,-208.8 -205.1,12.4 -323.2,191.1 -375.4,296.5 -64.9,-71.9 -189.8,-176.8 -363.5,-172.5 -270.4,6.8 -331.9,223.4 -332.1,223.9 v 0.1" /></g><g
         transform="scale(1.58109)"
         id="g106"><path
           id="path108"
           style="fill:#4e312e;fill-opacity:1;fill-rule:nonzero;stroke:none"
           d="m 14066.4,16258.1 c 5.3,25.5 30.2,41.9 55.7,36.6 25.5,-5.3 41.8,-30.3 36.5,-55.7 -0.2,-1.6 -109.9,-527.6 102.4,-782.4 47.8,-57.2 114.6,-95 187.7,-108.8 66.6,-12.6 138.6,-5.1 206.2,25.5 68.3,31 132.6,86.2 182.9,168.9 76,124.9 120.1,311.9 101,572.7 -1.8,26 17.8,48.5 43.7,50.4 26,1.8 48.6,-17.8 50.4,-43.8 20.8,-282.1 -29.2,-488 -114.6,-628.4 -60.9,-100 -139.8,-167.3 -224.7,-205.8 -85.6,-38.9 -177.1,-48.2 -262.2,-32.1 -94.2,17.7 -180.6,66.7 -242.7,141.2 -241.4,289.8 -122.6,860.1 -122.3,861.8 v -0.1" /></g><g
         transform="scale(1.81037)"
         id="g110"><path
           id="path112"
           style="fill:#4e312e;fill-opacity:1;fill-rule:nonzero;stroke:none"
           d="m 15869.3,11383 c -23.4,-11.9 -52,-2.8 -64,20.5 -12,23.3 -2.9,52 20.4,63.9 85.2,44.1 167.9,45.8 240,16.4 58.5,-23.9 108.7,-68.4 146.4,-127.3 36.2,-56.8 60.9,-127.2 69.7,-205.5 18.2,-161.3 -30.2,-358.2 -183.3,-538.6 -33.5,-39.4 -70.7,-76.8 -110.9,-110.6 -104.2,-87.7 -227.2,-149.8 -357.1,-162.9 -131.9,-13.3 -269.4,23.5 -399.7,134.1 -32.4,27.5 -64.6,59.9 -96.4,97.7 -16.8,20 -14.3,49.9 5.8,66.7 20,16.9 49.9,14.3 66.8,-5.8 27.6,-32.8 56.1,-61.4 85.1,-86.1 108.6,-92.1 221.7,-122.9 329.1,-112.1 109.5,11 214.9,64.8 305.3,140.9 35.4,29.7 68.8,63.4 99.4,99.4 134.2,158.2 177,328.5 161.4,466.9 -7.2,63.7 -26.7,120.3 -55.2,164.9 -27.2,42.6 -62.3,74.2 -102.1,90.5 -47,19.2 -102.2,17.3 -160.7,-13 v 0" /></g></g></g></svg>