<?xml version="1.0" encoding="UTF-8" standalone="no"?>
<svg
   xmlns:dc="http://purl.org/dc/elements/1.1/"
   xmlns:cc="http://creativecommons.org/ns#"
   xmlns:rdf="http://www.w3.org/1999/02/22-rdf-syntax-ns#"
   xmlns:svg="http://www.w3.org/2000/svg"
   xmlns="http://www.w3.org/2000/svg"
   viewBox="0 0 3980.3867 2735.04"
   height="2735.04"
   width="3980.3867"
   xml:space="preserve"
   id="svg2"
   version="1.1"><metadata
     id="metadata8"><rdf:RDF><cc:Work
         rdf:about=""><dc:format>image/svg+xml</dc:format><dc:type
           rdf:resource="http://purl.org/dc/dcmitype/StillImage" /></cc:Work></rdf:RDF></metadata><defs
     id="defs6" /><g
     transform="matrix(1.3333333,0,0,-1.3333333,0,2735.04)"
     id="g10"><g
       transform="scale(0.1)"
       id="g12"><g
         transform="scale(1.83147)"
         id="g14"><path
           id="path16"
           style="fill:#ffffff;fill-opacity:1;fill-rule:nonzero;stroke:none"
           d="M 16300,0 H 0 V 11200.2 H 16300 V 0" /></g><g
         transform="scale(1.69312)"
         id="g18"><path
           id="path20"
           style="fill:#ffb600;fill-opacity:1;fill-rule:nonzero;stroke:none"
           d="m 16300,9095.65 c -1792.9,-147.89 -1912.8,-267.78 -2060.7,-2060.71 -147.9,1792.93 -267.8,1912.82 -2060.7,2060.71 1792.9,147.88 1912.8,267.78 2060.7,2060.75 147.9,-1792.97 267.8,-1912.87 2060.7,-2060.75" /></g><g
         transform="scale(1.6062)"
         id="g22"><path
           id="path24"
           style="fill:#ffb600;fill-opacity:1;fill-rule:nonzero;stroke:none"
           d="m 16300,8015.46 c -455.1,-37.55 -485.6,-67.97 -523.1,-523.11 -37.5,455.14 -68,485.56 -523.1,523.11 455.1,37.54 485.6,67.97 523.1,523.11 37.5,-455.14 68,-485.57 523.1,-523.11" /></g><g
         transform="scale(1.35487)"
         id="g26"><path
           id="path28"
           style="fill:#ffb600;fill-opacity:1;fill-rule:nonzero;stroke:none"
           d="m 16300,10570.6 c -341.8,-28.2 -364.6,-51.1 -392.8,-392.9 -28.2,341.8 -51.1,364.7 -392.8,392.9 341.7,28.1 364.6,51 392.8,392.8 28.2,-341.8 51,-364.7 392.8,-392.8" /></g><g
         transform="scale(1.58539)"
         id="g30"><path
           id="path32"
           style="fill:#ffb600;fill-opacity:1;fill-rule:nonzero;stroke:none"
           d="m 16300,11054 c -173.8,-14.4 -185.4,-26 -199.7,-199.7 -14.4,173.7 -26,185.3 -199.7,199.7 173.7,14.3 185.3,25.9 199.7,199.7 14.3,-173.8 25.9,-185.4 199.7,-199.7" /></g><g
         transform="scale(1.14406)"
         id="g34"><path
           id="path36"
           style="fill:#ffb600;fill-opacity:1;fill-rule:nonzero;stroke:none"
           d="M 7518.98,13250.3 C 4865.6,13031.4 4688.17,12854 4469.3,10200.6 c -218.86,2653.4 -396.28,2830.8 -3049.69,3049.7 2653.41,218.9 2830.83,396.3 3049.69,3049.7 218.87,-2653.4 396.3,-2830.8 3049.68,-3049.7" /></g><g
         transform="scale(1.11383)"
         id="g38"><path
           id="path40"
           style="fill:#ffb600;fill-opacity:1;fill-rule:nonzero;stroke:none"
           d="m 3796.43,15518 c -680.38,-56.1 -725.89,-101.6 -782.01,-782 -56.12,680.4 -101.61,725.9 -782.01,782 680.4,56.1 725.89,101.6 782.01,782 56.12,-680.4 101.63,-725.9 782.01,-782" /></g><path
         id="path42"
         style="fill:#ffb600;fill-opacity:1;fill-rule:nonzero;stroke:none"
         d="m 8602.16,5051.5 c -3035.63,-250.4 -3238.62,-453.4 -3489.02,-3489 -250.39,3035.6 -453.37,3238.6 -3489.02,3489 3035.65,250.4 3238.63,453.4 3489.02,3489 250.4,-3035.6 453.39,-3238.6 3489.02,-3489" /><path
         id="path44"
         style="fill:#ffb600;fill-opacity:1;fill-rule:nonzero;stroke:none"
         d="m 8201.57,7061.2 c -757.83,-62.5 -808.52,-113.2 -871.02,-871 -62.51,757.8 -113.18,808.5 -871.02,871 757.84,62.5 808.51,113.2 871.02,871.1 62.5,-757.9 113.19,-808.6 871.02,-871.1" /><g
         transform="scale(1.11444)"
         id="g46"><path
           id="path48"
           style="fill:#ffb600;fill-opacity:1;fill-rule:nonzero;stroke:none"
           d="m 16300,4947.32 c -2723.9,-224.69 -2906,-406.84 -3130.7,-3130.71 -224.7,2723.87 -406.9,2906.02 -3130.7,3130.71 2723.8,224.69 2906,406.84 3130.7,3130.81 224.7,-2723.97 406.8,-2906.12 3130.7,-3130.81" /></g><path
         id="path50"
         style="fill:#ffb600;fill-opacity:1;fill-rule:nonzero;stroke:none"
         d="m 13399.1,3527.1 c -1019,-84 -1087.2,-152.2 -1171.3,-1171.3 -84,1019.1 -152.2,1087.3 -1171.3,1171.3 1019.1,84.1 1087.3,152.2 1171.3,1171.3 84.1,-1019.1 152.3,-1087.2 1171.3,-1171.3" /><path
         id="path52"
         style="fill:#ffb600;fill-opacity:1;fill-rule:nonzero;stroke:none"
         d="m 12244.1,6283.7 c -215.1,-17.7 -229.5,-32.1 -247.3,-247.3 -17.7,215.2 -32.1,229.6 -247.3,247.3 215.2,17.8 229.6,32.2 247.3,247.3 17.8,-215.1 32.2,-229.5 247.3,-247.3" /><path
         id="path54"
         style="fill:#ffb600;fill-opacity:1;fill-rule:nonzero;stroke:none"
         d="m 15578.4,3295.6 c -215.2,-17.8 -229.6,-32.2 -247.3,-247.3 -17.8,215.1 -32.1,229.5 -247.3,247.3 215.2,17.7 229.5,32.1 247.3,247.3 17.7,-215.2 32.1,-229.6 247.3,-247.3" /><path
         id="path56"
         style="fill:#ffb600;fill-opacity:1;fill-rule:nonzero;stroke:none"
         d="m 11559,4312 c -215.2,-17.8 -229.6,-32.2 -247.3,-247.3 -17.8,215.1 -32.2,229.5 -247.3,247.3 215.1,17.7 229.5,32.1 247.3,247.3 17.7,-215.2 32.1,-229.6 247.3,-247.3" /><g
         transform="scale(1.12243)"
         id="g58"><path
           id="path60"
           style="fill:#ffb600;fill-opacity:1;fill-rule:nonzero;stroke:none"
           d="m 16118.9,13191.6 c -2704.6,-223.1 -2885.3,-404 -3108.4,-3108.5 -223.1,2704.5 -404,2885.4 -3108.45,3108.5 2704.45,223 2885.35,403.9 3108.45,3108.4 223.1,-2704.5 403.8,-2885.4 3108.4,-3108.4" /></g><g
         transform="scale(1.13613)"
         id="g62"><path
           id="path64"
           style="fill:#ffb600;fill-opacity:1;fill-rule:nonzero;stroke:none"
           d="m 15938,14943.7 c -1180,-97.3 -1259,-176.2 -1356.3,-1356.2 -97.4,1180 -176.2,1258.9 -1356.3,1356.2 1180.1,97.4 1258.9,176.3 1356.3,1356.3 97.3,-1180 176.3,-1258.9 1356.3,-1356.3" /></g><path
         id="path66"
         style="fill:#ffb600;fill-opacity:1;fill-rule:nonzero;stroke:none"
         d="m 13811.2,12820.3 c -637.3,-52.6 -679.9,-95.2 -732.4,-732.5 -52.6,637.3 -95.2,679.9 -732.5,732.5 637.3,52.5 679.9,95.1 732.5,732.4 52.5,-637.3 95.1,-679.9 732.4,-732.4" /><g
         transform="scale(1.69312)"
         id="g68"><path
           id="path70"
           style="fill:#ffb600;fill-opacity:1;fill-rule:nonzero;stroke:none"
           d="m 16300,3119.99 c -1792.9,-147.9 -1912.8,-267.73 -2060.7,-2060.7 -147.9,1792.97 -267.8,1912.8 -2060.7,2060.7 1792.9,147.89 1912.8,267.79 2060.7,2060.69 147.9,-1792.9 267.8,-1912.8 2060.7,-2060.69" /></g><g
         transform="scale(1.63076)"
         id="g72"><path
           id="path74"
           style="fill:#ffb600;fill-opacity:1;fill-rule:nonzero;stroke:none"
           d="m 16300,2323.4 c -390.7,-32.2 -416.9,-58.32 -449.1,-449.12 -32.3,390.8 -58.4,416.92 -449.1,449.12 390.7,32.25 416.8,58.37 449.1,449.11 32.2,-390.74 58.4,-416.86 449.1,-449.11" /></g><g
         transform="scale(1.37143)"
         id="g76"><path
           id="path78"
           style="fill:#ffb600;fill-opacity:1;fill-rule:nonzero;stroke:none"
           d="m 16300,5333.49 c -191.1,-15.75 -203.9,-28.51 -219.7,-219.63 -15.7,191.12 -28.5,203.88 -219.6,219.63 191.1,15.75 203.9,28.51 219.6,219.62 15.8,-191.11 28.6,-203.87 219.7,-219.62" /></g></g></g></svg>